<svg id="svg" version="1.1" xmlns="http://www.w3.org/2000/svg" xmlns:xlink="http://www.w3.org/1999/xlink" width="400" height="134.36692506459949" viewBox="0, 0, 400,134.36692506459949"><g id="svgg"><path id="path0" d="M16.143 13.319 C 15.605 13.755,15.555 15.718,16.074 16.097 C 16.666 16.530,32.561 16.439,33.000 16.000 C 33.516 15.484,33.472 13.956,32.924 13.409 L 32.515 13.000 24.526 13.000 C 16.908 13.000,16.519 13.015,16.143 13.319 M246.337 27.853 C 245.657 28.124,245.364 28.491,245.245 29.223 C 245.183 29.605,244.915 30.417,244.649 31.028 C 244.384 31.639,244.167 32.264,244.167 32.416 C 244.167 32.569,243.986 33.156,243.765 33.722 C 243.544 34.287,243.247 35.162,243.104 35.667 C 242.441 38.016,242.223 38.206,237.250 40.757 C 235.700 41.552,235.500 41.808,235.500 42.993 C 235.500 44.499,235.635 44.566,238.875 44.667 L 241.549 44.750 241.899 45.220 C 242.249 45.689,242.250 45.759,242.345 61.804 C 242.415 73.588,242.493 78.073,242.638 78.500 C 242.747 78.821,242.952 79.701,243.094 80.456 C 244.361 87.188,250.547 90.402,259.583 89.024 C 262.731 88.544,263.000 88.252,263.000 85.307 C 263.000 82.628,263.075 82.692,260.286 82.975 C 255.127 83.498,253.113 82.947,251.708 80.626 C 250.175 78.097,250.139 77.600,250.199 60.130 L 250.250 45.509 250.629 45.130 C 251.005 44.754,251.060 44.749,256.519 44.667 L 262.030 44.583 262.348 44.190 C 262.619 43.855,262.667 43.519,262.667 41.930 C 262.667 39.177,263.265 39.433,256.582 39.333 L 250.971 39.250 250.569 38.782 L 250.167 38.315 250.167 33.400 L 250.167 28.485 249.758 28.076 C 249.310 27.628,247.239 27.493,246.337 27.853 M370.717 27.943 C 370.301 28.302,369.427 30.255,369.170 31.402 C 369.071 31.841,368.869 32.437,368.719 32.725 C 368.569 33.014,368.315 33.737,368.154 34.333 C 367.217 37.797,366.908 38.176,363.685 39.828 C 360.533 41.443,360.199 41.696,359.989 42.630 C 359.613 44.307,359.987 44.542,363.167 44.625 C 364.496 44.660,365.773 44.760,366.005 44.849 C 366.959 45.213,366.908 44.346,367.019 62.167 C 367.076 71.196,367.177 78.808,367.244 79.083 C 368.516 84.271,370.350 86.845,373.828 88.320 C 376.440 89.429,383.376 89.563,385.998 88.556 C 387.586 87.946,387.661 87.800,387.664 85.324 C 387.667 82.769,387.651 82.748,385.817 82.894 C 379.523 83.395,378.443 83.195,376.665 81.200 C 374.761 79.064,374.668 78.113,374.667 60.813 C 374.667 45.917,374.670 45.826,375.170 45.161 L 375.480 44.750 381.069 44.667 C 387.939 44.564,387.417 44.792,387.417 41.897 C 387.417 39.126,387.909 39.333,381.323 39.333 C 374.102 39.333,374.786 39.971,374.669 33.133 C 374.604 29.389,374.531 28.130,374.367 27.966 C 373.989 27.588,371.151 27.570,370.717 27.943 M16.213 35.501 C 15.637 35.737,15.656 34.052,15.704 80.888 C 15.749 124.691,15.755 125.364,16.074 125.597 C 16.666 126.030,32.561 125.939,33.000 125.500 C 33.332 125.168,33.333 124.944,33.333 80.609 L 33.333 36.052 32.983 35.734 C 32.594 35.382,17.033 35.166,16.213 35.501 M289.333 38.499 C 279.406 39.186,273.017 46.659,271.163 59.751 C 270.902 61.592,270.891 66.618,271.144 68.333 C 271.604 71.452,272.364 75.093,272.654 75.575 C 272.824 75.854,273.016 76.271,273.082 76.500 C 273.581 78.240,274.981 80.565,276.882 82.811 C 278.663 84.915,283.036 87.533,286.083 88.320 C 286.817 88.509,287.829 88.781,288.333 88.923 C 290.455 89.523,299.222 89.249,301.833 88.501 C 308.480 86.597,308.331 86.727,308.332 82.864 C 308.334 79.805,308.135 79.565,306.308 80.415 C 305.818 80.643,305.283 80.831,305.120 80.832 C 304.957 80.833,304.394 81.014,303.870 81.234 C 303.346 81.455,302.279 81.753,301.500 81.897 C 300.721 82.040,299.671 82.280,299.167 82.429 C 297.787 82.838,291.252 82.956,290.042 82.595 C 289.560 82.451,288.773 82.222,288.292 82.087 C 283.908 80.852,279.840 76.117,279.834 72.243 C 279.834 71.873,279.641 70.488,279.405 69.165 C 278.948 66.598,278.969 65.897,279.521 65.398 C 279.854 65.096,280.469 65.080,295.092 65.000 C 306.319 64.939,310.368 64.866,310.510 64.723 C 310.746 64.487,310.636 59.101,310.343 56.607 C 309.997 53.654,309.140 50.378,308.430 49.294 C 308.292 49.083,308.070 48.602,307.937 48.224 C 307.297 46.409,303.495 42.183,301.667 41.253 C 301.162 40.997,300.225 40.522,299.583 40.198 C 298.566 39.685,297.035 39.178,295.000 38.680 C 294.139 38.469,291.144 38.373,289.333 38.499 M336.333 38.492 C 335.646 38.558,334.782 38.698,334.415 38.802 C 334.047 38.906,332.922 39.103,331.915 39.240 C 324.263 40.281,319.986 46.240,321.326 53.989 C 321.524 55.129,321.732 56.142,321.789 56.239 C 323.651 59.405,326.718 62.016,330.651 63.780 C 331.347 64.093,332.742 64.750,333.750 65.241 C 334.758 65.732,336.261 66.439,337.089 66.813 C 340.517 68.357,342.813 69.898,344.383 71.705 C 347.065 74.791,345.788 80.433,342.096 81.814 C 341.576 82.009,340.867 82.313,340.520 82.490 C 338.729 83.404,330.756 83.304,327.829 82.332 C 327.004 82.058,326.173 81.833,325.984 81.833 C 325.794 81.833,325.077 81.608,324.390 81.333 C 323.703 81.058,323.053 80.833,322.946 80.832 C 322.838 80.831,322.350 80.644,321.861 80.416 C 320.375 79.724,320.333 79.799,320.333 83.150 C 320.333 86.749,320.780 87.301,324.333 88.097 C 324.929 88.230,325.867 88.448,326.417 88.581 C 329.016 89.210,337.887 89.422,340.540 88.919 C 346.225 87.841,349.507 85.691,351.882 81.488 C 353.033 79.452,353.662 74.669,353.075 72.410 C 352.526 70.292,350.553 67.042,349.183 65.998 C 346.811 64.189,344.954 63.070,342.333 61.869 C 340.290 60.932,338.915 60.295,337.583 59.670 C 336.850 59.325,336.063 58.986,335.833 58.917 C 335.099 58.695,332.838 57.361,331.227 56.200 C 327.612 53.595,327.263 49.076,330.460 46.274 C 332.197 44.751,337.353 43.984,340.337 44.804 C 341.023 44.992,342.286 45.228,343.144 45.329 C 344.003 45.429,344.922 45.623,345.186 45.760 C 345.620 45.984,347.563 46.729,348.957 47.204 C 350.034 47.572,350.145 47.421,351.683 43.500 C 352.404 41.663,351.962 41.171,348.834 40.333 C 348.422 40.222,347.810 39.992,347.475 39.820 C 347.139 39.649,346.538 39.462,346.140 39.406 C 345.742 39.349,344.742 39.129,343.917 38.917 C 342.242 38.486,338.546 38.279,336.333 38.492 M294.374 44.853 C 299.372 46.546,301.980 50.829,301.997 57.371 C 302.002 59.220,302.905 59.083,290.667 59.083 C 278.291 59.083,278.710 59.164,279.416 56.917 C 279.560 56.458,279.746 55.446,279.828 54.667 C 280.244 50.736,283.900 46.026,287.133 45.258 C 287.747 45.112,288.625 44.887,289.083 44.757 C 290.416 44.382,293.127 44.431,294.374 44.853 " stroke="none" fill="#5c657e" fill-rule="evenodd"></path><path id="path1" d="M63.403 13.015 C 62.851 13.625,62.846 15.695,63.396 16.244 L 63.827 16.676 72.095 16.630 L 80.363 16.583 80.698 16.169 C 81.232 15.510,81.075 13.608,80.442 13.063 L 79.981 12.667 71.850 12.667 C 63.815 12.667,63.715 12.671,63.403 13.015 M87.250 12.868 C 86.019 13.574,86.227 16.261,87.537 16.585 C 87.746 16.637,91.542 16.657,95.973 16.631 L 104.030 16.583 104.365 16.169 C 104.899 15.510,104.742 13.608,104.109 13.063 L 103.648 12.667 95.616 12.672 C 89.888 12.675,87.488 12.732,87.250 12.868 M39.712 13.284 C 39.343 13.848,39.298 15.806,39.645 16.224 C 40.048 16.710,56.657 16.638,57.099 16.149 C 57.602 15.593,57.549 13.835,57.013 13.263 L 56.609 12.833 48.308 12.833 L 40.008 12.833 39.712 13.284 M63.443 35.342 L 62.997 35.693 63.040 60.027 C 63.083 83.896,63.090 84.365,63.407 84.597 C 63.676 84.794,65.124 84.833,72.020 84.833 L 80.309 84.833 80.655 84.394 L 81.000 83.955 81.000 59.913 C 81.000 36.491,80.992 35.860,80.681 35.477 L 80.363 35.083 72.126 35.037 C 63.968 34.991,63.885 34.994,63.443 35.342 M87.417 35.178 C 86.455 35.464,86.500 34.722,86.500 50.289 L 86.500 64.682 86.893 65.075 C 87.464 65.646,88.389 65.699,96.640 65.637 L 103.863 65.583 104.265 65.116 L 104.667 64.648 104.667 50.313 C 104.667 34.837,104.706 35.452,103.706 35.175 C 102.933 34.960,88.138 34.963,87.417 35.178 M39.747 35.571 L 39.333 35.985 39.333 72.417 L 39.333 108.848 39.742 109.258 L 40.152 109.667 48.235 109.667 C 57.129 109.667,57.055 109.675,57.342 108.681 C 57.691 107.471,57.473 35.902,57.119 35.548 C 56.843 35.271,56.230 35.247,48.491 35.204 L 40.161 35.158 39.747 35.571 " stroke="none" fill="#5c657e" fill-rule="evenodd"></path><path id="path2" d="M13.583 22.155 C 9.878 23.063,9.661 28.462,13.280 29.695 C 14.081 29.968,102.686 30.116,105.393 29.849 C 109.851 29.409,111.091 24.496,107.261 22.446 L 106.583 22.083 60.333 22.058 C 34.896 22.044,13.858 22.088,13.583 22.155 M160.167 38.771 C 158.588 39.024,158.063 39.181,155.632 40.128 C 154.087 40.729,151.591 42.654,150.413 44.154 C 148.832 46.167,147.912 45.927,147.585 43.417 C 147.372 41.786,146.827 39.924,146.474 39.625 C 145.776 39.034,141.393 39.252,140.961 39.900 C 140.757 40.206,140.806 109.739,141.010 110.277 C 141.108 110.534,141.277 110.800,141.385 110.869 C 141.773 111.116,147.573 111.022,147.926 110.763 C 148.411 110.409,148.514 92.722,148.065 86.972 C 147.820 83.844,147.807 83.149,147.988 82.931 C 148.482 82.336,149.312 82.714,150.560 84.104 C 154.970 89.017,164.732 90.832,170.540 87.818 C 173.616 86.222,175.617 84.466,177.363 81.835 C 178.394 80.280,179.667 77.781,179.667 77.311 C 179.667 77.216,179.880 76.601,180.141 75.944 C 180.402 75.287,180.708 74.150,180.823 73.417 C 180.937 72.683,181.189 71.521,181.383 70.833 C 181.924 68.912,181.909 58.804,181.362 56.665 C 181.162 55.885,180.891 54.634,180.759 53.884 C 180.627 53.134,180.412 52.310,180.280 52.052 C 180.149 51.794,179.913 51.133,179.757 50.583 C 178.833 47.340,175.373 42.818,172.452 41.035 C 168.955 38.900,164.492 38.078,160.167 38.771 M189.033 39.533 C 188.753 39.814,188.771 39.919,189.354 41.417 C 189.923 42.879,190.541 44.517,191.314 46.614 C 191.591 47.365,191.897 48.115,191.995 48.281 C 192.168 48.574,192.323 48.997,193.357 51.988 C 193.624 52.761,193.908 53.473,193.987 53.572 C 194.067 53.670,194.245 54.125,194.383 54.583 C 194.521 55.042,194.827 55.829,195.065 56.333 C 195.302 56.837,195.497 57.343,195.498 57.457 C 195.499 57.571,195.947 58.808,196.494 60.207 C 197.695 63.276,198.889 66.420,200.090 69.667 C 200.582 70.996,201.218 72.683,201.504 73.417 C 201.791 74.150,202.463 75.912,202.998 77.333 C 203.534 78.754,204.273 80.704,204.641 81.667 C 207.406 88.897,207.511 89.274,207.109 90.500 C 203.098 102.733,201.083 104.737,192.786 104.746 C 188.851 104.751,189.173 104.509,189.169 107.466 C 189.166 109.835,189.410 110.497,190.284 110.502 C 190.449 110.503,191.633 110.615,192.917 110.751 C 199.559 111.457,204.376 109.744,207.295 105.637 C 207.820 104.897,208.469 103.983,208.737 103.605 C 209.499 102.528,210.329 101.010,210.753 99.917 C 210.966 99.367,211.418 98.279,211.758 97.500 C 212.097 96.721,212.583 95.521,212.836 94.833 C 213.090 94.146,213.523 92.983,213.798 92.250 C 214.073 91.517,214.428 90.542,214.586 90.083 C 214.745 89.625,215.023 88.875,215.203 88.417 C 215.384 87.958,215.663 87.094,215.823 86.497 C 215.983 85.900,216.211 85.229,216.329 85.008 C 216.448 84.786,216.718 84.075,216.929 83.427 C 217.140 82.780,217.585 81.500,217.916 80.583 C 218.248 79.667,218.887 77.829,219.336 76.500 C 219.785 75.171,220.464 73.221,220.845 72.167 C 221.226 71.112,221.675 69.800,221.842 69.250 C 222.009 68.700,222.454 67.387,222.832 66.333 C 223.209 65.279,224.311 62.129,225.281 59.333 C 226.250 56.538,227.285 53.575,227.580 52.750 C 227.876 51.925,228.570 49.938,229.123 48.333 C 229.676 46.729,230.550 44.242,231.064 42.806 C 232.394 39.094,232.586 39.333,228.279 39.333 C 224.340 39.333,224.849 38.844,222.993 44.417 C 222.169 46.892,221.302 49.479,221.066 50.167 C 220.830 50.854,220.502 51.874,220.337 52.432 C 220.171 52.991,219.925 53.666,219.790 53.932 C 219.655 54.199,219.449 54.829,219.333 55.333 C 219.217 55.837,218.992 56.512,218.833 56.833 C 218.675 57.154,218.450 57.829,218.333 58.333 C 218.217 58.837,217.981 59.529,217.810 59.869 C 217.639 60.210,217.416 60.876,217.315 61.348 C 217.213 61.821,216.962 62.592,216.755 63.062 C 216.549 63.532,216.327 64.217,216.260 64.583 C 216.194 64.950,215.987 65.587,215.799 66.000 C 215.612 66.412,215.322 67.275,215.154 67.917 C 214.987 68.558,214.694 69.571,214.502 70.167 C 213.880 72.098,213.501 73.386,213.078 75.000 C 212.850 75.871,212.484 77.267,212.264 78.103 C 211.294 81.792,210.080 82.503,209.755 79.572 C 209.695 79.028,209.465 77.946,209.244 77.167 C 209.023 76.387,208.684 75.188,208.492 74.500 C 207.541 71.106,207.358 70.555,205.591 65.750 C 205.254 64.833,204.839 63.633,204.669 63.083 C 204.500 62.533,203.787 60.508,203.086 58.583 C 202.384 56.658,201.710 54.746,201.587 54.333 C 201.464 53.921,201.050 52.758,200.668 51.750 C 200.286 50.742,199.798 49.392,199.584 48.750 C 199.237 47.707,198.259 44.924,196.891 41.087 C 196.540 40.104,196.308 39.703,196.000 39.548 C 195.426 39.259,189.320 39.246,189.033 39.533 M165.489 45.016 C 170.038 46.572,172.985 50.859,173.499 56.667 C 173.576 57.538,173.738 59.150,173.860 60.250 C 174.139 62.785,174.140 64.385,173.862 67.000 C 173.741 68.146,173.575 69.833,173.495 70.750 C 172.921 77.290,169.004 82.312,163.946 82.991 C 156.739 83.960,150.952 80.586,149.684 74.676 C 149.585 74.212,149.359 73.402,149.182 72.875 C 148.967 72.233,148.826 71.201,148.755 69.750 C 148.697 68.558,148.572 66.578,148.478 65.349 C 148.243 62.282,148.739 55.646,149.339 53.833 C 149.506 53.329,149.695 52.654,149.760 52.334 C 150.940 46.501,158.946 42.776,165.489 45.016 " stroke="none" fill="#5c657e" fill-rule="evenodd"></path><path id="path3" d="M0.000 67.167 L 0.000 134.333 200.000 134.333 L 400.000 134.333 400.000 67.167 L 400.000 0.000 200.000 0.000 L 0.000 0.000 0.000 67.167 M33.095 12.244 C 33.844 12.557,34.167 13.308,34.167 14.737 C 34.167 17.260,34.464 17.190,24.111 17.131 L 15.806 17.083 15.320 16.539 C 14.409 15.520,14.736 12.761,15.833 12.213 C 16.494 11.883,32.298 11.911,33.095 12.244 M104.080 12.332 C 105.181 12.751,105.590 15.603,104.679 16.513 L 104.192 17.000 95.605 17.000 L 87.019 17.000 86.555 16.601 C 85.595 15.776,85.837 12.868,86.904 12.403 C 87.541 12.126,103.365 12.060,104.080 12.332 M56.537 12.507 C 57.677 12.824,58.200 15.305,57.348 16.357 L 57.030 16.750 48.543 16.796 L 40.056 16.842 39.596 16.480 C 38.605 15.701,39.149 12.629,40.309 12.451 C 41.338 12.293,55.947 12.344,56.537 12.507 M80.270 12.573 C 81.090 12.779,81.663 15.070,81.139 16.053 C 80.722 16.836,80.879 16.822,71.970 16.828 L 63.524 16.833 63.179 16.394 C 62.493 15.522,62.786 12.821,63.596 12.551 C 64.064 12.395,79.643 12.416,80.270 12.573 M106.964 21.392 C 111.290 22.881,111.474 28.797,107.244 30.430 C 106.437 30.742,105.301 30.751,60.422 30.793 L 14.427 30.836 13.162 30.415 C 8.477 28.855,8.701 22.557,13.486 21.305 C 15.232 20.848,105.628 20.932,106.964 21.392 M250.455 27.378 L 250.917 27.840 251.000 32.852 L 251.083 37.863 251.477 38.182 C 251.845 38.479,252.199 38.500,256.952 38.500 C 263.767 38.500,263.500 38.354,263.500 42.089 C 263.500 44.327,263.500 44.328,263.014 44.872 L 262.528 45.417 257.103 45.500 C 252.183 45.576,251.650 45.611,251.381 45.881 C 251.006 46.257,250.917 75.523,251.286 77.468 C 252.110 81.823,254.689 83.113,260.907 82.277 C 263.879 81.878,264.049 82.061,263.971 85.560 C 263.889 89.198,263.163 89.698,257.396 90.086 C 251.261 90.499,247.136 89.083,244.635 85.705 C 243.929 84.751,242.667 82.266,242.667 81.830 C 242.667 81.681,242.462 80.927,242.213 80.154 L 241.759 78.750 241.671 62.400 C 241.599 48.884,241.544 46.003,241.355 45.775 C 241.160 45.541,240.743 45.500,238.555 45.500 C 234.985 45.500,234.633 45.277,234.639 43.023 C 234.644 41.083,234.640 41.088,238.500 39.163 C 241.859 37.488,241.954 37.351,243.657 31.734 C 243.826 31.176,244.085 30.486,244.232 30.201 C 244.379 29.916,244.581 29.308,244.679 28.848 C 245.040 27.166,245.656 26.831,248.288 26.883 C 249.908 26.915,250.016 26.940,250.455 27.378 M374.837 27.136 C 375.383 27.578,375.479 28.510,375.490 33.487 C 375.499 37.342,375.534 37.928,375.776 38.195 C 376.032 38.478,376.429 38.500,381.365 38.500 C 388.565 38.500,388.222 38.318,388.137 42.092 C 388.084 44.462,388.077 44.499,387.621 44.955 L 387.160 45.417 381.566 45.500 C 376.274 45.579,375.960 45.601,375.736 45.907 C 375.441 46.311,375.380 74.416,375.671 76.094 C 376.754 82.341,378.436 83.242,386.833 82.073 C 388.140 81.891,388.403 82.357,388.473 84.969 C 388.580 88.985,387.773 89.689,382.667 90.035 C 374.460 90.592,369.594 88.248,367.684 82.820 C 367.509 82.323,367.251 81.649,367.110 81.322 C 366.371 79.605,366.167 75.043,366.167 60.296 C 366.167 43.602,366.614 45.617,362.882 45.500 C 359.382 45.390,358.798 44.978,359.056 42.799 C 359.235 41.291,359.525 41.023,362.820 39.335 C 366.608 37.395,366.423 37.614,367.659 33.583 C 367.828 33.033,368.111 32.246,368.289 31.833 C 368.467 31.421,368.703 30.719,368.813 30.274 C 369.111 29.072,370.116 27.177,370.548 27.003 C 371.289 26.705,374.424 26.802,374.837 27.136 M33.765 35.218 L 34.167 35.685 34.167 80.498 C 34.167 127.874,34.202 125.971,33.306 126.349 C 32.355 126.750,16.231 126.690,15.610 126.283 C 14.809 125.758,14.833 127.202,14.833 80.393 L 14.833 35.641 15.325 35.150 L 15.816 34.658 24.589 34.704 L 33.362 34.750 33.765 35.218 M104.041 34.842 C 105.228 35.172,105.167 34.328,105.167 50.333 C 105.167 66.336,105.228 65.489,104.041 65.836 C 103.616 65.960,100.794 66.002,95.195 65.967 L 86.972 65.917 86.486 65.372 L 86.000 64.828 86.000 50.284 C 86.000 34.227,85.936 35.173,87.049 34.851 C 87.808 34.632,103.254 34.623,104.041 34.842 M56.490 34.991 C 56.897 35.069,57.329 35.268,57.449 35.432 C 57.628 35.677,57.660 42.373,57.625 72.473 L 57.583 109.214 57.113 109.565 C 56.653 109.909,56.474 109.918,48.946 109.968 C 40.716 110.023,39.986 109.986,39.488 109.488 C 39.074 109.074,38.971 35.998,39.383 35.434 C 39.502 35.272,39.858 35.077,40.175 35.003 C 40.948 34.821,55.553 34.810,56.490 34.991 M80.782 35.236 L 81.250 35.638 81.298 59.527 C 81.349 84.960,81.362 84.365,80.750 84.765 C 80.139 85.166,63.583 85.155,63.182 84.754 C 62.942 84.514,62.913 82.157,62.873 60.102 L 62.830 35.716 63.177 35.275 L 63.524 34.833 71.919 34.833 L 80.315 34.833 80.782 35.236 M168.040 38.185 C 174.223 39.689,178.710 44.384,181.006 51.750 C 181.757 54.160,182.170 56.588,182.337 59.583 C 182.434 61.325,182.546 62.845,182.586 62.961 C 182.692 63.271,182.203 70.776,182.013 71.750 C 181.713 73.285,180.852 76.480,180.612 76.951 C 180.481 77.207,180.318 77.679,180.249 78.000 C 179.448 81.763,173.705 87.905,169.917 89.051 C 169.458 89.189,168.788 89.429,168.427 89.583 C 166.663 90.338,159.657 90.240,157.640 89.433 C 157.044 89.195,156.498 89.000,156.425 89.000 C 155.430 89.000,152.251 86.907,150.127 84.855 C 148.799 83.572,148.755 83.657,148.996 87.025 C 149.126 88.824,149.174 93.360,149.138 100.370 L 149.083 110.991 148.704 111.370 C 148.331 111.743,148.254 111.750,144.582 111.750 L 140.841 111.750 140.379 111.288 L 139.917 110.826 139.917 75.167 L 139.917 39.508 140.343 39.081 C 140.901 38.523,142.494 38.268,144.778 38.369 C 147.288 38.480,147.852 39.043,148.086 41.667 C 148.346 44.580,148.682 44.802,150.223 43.079 C 153.195 39.755,156.738 38.097,161.917 37.606 C 163.419 37.464,166.130 37.720,168.040 38.185 M295.904 37.977 C 296.173 38.089,296.946 38.329,297.622 38.510 C 302.235 39.747,306.678 43.712,308.816 48.500 C 310.104 51.385,310.176 51.577,310.325 52.500 C 310.406 53.004,310.633 53.979,310.829 54.667 C 311.273 56.220,311.547 64.456,311.178 65.146 C 310.713 66.014,310.979 66.000,295.101 66.000 C 278.045 66.000,279.503 65.815,279.999 67.917 C 280.085 68.283,280.237 69.521,280.336 70.667 C 280.979 78.118,286.190 82.388,294.318 82.125 C 298.299 81.996,302.278 81.220,305.417 79.958 C 308.084 78.886,308.877 78.984,309.091 80.409 C 309.264 81.566,309.102 86.029,308.871 86.443 C 308.473 87.159,306.256 88.191,303.500 88.943 C 302.629 89.180,301.569 89.471,301.145 89.589 C 299.020 90.181,290.016 90.280,287.926 89.735 C 284.825 88.927,283.929 88.603,282.167 87.657 C 276.997 84.881,272.409 79.219,271.574 74.583 C 271.508 74.217,271.322 73.577,271.161 73.163 C 271.000 72.748,270.787 71.773,270.688 70.996 C 270.589 70.219,270.388 68.721,270.240 67.667 C 269.794 64.481,270.391 57.003,271.312 54.226 C 271.490 53.689,271.684 53.025,271.743 52.750 C 271.918 51.936,272.981 49.526,273.875 47.917 C 276.952 42.382,282.099 38.665,287.917 37.777 C 288.991 37.613,295.418 37.774,295.904 37.977 M344.562 38.170 C 345.765 38.446,346.863 38.703,347.000 38.739 C 348.205 39.059,352.497 40.764,352.792 41.040 C 353.282 41.499,353.275 42.215,352.770 43.355 C 352.552 43.847,352.095 44.925,351.755 45.750 C 350.824 48.008,349.973 48.465,348.083 47.724 C 347.717 47.580,346.917 47.289,346.306 47.076 C 345.696 46.864,344.971 46.574,344.696 46.432 C 344.421 46.290,343.496 46.098,342.640 46.007 C 341.784 45.916,340.323 45.677,339.394 45.477 C 334.706 44.465,329.685 46.563,329.167 49.750 C 328.539 53.605,330.652 55.850,337.938 59.068 C 338.683 59.397,339.343 59.667,339.404 59.667 C 339.466 59.667,340.357 60.071,341.383 60.565 C 342.410 61.059,343.821 61.725,344.519 62.046 C 350.890 64.972,354.099 69.409,354.069 75.250 C 354.031 82.803,349.862 87.621,341.667 89.584 C 339.014 90.220,329.655 90.212,326.750 89.571 C 319.640 88.004,319.228 87.587,319.361 82.111 C 319.432 79.166,320.015 78.665,322.131 79.729 C 322.563 79.946,323.366 80.253,323.914 80.411 C 324.463 80.570,325.121 80.807,325.377 80.939 C 325.633 81.071,326.271 81.256,326.796 81.350 C 327.321 81.444,328.313 81.718,329.000 81.958 C 330.928 82.632,338.573 82.645,340.000 81.977 C 340.504 81.740,341.280 81.415,341.725 81.254 C 344.170 80.365,345.521 77.302,344.850 74.172 C 344.378 71.971,341.807 69.893,336.750 67.626 C 327.462 63.463,324.717 61.741,322.567 58.730 C 321.055 56.612,321.038 56.578,320.536 54.680 C 318.458 46.826,323.313 39.800,331.833 38.333 C 332.979 38.136,334.217 37.913,334.583 37.839 C 336.476 37.454,342.286 37.647,344.562 38.170 M196.350 38.741 C 197.116 39.120,197.392 39.601,198.264 42.071 C 198.654 43.178,199.246 44.833,199.580 45.750 C 199.913 46.667,200.325 47.867,200.496 48.417 C 200.666 48.967,201.217 50.579,201.720 52.000 C 203.682 57.537,204.727 60.518,205.573 63.000 C 206.058 64.421,206.872 66.783,207.382 68.250 C 207.893 69.717,208.496 71.554,208.721 72.333 C 208.947 73.112,209.366 74.537,209.653 75.500 C 209.939 76.462,210.172 77.362,210.171 77.500 C 210.154 79.232,211.328 79.320,211.577 77.606 C 211.633 77.227,211.897 76.204,212.165 75.333 C 212.433 74.462,212.760 73.300,212.892 72.750 C 213.024 72.200,213.249 71.412,213.393 71.000 C 213.536 70.587,214.150 68.675,214.757 66.750 C 215.365 64.825,216.019 62.840,216.212 62.339 C 216.404 61.837,216.695 60.975,216.857 60.422 C 217.168 59.360,217.840 57.309,218.333 55.917 C 218.689 54.911,219.369 52.869,219.915 51.167 C 220.136 50.479,220.472 49.429,220.663 48.833 C 220.854 48.237,221.164 47.300,221.352 46.750 C 221.704 45.717,222.019 44.712,222.708 42.417 C 223.867 38.556,224.066 38.417,228.387 38.417 C 233.439 38.417,233.529 38.510,232.194 42.365 C 230.742 46.560,229.048 51.396,228.789 52.083 C 228.651 52.450,228.420 53.125,228.278 53.583 C 227.896 54.805,226.888 57.611,226.749 57.836 C 226.683 57.942,226.529 58.379,226.406 58.806 C 226.207 59.503,225.487 61.572,223.469 67.250 C 223.111 68.258,222.638 69.608,222.417 70.250 C 222.197 70.892,221.746 72.167,221.415 73.083 C 221.084 74.000,220.640 75.280,220.429 75.927 C 220.218 76.575,219.953 77.277,219.840 77.487 C 219.727 77.698,219.487 78.404,219.307 79.056 C 219.126 79.709,218.898 80.339,218.801 80.456 C 218.703 80.574,218.491 81.138,218.330 81.710 C 218.169 82.282,217.879 83.144,217.685 83.625 C 217.492 84.106,217.176 84.894,216.984 85.375 C 216.792 85.856,216.504 86.739,216.344 87.336 C 216.184 87.934,215.958 88.601,215.841 88.818 C 215.725 89.036,215.497 89.672,215.336 90.232 C 215.174 90.792,214.888 91.587,214.699 92.000 C 214.511 92.412,214.247 93.087,214.114 93.500 C 213.719 94.719,212.918 96.790,212.085 98.750 C 211.656 99.758,211.205 100.858,211.082 101.194 C 210.896 101.701,209.798 103.458,208.390 105.500 C 206.347 108.464,204.155 110.026,200.417 111.183 L 198.583 111.750 195.250 111.730 C 190.978 111.705,189.019 111.302,188.506 110.344 C 188.273 109.909,188.280 104.911,188.513 104.475 C 188.854 103.838,189.592 103.686,191.167 103.930 C 196.639 104.775,201.091 102.811,202.920 98.743 C 203.758 96.880,204.361 95.418,204.668 94.500 C 204.838 93.996,205.281 92.762,205.655 91.759 C 206.607 89.200,206.595 89.140,203.660 81.750 C 203.369 81.017,202.696 79.254,202.165 77.833 C 201.633 76.412,200.923 74.537,200.587 73.667 C 200.251 72.796,199.875 71.783,199.752 71.417 C 199.479 70.599,198.903 69.069,197.840 66.333 C 196.398 62.621,194.833 58.349,194.833 58.124 C 194.833 58.003,194.678 57.607,194.488 57.244 C 194.133 56.564,193.451 54.799,192.751 52.750 C 192.532 52.108,192.129 50.983,191.855 50.250 C 191.581 49.517,191.177 48.429,190.957 47.833 C 190.737 47.237,190.441 46.525,190.298 46.250 C 190.156 45.975,189.985 45.487,189.917 45.167 C 189.850 44.846,189.649 44.283,189.471 43.917 C 187.818 40.504,187.647 38.670,188.960 38.443 C 190.232 38.224,195.755 38.446,196.350 38.741 M159.583 45.352 C 155.254 45.928,152.484 47.900,150.887 51.542 C 150.376 52.710,150.208 53.418,149.555 57.167 C 148.976 60.489,149.191 69.620,149.909 72.250 C 150.035 72.708,150.189 73.421,150.252 73.833 C 150.771 77.239,153.511 80.489,156.952 81.780 L 158.583 82.392 161.417 82.400 L 164.250 82.408 165.661 81.775 C 168.829 80.354,170.651 78.073,171.899 73.966 C 173.104 69.998,173.325 63.582,172.504 56.417 C 171.620 48.712,166.605 44.417,159.583 45.352 M288.901 45.654 C 285.063 46.469,283.676 47.588,281.766 51.412 C 280.520 53.906,279.723 57.623,280.309 58.209 C 280.584 58.484,300.044 58.602,300.753 58.332 L 301.214 58.157 301.115 56.870 C 300.915 54.268,300.652 52.625,300.337 52.008 C 300.160 51.660,299.874 51.009,299.702 50.562 C 298.108 46.410,294.042 44.562,288.901 45.654 " stroke="none" fill="#1e2129" fill-rule="evenodd"></path><path id="path4" d="M15.833 12.213 C 14.736 12.761,14.409 15.520,15.320 16.539 L 15.806 17.083 24.111 17.131 C 34.464 17.190,34.167 17.260,34.167 14.737 C 34.167 13.308,33.844 12.557,33.095 12.244 C 32.298 11.911,16.494 11.883,15.833 12.213 M86.904 12.403 C 85.837 12.868,85.595 15.776,86.555 16.601 L 87.019 17.000 95.605 17.000 L 104.192 17.000 104.679 16.513 C 105.590 15.603,105.181 12.751,104.080 12.332 C 103.365 12.060,87.541 12.126,86.904 12.403 M40.309 12.451 C 39.149 12.629,38.605 15.701,39.596 16.480 L 40.056 16.842 48.543 16.796 L 57.030 16.750 57.348 16.357 C 58.200 15.305,57.677 12.824,56.537 12.507 C 55.947 12.344,41.338 12.293,40.309 12.451 M63.596 12.551 C 62.786 12.821,62.493 15.522,63.179 16.394 L 63.524 16.833 71.970 16.828 C 80.879 16.822,80.722 16.836,81.139 16.053 C 81.663 15.070,81.090 12.779,80.270 12.573 C 79.643 12.416,64.064 12.395,63.596 12.551 M80.442 13.063 C 81.075 13.608,81.232 15.510,80.698 16.169 L 80.363 16.583 72.095 16.630 L 63.827 16.676 63.396 16.244 C 62.996 15.844,62.969 15.725,63.026 14.588 C 63.132 12.495,62.344 12.667,71.850 12.667 L 79.981 12.667 80.442 13.063 M104.109 13.063 C 104.742 13.608,104.899 15.510,104.365 16.169 L 104.030 16.583 95.973 16.631 C 85.995 16.690,86.495 16.792,86.505 14.708 C 86.515 12.584,86.094 12.678,95.616 12.672 L 103.648 12.667 104.109 13.063 M57.013 13.263 C 57.549 13.835,57.602 15.593,57.099 16.149 C 56.657 16.638,40.048 16.710,39.645 16.224 C 39.298 15.806,39.343 13.848,39.712 13.284 L 40.008 12.833 48.308 12.833 L 56.609 12.833 57.013 13.263 M32.924 13.409 C 33.260 13.745,33.333 13.983,33.333 14.742 C 33.333 16.443,33.940 16.333,24.532 16.333 C 15.091 16.333,15.750 16.452,15.750 14.749 C 15.750 12.877,15.132 13.000,24.526 13.000 L 32.515 13.000 32.924 13.409 M13.486 21.305 C 8.701 22.557,8.477 28.855,13.162 30.415 L 14.427 30.836 60.422 30.793 C 105.301 30.751,106.437 30.742,107.244 30.430 C 111.474 28.797,111.290 22.881,106.964 21.392 C 105.628 20.932,15.232 20.848,13.486 21.305 M107.261 22.446 C 111.091 24.496,109.851 29.409,105.393 29.849 C 102.686 30.116,14.081 29.968,13.280 29.695 C 9.661 28.462,9.878 23.063,13.583 22.155 C 13.858 22.088,34.896 22.044,60.333 22.058 L 106.583 22.083 107.261 22.446 M246.052 27.010 C 245.350 27.223,244.898 27.827,244.679 28.848 C 244.581 29.308,244.379 29.916,244.232 30.201 C 244.085 30.486,243.826 31.176,243.657 31.734 C 241.954 37.351,241.859 37.488,238.500 39.163 C 234.640 41.088,234.644 41.083,234.639 43.023 C 234.633 45.277,234.985 45.500,238.555 45.500 C 240.743 45.500,241.160 45.541,241.355 45.775 C 241.544 46.003,241.599 48.884,241.671 62.400 L 241.759 78.750 242.213 80.154 C 242.462 80.927,242.667 81.681,242.667 81.830 C 242.667 82.266,243.929 84.751,244.635 85.705 C 247.136 89.083,251.261 90.499,257.396 90.086 C 263.163 89.698,263.889 89.198,263.971 85.560 C 264.049 82.061,263.879 81.878,260.907 82.277 C 254.689 83.113,252.110 81.823,251.286 77.468 C 250.917 75.523,251.006 46.257,251.381 45.881 C 251.650 45.611,252.183 45.576,257.103 45.500 L 262.528 45.417 263.014 44.872 C 263.500 44.328,263.500 44.327,263.500 42.089 C 263.500 38.354,263.767 38.500,256.952 38.500 C 252.199 38.500,251.845 38.479,251.477 38.182 L 251.083 37.863 251.000 32.852 L 250.917 27.840 250.455 27.378 C 249.947 26.870,247.257 26.645,246.052 27.010 M370.548 27.003 C 370.116 27.177,369.111 29.072,368.813 30.274 C 368.703 30.719,368.467 31.421,368.289 31.833 C 368.111 32.246,367.828 33.033,367.659 33.583 C 366.423 37.614,366.608 37.395,362.820 39.335 C 359.525 41.023,359.235 41.291,359.056 42.799 C 358.798 44.978,359.382 45.390,362.882 45.500 C 366.614 45.617,366.167 43.602,366.167 60.296 C 366.167 75.043,366.371 79.605,367.110 81.322 C 367.251 81.649,367.509 82.323,367.684 82.820 C 369.594 88.248,374.460 90.592,382.667 90.035 C 387.773 89.689,388.580 88.985,388.473 84.969 C 388.403 82.357,388.140 81.891,386.833 82.073 C 378.436 83.242,376.754 82.341,375.671 76.094 C 375.380 74.416,375.441 46.311,375.736 45.907 C 375.960 45.601,376.274 45.579,381.566 45.500 L 387.160 45.417 387.621 44.955 C 388.077 44.499,388.084 44.462,388.137 42.092 C 388.222 38.318,388.565 38.500,381.365 38.500 C 376.429 38.500,376.032 38.478,375.776 38.195 C 375.534 37.928,375.499 37.342,375.490 33.487 C 375.475 26.719,375.520 26.827,372.690 26.844 C 371.715 26.850,370.751 26.921,370.548 27.003 M249.758 28.076 L 250.167 28.485 250.167 33.400 L 250.167 38.315 250.569 38.782 L 250.971 39.250 256.582 39.333 C 263.265 39.433,262.667 39.177,262.667 41.930 C 262.667 43.519,262.619 43.855,262.348 44.190 L 262.030 44.583 256.519 44.667 C 251.060 44.749,251.005 44.754,250.629 45.130 L 250.250 45.509 250.199 60.130 C 250.139 77.600,250.175 78.097,251.708 80.626 C 253.113 82.947,255.127 83.498,260.286 82.975 C 263.075 82.692,263.000 82.628,263.000 85.307 C 263.000 88.252,262.731 88.544,259.583 89.024 C 250.547 90.402,244.361 87.188,243.094 80.456 C 242.952 79.701,242.747 78.821,242.638 78.500 C 242.493 78.073,242.415 73.588,242.345 61.804 C 242.250 45.759,242.249 45.689,241.899 45.220 L 241.549 44.750 238.875 44.667 C 235.635 44.566,235.500 44.499,235.500 42.993 C 235.500 41.808,235.700 41.552,237.250 40.757 C 242.223 38.206,242.441 38.016,243.104 35.667 C 243.247 35.162,243.544 34.287,243.765 33.722 C 243.986 33.156,244.167 32.569,244.167 32.416 C 244.167 32.264,244.384 31.639,244.649 31.028 C 244.915 30.417,245.183 29.605,245.245 29.223 C 245.486 27.742,248.626 26.944,249.758 28.076 M374.367 27.966 C 374.531 28.130,374.604 29.389,374.669 33.133 C 374.786 39.971,374.102 39.333,381.323 39.333 C 387.909 39.333,387.417 39.126,387.417 41.897 C 387.417 44.792,387.939 44.564,381.069 44.667 L 375.480 44.750 375.170 45.161 C 374.670 45.826,374.667 45.917,374.667 60.813 C 374.668 78.113,374.761 79.064,376.665 81.200 C 378.443 83.195,379.523 83.395,385.817 82.894 C 387.651 82.748,387.667 82.769,387.664 85.324 C 387.661 87.800,387.586 87.946,385.998 88.556 C 383.376 89.563,376.440 89.429,373.828 88.320 C 370.350 86.845,368.516 84.271,367.244 79.083 C 367.177 78.808,367.076 71.196,367.019 62.167 C 366.908 44.346,366.959 45.213,366.005 44.849 C 365.773 44.760,364.496 44.660,363.167 44.625 C 359.987 44.542,359.613 44.307,359.989 42.630 C 360.199 41.696,360.533 41.443,363.685 39.828 C 366.908 38.176,367.217 37.797,368.154 34.333 C 368.315 33.737,368.569 33.014,368.719 32.725 C 368.869 32.437,369.071 31.841,369.170 31.402 C 369.427 30.255,370.301 28.302,370.717 27.943 C 371.151 27.570,373.989 27.588,374.367 27.966 M15.325 35.150 L 14.833 35.641 14.833 80.393 C 14.833 127.202,14.809 125.758,15.610 126.283 C 16.231 126.690,32.355 126.750,33.306 126.349 C 34.202 125.971,34.167 127.874,34.167 80.498 L 34.167 35.685 33.765 35.218 L 33.362 34.750 24.589 34.704 L 15.816 34.658 15.325 35.150 M87.049 34.851 C 85.936 35.173,86.000 34.227,86.000 50.284 L 86.000 64.828 86.486 65.372 L 86.972 65.917 95.195 65.967 C 100.794 66.002,103.616 65.960,104.041 65.836 C 105.228 65.489,105.167 66.336,105.167 50.333 C 105.167 34.328,105.228 35.172,104.041 34.842 C 103.254 34.623,87.808 34.632,87.049 34.851 M40.175 35.003 C 39.858 35.077,39.502 35.272,39.383 35.434 C 38.971 35.998,39.074 109.074,39.488 109.488 C 39.986 109.986,40.716 110.023,48.946 109.968 C 56.474 109.918,56.653 109.909,57.113 109.565 L 57.583 109.214 57.625 72.473 C 57.660 42.373,57.628 35.677,57.449 35.432 C 57.329 35.268,56.897 35.069,56.490 34.991 C 55.553 34.810,40.948 34.821,40.175 35.003 M63.177 35.275 L 62.830 35.716 62.873 60.102 C 62.913 82.157,62.942 84.514,63.182 84.754 C 63.583 85.155,80.139 85.166,80.750 84.765 C 81.362 84.365,81.349 84.960,81.298 59.527 L 81.250 35.638 80.782 35.236 L 80.315 34.833 71.919 34.833 L 63.524 34.833 63.177 35.275 M80.681 35.477 C 80.992 35.860,81.000 36.491,81.000 59.913 L 81.000 83.955 80.655 84.394 L 80.309 84.833 72.020 84.833 C 65.124 84.833,63.676 84.794,63.407 84.597 C 63.090 84.365,63.083 83.896,63.040 60.027 L 62.997 35.693 63.443 35.342 C 63.885 34.994,63.968 34.991,72.126 35.037 L 80.363 35.083 80.681 35.477 M103.706 35.175 C 104.706 35.452,104.667 34.837,104.667 50.313 L 104.667 64.648 104.265 65.116 L 103.863 65.583 96.640 65.637 C 88.389 65.699,87.464 65.646,86.893 65.075 L 86.500 64.682 86.500 50.289 C 86.500 34.722,86.455 35.464,87.417 35.178 C 88.138 34.963,102.933 34.960,103.706 35.175 M57.119 35.548 C 57.473 35.902,57.691 107.471,57.342 108.681 C 57.055 109.675,57.129 109.667,48.235 109.667 L 40.152 109.667 39.742 109.258 L 39.333 108.848 39.333 72.417 L 39.333 35.985 39.747 35.571 L 40.161 35.158 48.491 35.204 C 56.230 35.247,56.843 35.271,57.119 35.548 M32.983 35.734 L 33.333 36.052 33.333 80.609 C 33.333 124.944,33.332 125.168,33.000 125.500 C 32.561 125.939,16.666 126.030,16.074 125.597 C 15.757 125.365,15.440 37.321,15.751 36.034 C 15.909 35.380,16.333 35.349,24.608 35.383 C 32.239 35.415,32.649 35.432,32.983 35.734 M161.917 37.606 C 156.738 38.097,153.195 39.755,150.223 43.079 C 148.682 44.802,148.346 44.580,148.086 41.667 C 147.852 39.043,147.288 38.480,144.778 38.369 C 142.494 38.268,140.901 38.523,140.343 39.081 L 139.917 39.508 139.917 75.167 L 139.917 110.826 140.379 111.288 L 140.841 111.750 144.582 111.750 C 148.254 111.750,148.331 111.743,148.704 111.370 L 149.083 110.991 149.138 100.370 C 149.174 93.360,149.126 88.824,148.996 87.025 C 148.755 83.657,148.799 83.572,150.127 84.855 C 152.251 86.907,155.430 89.000,156.425 89.000 C 156.498 89.000,157.044 89.195,157.640 89.433 C 159.657 90.240,166.663 90.338,168.427 89.583 C 168.788 89.429,169.458 89.189,169.917 89.051 C 173.705 87.905,179.448 81.763,180.249 78.000 C 180.318 77.679,180.481 77.207,180.612 76.951 C 180.852 76.480,181.713 73.285,182.013 71.750 C 182.203 70.776,182.692 63.271,182.586 62.961 C 182.546 62.845,182.434 61.325,182.337 59.583 C 182.127 55.825,181.652 53.493,180.362 49.886 C 179.773 48.240,178.346 45.695,177.059 43.996 C 173.797 39.691,167.584 37.069,161.917 37.606 M287.917 37.777 C 282.099 38.665,276.952 42.382,273.875 47.917 C 272.981 49.526,271.918 51.936,271.743 52.750 C 271.684 53.025,271.490 53.689,271.312 54.226 C 270.391 57.003,269.794 64.481,270.240 67.667 C 270.388 68.721,270.589 70.219,270.688 70.996 C 270.787 71.773,271.000 72.748,271.161 73.163 C 271.322 73.577,271.508 74.217,271.574 74.583 C 272.409 79.219,276.997 84.881,282.167 87.657 C 283.929 88.603,284.825 88.927,287.926 89.735 C 290.016 90.280,299.020 90.181,301.145 89.589 C 301.569 89.471,302.629 89.180,303.500 88.943 C 306.256 88.191,308.473 87.159,308.871 86.443 C 309.102 86.029,309.264 81.566,309.091 80.409 C 308.877 78.984,308.084 78.886,305.417 79.958 C 302.278 81.220,298.299 81.996,294.318 82.125 C 286.190 82.388,280.979 78.118,280.336 70.667 C 280.237 69.521,280.085 68.283,279.999 67.917 C 279.503 65.815,278.045 66.000,295.101 66.000 C 310.979 66.000,310.713 66.014,311.178 65.146 C 311.547 64.456,311.273 56.220,310.829 54.667 C 310.633 53.979,310.406 53.004,310.325 52.500 C 310.176 51.577,310.104 51.385,308.816 48.500 C 306.678 43.712,302.235 39.747,297.622 38.510 C 296.946 38.329,296.173 38.089,295.904 37.977 C 295.418 37.774,288.991 37.613,287.917 37.777 M334.583 37.839 C 334.217 37.913,332.979 38.136,331.833 38.333 C 323.313 39.800,318.458 46.826,320.536 54.680 C 321.038 56.578,321.055 56.612,322.567 58.730 C 324.717 61.741,327.462 63.463,336.750 67.626 C 341.807 69.893,344.378 71.971,344.850 74.172 C 345.521 77.302,344.170 80.365,341.725 81.254 C 341.280 81.415,340.504 81.740,340.000 81.977 C 338.573 82.645,330.928 82.632,329.000 81.958 C 328.313 81.718,327.321 81.444,326.796 81.350 C 326.271 81.256,325.633 81.071,325.377 80.939 C 325.121 80.807,324.463 80.570,323.914 80.411 C 323.366 80.253,322.563 79.946,322.131 79.729 C 320.015 78.665,319.432 79.166,319.361 82.111 C 319.228 87.587,319.640 88.004,326.750 89.571 C 329.655 90.212,339.014 90.220,341.667 89.584 C 349.862 87.621,354.031 82.803,354.069 75.250 C 354.099 69.409,350.890 64.972,344.519 62.046 C 343.821 61.725,342.410 61.059,341.383 60.565 C 340.357 60.071,339.466 59.667,339.404 59.667 C 339.343 59.667,338.683 59.397,337.938 59.068 C 330.652 55.850,328.539 53.605,329.167 49.750 C 329.685 46.563,334.706 44.465,339.394 45.477 C 340.323 45.677,341.784 45.916,342.640 46.007 C 343.496 46.098,344.421 46.290,344.696 46.432 C 344.971 46.574,345.696 46.864,346.306 47.076 C 346.917 47.289,347.717 47.580,348.083 47.724 C 349.973 48.465,350.824 48.008,351.755 45.750 C 352.095 44.925,352.552 43.847,352.770 43.355 C 353.275 42.215,353.282 41.499,352.792 41.040 C 352.497 40.764,348.205 39.059,347.000 38.739 C 343.109 37.707,337.301 37.286,334.583 37.839 M188.960 38.443 C 187.647 38.670,187.818 40.504,189.471 43.917 C 189.649 44.283,189.850 44.846,189.917 45.167 C 189.985 45.487,190.156 45.975,190.298 46.250 C 190.441 46.525,190.737 47.237,190.957 47.833 C 191.177 48.429,191.581 49.517,191.855 50.250 C 192.129 50.983,192.532 52.108,192.751 52.750 C 193.451 54.799,194.133 56.564,194.488 57.244 C 194.678 57.607,194.833 58.003,194.833 58.124 C 194.833 58.349,196.398 62.621,197.840 66.333 C 198.903 69.069,199.479 70.599,199.752 71.417 C 199.875 71.783,200.251 72.796,200.587 73.667 C 200.923 74.537,201.633 76.412,202.165 77.833 C 202.696 79.254,203.369 81.017,203.660 81.750 C 206.595 89.140,206.607 89.200,205.655 91.759 C 205.281 92.762,204.838 93.996,204.668 94.500 C 204.361 95.418,203.758 96.880,202.920 98.743 C 201.091 102.811,196.639 104.775,191.167 103.930 C 189.592 103.686,188.854 103.838,188.513 104.475 C 188.280 104.911,188.273 109.909,188.506 110.344 C 189.019 111.302,190.978 111.705,195.250 111.730 L 198.583 111.750 200.417 111.183 C 204.155 110.026,206.347 108.464,208.390 105.500 C 209.798 103.458,210.896 101.701,211.082 101.194 C 211.205 100.858,211.656 99.758,212.085 98.750 C 212.918 96.790,213.719 94.719,214.114 93.500 C 214.247 93.087,214.511 92.412,214.699 92.000 C 214.888 91.587,215.174 90.792,215.336 90.232 C 215.497 89.672,215.725 89.036,215.841 88.818 C 215.958 88.601,216.184 87.934,216.344 87.336 C 216.504 86.739,216.792 85.856,216.984 85.375 C 217.176 84.894,217.492 84.106,217.685 83.625 C 217.879 83.144,218.169 82.282,218.330 81.710 C 218.491 81.138,218.703 80.574,218.801 80.456 C 218.898 80.339,219.126 79.709,219.307 79.056 C 219.487 78.404,219.727 77.698,219.840 77.487 C 219.953 77.277,220.218 76.575,220.429 75.927 C 220.640 75.280,221.084 74.000,221.415 73.083 C 221.746 72.167,222.197 70.892,222.417 70.250 C 222.638 69.608,223.111 68.258,223.469 67.250 C 225.487 61.572,226.207 59.503,226.406 58.806 C 226.529 58.379,226.683 57.942,226.749 57.836 C 226.888 57.611,227.896 54.805,228.278 53.583 C 228.420 53.125,228.651 52.450,228.789 52.083 C 229.048 51.396,230.742 46.560,232.194 42.365 C 233.529 38.510,233.439 38.417,228.387 38.417 C 224.066 38.417,223.867 38.556,222.708 42.417 C 222.019 44.712,221.704 45.717,221.352 46.750 C 221.164 47.300,220.854 48.237,220.663 48.833 C 220.472 49.429,220.136 50.479,219.915 51.167 C 219.369 52.869,218.689 54.911,218.333 55.917 C 217.840 57.309,217.168 59.360,216.857 60.422 C 216.695 60.975,216.404 61.837,216.212 62.339 C 216.019 62.840,215.365 64.825,214.757 66.750 C 214.150 68.675,213.536 70.587,213.393 71.000 C 213.249 71.412,213.024 72.200,212.892 72.750 C 212.760 73.300,212.433 74.462,212.165 75.333 C 211.897 76.204,211.633 77.227,211.577 77.606 C 211.328 79.320,210.154 79.232,210.171 77.500 C 210.172 77.362,209.939 76.462,209.653 75.500 C 209.366 74.537,208.947 73.112,208.721 72.333 C 208.496 71.554,207.893 69.717,207.382 68.250 C 206.872 66.783,206.058 64.421,205.573 63.000 C 204.727 60.518,203.682 57.537,201.720 52.000 C 201.217 50.579,200.666 48.967,200.496 48.417 C 200.325 47.867,199.913 46.667,199.580 45.750 C 199.246 44.833,198.654 43.178,198.264 42.071 C 196.978 38.425,197.031 38.460,192.583 38.404 C 190.842 38.382,189.211 38.400,188.960 38.443 M295.000 38.680 C 297.035 39.178,298.566 39.685,299.583 40.198 C 300.225 40.522,301.162 40.997,301.667 41.253 C 303.495 42.183,307.297 46.409,307.937 48.224 C 308.070 48.602,308.292 49.083,308.430 49.294 C 309.140 50.378,309.997 53.654,310.343 56.607 C 310.636 59.101,310.746 64.487,310.510 64.723 C 310.368 64.866,306.319 64.939,295.092 65.000 C 280.469 65.080,279.854 65.096,279.521 65.398 C 278.969 65.897,278.948 66.598,279.405 69.165 C 279.641 70.488,279.834 71.873,279.834 72.243 C 279.840 76.117,283.908 80.852,288.292 82.087 C 288.773 82.222,289.560 82.451,290.042 82.595 C 291.252 82.956,297.787 82.838,299.167 82.429 C 299.671 82.280,300.721 82.040,301.500 81.897 C 302.279 81.753,303.346 81.455,303.870 81.234 C 304.394 81.014,304.957 80.833,305.120 80.832 C 305.283 80.831,305.818 80.643,306.308 80.415 C 308.135 79.565,308.334 79.805,308.332 82.864 C 308.331 86.727,308.480 86.597,301.833 88.501 C 299.222 89.249,290.455 89.523,288.333 88.923 C 287.829 88.781,286.817 88.509,286.083 88.320 C 283.036 87.533,278.663 84.915,276.882 82.811 C 274.981 80.565,273.581 78.240,273.082 76.500 C 273.016 76.271,272.824 75.854,272.654 75.575 C 272.364 75.093,271.604 71.452,271.144 68.333 C 270.065 61.021,272.225 51.072,276.016 45.884 C 280.031 40.392,288.643 37.124,295.000 38.680 M343.917 38.917 C 344.742 39.129,345.742 39.349,346.140 39.406 C 346.538 39.462,347.139 39.649,347.475 39.820 C 347.810 39.992,348.422 40.222,348.834 40.333 C 351.962 41.171,352.404 41.663,351.683 43.500 C 350.145 47.421,350.034 47.572,348.957 47.204 C 347.563 46.729,345.620 45.984,345.186 45.760 C 344.922 45.623,344.003 45.429,343.144 45.329 C 342.286 45.228,341.023 44.992,340.337 44.804 C 337.353 43.984,332.197 44.751,330.460 46.274 C 327.263 49.076,327.612 53.595,331.227 56.200 C 332.838 57.361,335.099 58.695,335.833 58.917 C 336.063 58.986,336.850 59.325,337.583 59.670 C 338.915 60.295,340.290 60.932,342.333 61.869 C 344.954 63.070,346.811 64.189,349.183 65.998 C 351.422 67.705,353.333 71.835,353.333 74.965 C 353.333 82.394,348.785 87.355,340.540 88.919 C 337.887 89.422,329.016 89.210,326.417 88.581 C 325.867 88.448,324.929 88.230,324.333 88.097 C 320.780 87.301,320.333 86.749,320.333 83.150 C 320.333 79.799,320.375 79.724,321.861 80.416 C 322.350 80.644,322.838 80.831,322.946 80.832 C 323.053 80.833,323.703 81.058,324.390 81.333 C 325.077 81.608,325.794 81.833,325.984 81.833 C 326.173 81.833,327.004 82.058,327.829 82.332 C 330.756 83.304,338.729 83.404,340.520 82.490 C 340.867 82.313,341.576 82.009,342.096 81.814 C 345.788 80.433,347.065 74.791,344.383 71.705 C 342.813 69.898,340.517 68.357,337.089 66.813 C 336.261 66.439,334.758 65.732,333.750 65.241 C 332.742 64.750,331.347 64.093,330.651 63.780 C 326.718 62.016,323.651 59.405,321.789 56.239 C 321.732 56.142,321.524 55.129,321.326 53.989 C 319.986 46.240,324.263 40.281,331.915 39.240 C 332.922 39.103,334.047 38.906,334.415 38.802 C 336.402 38.238,341.519 38.300,343.917 38.917 M167.417 38.998 C 172.969 40.227,178.207 45.144,179.757 50.583 C 179.913 51.133,180.149 51.794,180.280 52.052 C 180.412 52.310,180.627 53.134,180.759 53.884 C 180.891 54.634,181.162 55.885,181.362 56.665 C 181.909 58.804,181.924 68.912,181.383 70.833 C 181.189 71.521,180.937 72.683,180.823 73.417 C 180.708 74.150,180.402 75.287,180.141 75.944 C 179.880 76.601,179.667 77.216,179.667 77.311 C 179.667 77.781,178.394 80.280,177.363 81.835 C 175.617 84.466,173.616 86.222,170.540 87.818 C 164.732 90.832,154.970 89.017,150.560 84.104 C 149.312 82.714,148.482 82.336,147.988 82.931 C 147.807 83.149,147.820 83.844,148.065 86.972 C 148.514 92.722,148.411 110.409,147.926 110.763 C 147.573 111.022,141.773 111.116,141.385 110.869 C 141.277 110.800,141.108 110.534,141.010 110.277 C 140.806 109.739,140.757 40.206,140.961 39.900 C 141.393 39.252,145.776 39.034,146.474 39.625 C 146.827 39.924,147.372 41.786,147.585 43.417 C 147.912 45.927,148.832 46.167,150.413 44.154 C 150.838 43.613,151.897 42.598,152.766 41.899 C 154.311 40.657,154.874 40.366,157.750 39.326 C 160.125 38.468,164.368 38.324,167.417 38.998 M196.000 39.548 C 196.308 39.703,196.540 40.104,196.891 41.087 C 198.259 44.924,199.237 47.707,199.584 48.750 C 199.798 49.392,200.286 50.742,200.668 51.750 C 201.050 52.758,201.464 53.921,201.587 54.333 C 201.710 54.746,202.384 56.658,203.086 58.583 C 203.787 60.508,204.500 62.533,204.669 63.083 C 204.839 63.633,205.254 64.833,205.591 65.750 C 207.358 70.555,207.541 71.106,208.492 74.500 C 208.684 75.188,209.023 76.387,209.244 77.167 C 209.465 77.946,209.695 79.028,209.755 79.572 C 210.080 82.503,211.294 81.792,212.264 78.103 C 212.484 77.267,212.850 75.871,213.078 75.000 C 213.501 73.386,213.880 72.098,214.502 70.167 C 214.694 69.571,214.987 68.558,215.154 67.917 C 215.322 67.275,215.612 66.412,215.799 66.000 C 215.987 65.587,216.194 64.950,216.260 64.583 C 216.327 64.217,216.549 63.532,216.755 63.062 C 216.962 62.592,217.213 61.821,217.315 61.348 C 217.416 60.876,217.639 60.210,217.810 59.869 C 217.981 59.529,218.217 58.837,218.333 58.333 C 218.450 57.829,218.675 57.154,218.833 56.833 C 218.992 56.512,219.217 55.837,219.333 55.333 C 219.449 54.829,219.655 54.199,219.790 53.932 C 219.925 53.666,220.171 52.991,220.337 52.432 C 220.502 51.874,220.830 50.854,221.066 50.167 C 221.302 49.479,222.169 46.892,222.993 44.417 C 224.849 38.844,224.340 39.333,228.279 39.333 C 232.586 39.333,232.394 39.094,231.064 42.806 C 230.550 44.242,229.676 46.729,229.123 48.333 C 228.570 49.938,227.876 51.925,227.580 52.750 C 227.285 53.575,226.250 56.538,225.281 59.333 C 224.311 62.129,223.209 65.279,222.832 66.333 C 222.454 67.387,222.009 68.700,221.842 69.250 C 221.675 69.800,221.226 71.112,220.845 72.167 C 220.464 73.221,219.785 75.171,219.336 76.500 C 218.887 77.829,218.248 79.667,217.916 80.583 C 217.585 81.500,217.140 82.780,216.929 83.427 C 216.718 84.075,216.448 84.786,216.329 85.008 C 216.211 85.229,215.983 85.900,215.823 86.497 C 215.663 87.094,215.384 87.958,215.203 88.417 C 215.023 88.875,214.745 89.625,214.586 90.083 C 214.428 90.542,214.073 91.517,213.798 92.250 C 213.523 92.983,213.090 94.146,212.836 94.833 C 212.583 95.521,212.097 96.721,211.758 97.500 C 211.418 98.279,210.966 99.367,210.753 99.917 C 210.329 101.010,209.499 102.528,208.737 103.605 C 208.469 103.983,207.820 104.897,207.295 105.637 C 204.376 109.744,199.559 111.457,192.917 110.751 C 191.633 110.615,190.449 110.503,190.284 110.502 C 189.410 110.497,189.166 109.835,189.169 107.466 C 189.173 104.509,188.851 104.751,192.786 104.746 C 201.083 104.737,203.098 102.733,207.109 90.500 C 207.511 89.274,207.406 88.897,204.641 81.667 C 204.273 80.704,203.534 78.754,202.998 77.333 C 202.463 75.912,201.791 74.150,201.504 73.417 C 201.218 72.683,200.582 70.996,200.090 69.667 C 198.889 66.420,197.695 63.276,196.494 60.207 C 195.947 58.808,195.499 57.571,195.498 57.457 C 195.497 57.343,195.302 56.837,195.065 56.333 C 194.827 55.829,194.521 55.042,194.383 54.583 C 194.245 54.125,194.067 53.670,193.987 53.572 C 193.908 53.473,193.624 52.761,193.357 51.988 C 192.323 48.997,192.168 48.574,191.995 48.281 C 191.897 48.115,191.591 47.365,191.314 46.614 C 190.541 44.517,189.923 42.879,189.354 41.417 C 188.771 39.919,188.753 39.814,189.033 39.533 C 189.320 39.246,195.426 39.259,196.000 39.548 M159.250 44.501 C 154.920 44.918,150.527 48.544,149.760 52.334 C 149.695 52.654,149.506 53.329,149.339 53.833 C 148.739 55.646,148.243 62.282,148.478 65.349 C 148.572 66.578,148.697 68.558,148.755 69.750 C 148.826 71.201,148.967 72.233,149.182 72.875 C 149.359 73.402,149.585 74.212,149.684 74.676 C 150.952 80.586,156.739 83.960,163.946 82.991 C 169.004 82.312,172.921 77.290,173.495 70.750 C 173.575 69.833,173.741 68.146,173.862 67.000 C 174.140 64.385,174.139 62.785,173.860 60.250 C 173.738 59.150,173.576 57.538,173.499 56.667 C 172.754 48.254,167.436 43.713,159.250 44.501 M289.083 44.757 C 288.625 44.887,287.747 45.112,287.133 45.258 C 283.900 46.026,280.244 50.736,279.828 54.667 C 279.746 55.446,279.560 56.458,279.416 56.917 C 278.710 59.164,278.291 59.083,290.667 59.083 C 302.905 59.083,302.002 59.220,301.997 57.371 C 301.989 54.145,301.545 52.400,299.904 49.141 C 298.148 45.655,293.122 43.619,289.083 44.757 M164.333 45.611 C 168.722 46.488,171.838 50.609,172.504 56.417 C 173.196 62.455,173.195 65.503,172.498 71.216 C 171.880 76.283,169.414 80.091,165.661 81.775 L 164.250 82.408 161.417 82.400 L 158.583 82.392 156.952 81.780 C 153.511 80.489,150.771 77.239,150.252 73.833 C 150.189 73.421,150.035 72.708,149.909 72.250 C 149.457 70.594,149.256 67.893,149.253 63.417 C 149.250 58.802,149.272 58.562,150.109 54.083 C 151.331 47.542,157.023 44.151,164.333 45.611 M294.083 45.645 C 296.816 46.352,298.728 48.025,299.702 50.562 C 299.874 51.009,300.160 51.660,300.337 52.008 C 300.652 52.625,300.915 54.268,301.115 56.870 L 301.214 58.157 300.753 58.332 C 300.044 58.602,280.584 58.484,280.309 58.209 C 279.263 57.163,281.698 50.340,283.918 48.096 C 286.226 45.762,290.529 44.725,294.083 45.645 " stroke="none" fill="#5c657e" fill-rule="evenodd"></path></g></svg>