<svg id="svg" version="1.1" xmlns="http://www.w3.org/2000/svg" xmlns:xlink="http://www.w3.org/1999/xlink" width="400" height="136.5079365079365" viewBox="0, 0, 400,136.5079365079365"><g id="svgg"><path id="path0" d="M77.576 27.242 C 77.214 27.604,77.167 27.797,77.167 28.900 C 77.167 30.848,75.625 30.667,92.186 30.667 C 112.628 30.667,111.843 30.491,112.255 35.167 C 112.423 37.075,112.572 37.225,114.211 37.130 C 116.178 37.016,116.167 37.038,116.165 33.357 C 116.164 30.408,115.985 28.616,115.614 27.835 C 115.151 26.861,115.084 26.857,95.617 26.845 L 77.985 26.833 77.576 27.242 M70.853 36.097 C 70.018 37.157,70.410 44.000,71.304 44.000 C 72.588 44.000,72.839 35.882,71.561 35.699 C 71.333 35.667,71.078 35.810,70.853 36.097 M319.667 42.003 C 317.002 42.202,316.111 42.506,315.081 43.568 C 314.713 43.947,313.992 44.456,313.478 44.699 C 312.057 45.372,311.483 46.530,310.347 51.016 C 309.686 53.629,308.606 55.509,307.251 56.408 C 304.627 58.150,304.633 60.014,307.267 61.948 C 307.853 62.378,308.516 62.997,308.741 63.323 C 309.702 64.714,309.667 64.228,309.667 76.041 C 309.667 85.474,309.700 86.974,309.918 87.285 C 310.736 88.453,315.615 88.922,316.650 87.932 L 317.156 87.448 317.203 76.099 L 317.250 64.750 317.684 63.833 C 318.439 62.235,319.028 61.850,321.122 61.581 C 322.170 61.447,322.688 61.072,323.152 60.113 C 324.057 58.243,323.179 56.968,320.779 56.670 C 318.504 56.388,317.500 55.151,317.500 52.630 C 317.500 51.129,319.703 48.765,321.985 47.816 C 324.596 46.731,324.919 46.336,324.735 44.462 C 324.573 42.824,323.260 41.735,321.595 41.859 C 321.405 41.873,320.537 41.938,319.667 42.003 M342.320 42.001 C 340.250 42.199,339.037 42.700,337.660 43.923 C 337.193 44.337,336.403 44.907,335.903 45.189 C 334.509 45.975,333.861 47.457,333.502 50.672 C 333.073 54.524,332.470 55.363,329.042 56.879 C 326.541 57.986,327.145 60.445,330.320 62.086 C 331.260 62.571,331.972 63.067,332.247 63.428 C 333.198 64.675,333.167 64.240,333.167 76.124 C 333.167 86.000,333.194 87.131,333.439 87.481 C 334.469 88.952,339.040 88.845,339.789 87.333 C 339.946 87.015,339.996 84.326,339.998 75.928 C 340.001 62.627,339.858 63.240,343.249 61.917 C 346.956 60.470,347.209 57.685,343.733 56.604 C 341.720 55.978,340.978 55.222,340.497 53.309 C 340.267 52.392,340.350 52.184,341.488 50.833 C 341.913 50.329,342.470 49.632,342.727 49.285 C 343.398 48.377,344.222 47.903,345.833 47.499 C 348.175 46.911,348.432 46.584,348.243 44.431 C 348.089 42.679,347.876 42.468,345.905 42.106 C 344.323 41.815,344.272 41.814,342.320 42.001 M106.367 42.700 C 106.094 42.973,106.115 43.583,106.405 43.823 C 106.689 44.060,107.619 43.652,107.786 43.217 C 107.991 42.681,106.814 42.252,106.367 42.700 M234.965 45.303 C 232.941 45.845,233.167 43.155,233.167 66.764 L 233.167 87.309 233.574 87.630 C 234.718 88.529,239.647 88.762,240.455 87.955 L 240.917 87.493 241.000 80.942 L 241.083 74.392 241.554 73.681 C 242.252 72.627,243.047 72.335,245.277 72.312 C 249.517 72.270,250.383 72.761,251.575 75.884 C 251.982 76.947,252.428 77.781,252.854 78.274 C 253.637 79.178,253.994 79.861,254.500 81.417 C 255.005 82.970,255.425 83.785,256.124 84.563 C 256.444 84.919,256.888 85.631,257.113 86.147 C 258.152 88.532,258.182 88.546,262.049 88.456 C 266.465 88.353,267.017 87.683,264.836 85.076 C 263.959 84.028,263.627 83.387,263.157 81.831 C 262.745 80.470,262.288 79.645,261.587 79.000 C 260.983 78.444,260.463 77.389,259.925 75.626 C 259.555 74.413,259.326 73.990,258.546 73.076 C 257.429 71.767,257.363 71.321,258.137 70.286 C 258.426 69.900,258.990 69.096,259.391 68.500 C 260.235 67.244,260.581 66.909,261.627 66.335 C 262.722 65.734,262.926 65.348,263.486 62.815 C 263.761 61.567,264.147 60.142,264.342 59.648 C 264.991 58.008,264.244 53.640,262.837 50.841 C 262.070 49.315,261.871 49.139,259.617 47.988 C 258.682 47.510,257.477 46.792,256.940 46.392 C 255.892 45.610,255.847 45.594,254.083 45.311 C 251.864 44.955,236.290 44.948,234.965 45.303 M64.055 49.243 C 63.288 49.577,63.223 49.812,63.104 52.703 L 62.996 55.323 63.408 55.593 C 65.221 56.781,65.667 56.158,65.667 52.438 C 65.667 48.811,65.555 48.590,64.055 49.243 M99.667 49.333 C 99.483 49.517,99.333 49.760,99.332 49.875 C 99.311 53.374,98.393 54.509,95.038 55.184 C 93.008 55.592,92.874 55.719,92.804 57.311 C 92.719 59.251,92.653 59.226,98.053 59.352 C 104.646 59.507,105.433 59.915,105.758 63.346 C 105.976 65.653,106.287 65.959,107.854 65.412 C 108.971 65.023,109.000 64.935,109.000 61.971 C 109.000 57.397,108.227 55.704,105.969 55.333 C 102.994 54.844,101.623 53.549,101.329 50.951 C 101.126 49.149,100.480 48.520,99.667 49.333 M251.029 51.362 C 252.354 51.863,254.040 53.076,255.445 54.539 C 258.526 57.748,257.011 62.988,252.575 64.468 C 252.030 64.650,251.004 65.076,250.297 65.415 C 249.054 66.011,248.944 66.033,247.047 66.058 C 241.907 66.125,241.153 65.282,241.038 59.333 C 240.918 53.072,241.525 51.286,243.882 50.977 C 245.955 50.706,249.846 50.915,251.029 51.362 M274.250 57.140 C 272.421 58.255,272.437 58.143,272.550 69.054 C 272.680 81.524,273.081 84.187,275.046 85.639 C 275.527 85.994,276.213 86.642,276.571 87.079 C 277.408 88.101,277.814 88.255,280.333 88.505 C 284.242 88.894,287.371 88.396,288.720 87.169 C 290.354 85.683,290.561 85.677,291.932 87.068 C 293.465 88.624,296.169 89.046,298.114 88.034 C 299.432 87.348,299.333 88.564,299.333 72.988 L 299.333 59.049 298.958 58.497 C 297.564 56.446,293.944 56.126,292.808 57.954 L 292.417 58.583 292.333 68.417 C 292.237 79.784,292.457 78.501,290.210 80.815 C 288.398 82.680,288.055 82.833,285.698 82.833 C 283.358 82.833,282.841 82.583,281.374 80.739 C 279.437 78.305,279.596 79.358,279.500 68.319 L 279.417 58.721 278.941 58.035 C 278.071 56.779,275.610 56.310,274.250 57.140 M57.417 60.750 C 57.325 60.781,56.968 60.853,56.624 60.911 C 55.599 61.082,55.467 61.452,55.323 64.552 C 55.093 69.489,54.188 70.833,51.096 70.833 C 49.652 70.833,48.955 71.293,49.331 71.996 C 49.720 72.722,49.899 72.740,57.917 72.830 L 65.583 72.917 66.667 73.456 C 70.907 75.566,70.884 75.528,70.998 80.367 C 71.059 82.949,71.143 84.044,71.293 84.193 C 71.556 84.456,73.561 84.402,74.158 84.116 L 74.583 83.912 74.627 77.713 C 74.668 71.903,74.652 71.504,74.373 71.354 C 73.768 71.031,71.386 70.833,68.030 70.828 C 60.565 70.815,59.593 70.076,59.340 64.222 C 59.193 60.839,58.871 60.256,57.417 60.750 M99.940 71.197 C 99.603 71.386,99.583 72.056,99.906 72.324 C 100.349 72.692,101.237 71.851,100.930 71.355 C 100.783 71.118,100.238 71.030,99.940 71.197 M93.113 77.875 C 92.793 78.109,92.423 80.003,92.577 80.616 C 92.793 81.478,94.208 81.253,94.393 80.327 C 94.802 78.279,94.182 77.092,93.113 77.875 M86.444 84.376 C 85.781 84.861,85.490 87.024,86.037 87.407 C 87.187 88.212,88.000 87.524,88.000 85.746 C 88.000 84.238,87.380 83.692,86.444 84.376 M64.952 87.461 C 64.557 87.898,64.436 93.435,64.812 93.890 C 65.585 94.825,66.832 93.844,66.839 92.294 C 66.842 91.628,66.953 90.483,67.086 89.750 C 67.424 87.879,67.409 87.687,66.907 87.496 C 65.953 87.134,65.259 87.121,64.952 87.461 M79.286 92.749 C 77.285 93.299,77.548 94.621,79.619 94.425 C 80.929 94.300,81.150 94.207,81.271 93.726 C 81.539 92.656,80.853 92.318,79.286 92.749 M72.274 99.496 C 70.533 99.832,71.133 101.333,73.009 101.333 C 74.339 101.333,74.833 101.019,74.833 100.173 C 74.833 99.377,74.013 99.160,72.274 99.496 M58.234 100.084 C 57.993 100.451,57.969 101.026,58.027 104.853 C 58.112 110.359,57.669 109.835,62.227 109.830 C 66.508 109.825,66.732 109.749,67.405 108.066 L 67.862 106.926 67.521 106.650 C 67.333 106.498,66.295 106.209,65.215 106.008 C 62.157 105.438,60.892 104.332,60.155 101.583 C 59.641 99.668,58.891 99.082,58.234 100.084 " stroke="none" fill="#5c657e" fill-rule="evenodd"></path><path id="path1" d="M0.000 68.250 L 0.000 136.500 200.000 136.500 L 400.000 136.500 400.000 68.250 L 400.000 0.000 200.000 0.000 L 0.000 0.000 0.000 68.250 M116.237 24.660 C 116.983 24.833,117.577 25.233,118.073 25.897 C 118.498 26.466,118.611 37.278,118.206 38.610 C 117.634 40.492,116.527 41.399,114.484 41.658 C 112.401 41.922,112.285 42.051,111.916 44.508 C 111.472 47.462,110.923 48.010,108.058 48.362 C 105.839 48.635,105.667 48.805,105.667 50.733 C 105.667 52.796,105.848 52.970,108.207 53.157 C 110.472 53.337,111.094 53.625,111.665 54.759 L 112.079 55.583 112.081 60.750 C 112.084 68.247,111.559 69.478,108.085 70.116 C 105.967 70.505,105.829 70.681,105.338 73.622 C 104.986 75.734,104.167 76.454,101.627 76.881 C 99.475 77.242,99.000 77.671,99.000 79.253 C 99.000 81.957,97.974 83.007,94.835 83.513 C 92.863 83.830,92.626 84.091,92.426 86.159 C 92.239 88.100,91.913 88.501,88.997 90.373 C 87.155 91.557,85.540 93.304,84.167 95.600 C 82.719 98.019,82.156 98.560,80.626 98.999 C 77.684 99.845,77.934 99.605,77.425 102.062 C 76.803 105.058,76.325 105.474,73.302 105.647 C 70.952 105.782,70.963 105.771,70.827 108.207 C 70.612 112.072,70.276 112.225,62.206 112.127 C 53.478 112.022,53.589 112.122,53.586 104.333 L 53.583 99.250 54.031 98.402 C 54.619 97.288,56.582 95.609,57.737 95.231 C 59.855 94.539,60.165 94.105,60.166 91.829 C 60.168 86.723,60.939 85.609,65.066 84.743 C 67.134 84.309,67.167 84.252,67.167 81.080 C 67.167 76.818,67.877 77.108,57.167 77.000 C 46.624 76.894,46.833 76.996,46.812 71.917 C 46.797 68.281,47.922 66.784,51.000 66.341 C 52.768 66.087,53.000 65.800,53.000 63.866 C 53.001 58.065,53.795 56.501,56.744 56.499 C 59.442 56.497,59.397 56.567,59.500 52.250 C 59.618 47.314,59.777 47.030,62.997 45.992 C 65.800 45.088,65.875 44.924,66.013 39.417 C 66.187 32.447,66.550 31.776,70.469 31.158 C 72.272 30.874,72.497 30.623,72.693 28.667 C 72.947 26.131,73.503 25.456,75.841 24.844 C 77.211 24.485,114.746 24.314,116.237 24.660 M77.819 34.681 C 77.034 35.466,76.932 36.028,76.822 40.167 C 76.656 46.409,76.105 47.446,72.475 48.349 C 70.090 48.943,70.000 49.105,70.000 52.780 C 70.000 56.311,69.901 56.487,66.725 58.631 C 65.914 59.179,64.706 60.191,64.042 60.879 L 62.833 62.131 62.833 63.482 C 62.833 65.878,63.731 66.333,68.457 66.333 C 75.045 66.333,76.070 66.745,76.967 69.750 C 77.279 70.793,77.455 81.691,77.196 83.839 C 76.918 86.138,76.244 86.655,73.302 86.828 C 70.802 86.976,70.930 86.777,70.862 90.605 C 70.785 94.890,70.894 95.099,73.105 94.899 C 74.977 94.729,75.127 94.555,75.436 92.182 C 75.855 88.979,76.373 88.456,79.348 88.231 C 81.559 88.064,81.683 87.930,81.823 85.563 C 81.998 82.581,82.609 81.991,85.823 81.699 C 88.031 81.499,88.082 81.446,88.245 79.215 C 88.446 76.446,88.929 75.807,91.557 74.827 C 93.637 74.052,94.176 73.410,95.249 70.439 C 95.665 69.289,97.893 67.137,99.167 66.655 C 101.390 65.813,101.745 65.327,100.991 64.152 C 100.142 62.829,100.155 62.833,96.809 62.833 C 93.962 62.833,93.816 62.817,92.638 62.358 C 91.966 62.097,91.065 61.755,90.635 61.598 C 88.814 60.935,88.342 60.084,88.337 57.453 C 88.331 54.305,89.003 53.579,92.295 53.177 C 94.472 52.911,94.566 52.812,94.738 50.610 C 94.934 48.104,95.239 47.705,97.958 46.397 C 100.069 45.382,100.509 44.933,101.580 42.707 C 101.900 42.042,102.462 41.172,102.829 40.774 C 103.196 40.376,103.742 39.730,104.042 39.339 C 104.469 38.783,104.972 38.440,106.336 37.772 C 108.541 36.693,108.619 36.476,107.268 35.198 L 106.353 34.333 92.260 34.333 C 78.192 34.333,78.166 34.334,77.819 34.681 M324.963 40.582 C 327.069 41.068,327.653 41.841,327.789 44.322 C 327.974 47.670,326.873 49.172,323.155 50.646 C 322.645 50.849,321.862 51.350,321.415 51.760 C 320.436 52.659,320.489 52.760,322.318 53.505 C 323.858 54.132,324.396 54.519,324.853 55.332 C 325.378 56.267,325.560 56.257,326.222 55.259 C 326.712 54.521,327.017 54.271,328.057 53.757 C 329.642 52.974,329.789 52.802,330.246 51.179 C 330.454 50.443,330.928 49.332,331.299 48.712 C 331.671 48.091,332.170 46.934,332.409 46.141 C 332.932 44.406,333.244 43.976,334.342 43.480 C 334.904 43.226,335.296 42.906,335.533 42.509 C 336.522 40.852,337.172 40.595,341.083 40.321 C 345.764 39.993,348.728 40.347,349.558 41.334 C 350.401 42.335,350.613 46.107,349.922 47.790 C 349.320 49.256,346.775 51.000,345.238 51.000 C 344.830 51.000,343.833 52.012,343.833 52.427 C 343.833 52.950,344.415 53.466,345.243 53.678 C 348.653 54.550,350.284 57.001,349.593 60.215 C 349.048 62.753,348.146 63.637,345.557 64.171 C 343.152 64.666,343.333 63.676,343.333 76.312 C 343.333 87.569,343.325 87.710,342.614 88.475 C 340.663 90.572,332.934 90.738,330.773 88.729 C 329.811 87.834,329.833 88.129,329.833 76.292 C 329.833 63.555,330.099 64.957,327.505 63.980 C 327.187 63.860,326.600 63.422,326.201 63.006 L 325.475 62.250 324.862 62.945 C 324.084 63.827,323.569 64.076,321.659 64.493 C 320.808 64.678,319.939 64.944,319.728 65.083 L 319.342 65.335 319.296 76.459 L 319.250 87.583 318.863 88.369 C 318.085 89.950,316.468 90.349,312.126 90.033 C 308.866 89.796,308.141 89.528,307.542 88.340 L 307.167 87.596 307.167 76.556 C 307.167 68.570,307.113 65.399,306.974 65.094 C 306.795 64.700,305.653 64.000,305.190 64.000 C 305.078 64.000,304.607 63.645,304.143 63.212 C 303.337 62.457,303.291 62.438,303.066 62.746 C 302.461 63.573,302.433 64.075,302.341 76.113 C 302.240 89.294,302.327 88.326,301.156 89.199 C 299.920 90.120,293.958 90.424,291.693 89.683 C 290.511 89.295,290.441 89.291,289.610 89.549 C 286.085 90.646,279.713 90.706,276.191 89.677 C 274.542 89.195,272.643 87.078,271.989 84.994 C 271.656 83.931,271.333 83.274,270.864 82.709 C 269.409 80.955,269.340 80.300,269.336 68.143 C 269.333 59.018,269.350 58.481,269.665 57.462 C 270.541 54.624,272.269 53.595,276.167 53.588 C 279.450 53.581,280.602 54.347,282.076 57.514 L 282.497 58.417 282.498 65.888 C 282.501 76.336,282.684 77.930,284.098 79.785 C 285.167 81.186,288.276 79.812,289.197 77.531 C 289.259 77.376,289.315 73.036,289.322 67.885 L 289.333 58.520 290.090 57.040 C 291.531 54.221,292.290 53.661,294.846 53.536 C 297.670 53.398,300.563 54.247,302.103 55.667 C 303.083 56.570,303.118 56.561,304.042 55.167 C 304.255 54.846,304.672 54.433,304.970 54.250 C 307.071 52.955,307.143 52.850,307.338 50.787 C 307.526 48.802,307.790 48.146,308.831 47.083 C 309.360 46.542,309.769 45.919,309.997 45.305 C 310.423 44.157,310.812 43.642,311.628 43.145 C 311.970 42.937,312.662 42.347,313.167 41.834 C 314.291 40.690,314.849 40.503,317.667 40.326 C 320.550 40.145,323.522 40.250,324.963 40.582 M251.250 43.335 C 258.279 43.717,259.142 43.916,260.454 45.453 C 261.047 46.146,261.526 46.508,262.333 46.870 C 263.760 47.511,263.906 47.663,264.439 49.061 C 264.789 49.979,265.105 50.460,265.825 51.170 C 267.193 52.520,267.597 54.272,267.457 58.250 C 267.354 61.179,267.019 62.340,265.861 63.783 C 265.345 64.426,264.975 65.089,264.846 65.605 C 264.532 66.851,264.090 67.433,263.102 67.901 C 261.989 68.427,261.929 68.504,261.361 70.143 L 260.891 71.500 261.260 73.143 C 261.710 75.141,261.780 75.280,262.764 76.086 C 263.673 76.831,264.229 77.916,264.591 79.648 C 264.916 81.208,265.118 81.609,265.782 82.020 C 267.441 83.045,268.564 87.034,267.651 88.659 C 267.104 89.631,266.569 89.850,264.275 90.036 C 259.460 90.428,256.854 89.997,256.083 88.681 C 255.900 88.367,255.284 87.640,254.715 87.064 C 253.867 86.205,253.632 85.843,253.411 85.050 C 252.589 82.100,252.381 81.661,251.322 80.636 C 250.689 80.024,250.458 79.647,250.247 78.886 C 249.363 75.696,249.129 75.273,247.916 74.667 C 246.471 73.944,243.854 74.232,243.382 75.167 C 243.224 75.479,243.171 77.088,243.169 81.599 C 243.166 88.341,243.125 88.587,241.860 89.444 C 240.005 90.700,232.502 90.259,231.470 88.833 C 230.849 87.977,230.825 87.038,230.871 66.150 L 230.917 45.750 231.333 44.925 C 231.851 43.900,232.554 43.513,234.210 43.339 C 236.063 43.144,247.694 43.141,251.250 43.335 M245.965 54.005 C 245.358 54.179,243.761 55.102,243.478 55.443 C 243.096 55.903,243.154 61.525,243.546 61.958 C 244.350 62.848,246.861 63.153,250.309 62.780 C 253.005 62.488,253.014 62.481,253.559 60.328 L 253.962 58.740 253.640 57.245 C 253.421 56.228,253.198 55.629,252.944 55.372 C 252.222 54.643,247.185 53.656,245.965 54.005 M64.862 99.386 C 64.138 100.157,64.711 102.167,65.655 102.167 C 67.554 102.167,69.110 100.386,68.184 99.271 C 67.795 98.802,65.331 98.887,64.862 99.386 " stroke="none" fill="#1e2129" fill-rule="evenodd"></path><path id="path2" d="M76.605 25.740 C 74.913 26.441,74.629 26.827,74.266 28.907 C 73.886 31.080,73.483 31.518,71.250 32.188 C 67.792 33.224,67.327 34.112,67.165 40.000 C 67.001 45.970,66.723 46.589,63.949 47.160 C 60.689 47.831,60.610 47.955,60.500 52.591 C 60.390 57.206,60.313 57.328,57.338 57.577 C 54.653 57.803,54.112 58.683,53.902 63.167 C 53.740 66.601,53.362 67.229,51.025 67.935 C 47.939 68.867,47.004 70.864,48.112 74.153 C 48.718 75.949,48.889 75.979,58.366 75.991 L 65.149 76.000 66.526 76.435 C 67.501 76.743,68.064 77.030,68.452 77.418 L 69.000 77.967 69.000 80.975 C 69.000 85.001,68.949 85.079,66.083 85.501 C 62.884 85.972,62.012 87.351,62.003 91.947 C 61.999 94.236,61.416 95.126,59.070 96.423 C 55.089 98.626,54.748 99.270,54.889 104.333 C 55.029 109.366,55.187 109.863,56.933 110.750 L 57.917 111.250 62.833 111.250 C 69.440 111.250,69.603 111.172,69.857 107.884 C 70.103 104.687,70.082 104.711,72.857 104.524 C 75.647 104.336,75.827 104.158,76.610 100.814 C 77.137 98.562,77.330 98.324,79.021 97.845 C 81.410 97.168,83.499 95.203,83.500 93.632 C 83.501 92.314,85.239 90.422,86.982 89.839 C 89.291 89.068,90.314 87.945,90.720 85.734 C 91.038 84.002,91.454 83.458,92.741 83.087 C 93.204 82.954,94.016 82.719,94.545 82.565 C 96.583 81.973,97.151 81.320,97.502 79.167 C 97.846 77.062,98.289 76.547,100.230 76.000 C 102.998 75.219,103.662 74.586,104.343 72.083 C 105.000 69.668,105.515 69.113,107.833 68.319 C 110.912 67.265,111.064 66.972,111.134 61.964 C 111.233 54.872,111.054 54.469,107.586 54.004 C 105.152 53.678,104.500 52.906,104.500 50.351 C 104.500 48.207,104.858 47.825,107.401 47.252 C 109.954 46.677,110.272 46.336,110.989 43.398 C 111.600 40.892,111.952 40.523,114.295 39.926 C 116.182 39.446,116.553 39.189,117.175 37.926 L 117.686 36.887 117.635 32.069 C 117.577 26.670,117.535 26.465,116.327 25.756 C 115.757 25.421,115.523 25.416,96.667 25.376 L 77.583 25.335 76.605 25.740 M114.333 27.136 C 115.929 27.549,116.163 28.346,116.165 33.357 C 116.167 37.038,116.178 37.016,114.211 37.130 C 112.572 37.225,112.423 37.075,112.255 35.167 C 111.843 30.491,112.628 30.667,92.186 30.667 C 75.625 30.667,77.167 30.848,77.167 28.900 C 77.167 27.797,77.214 27.604,77.576 27.242 L 77.985 26.833 95.617 26.845 C 111.574 26.855,113.353 26.883,114.333 27.136 M107.750 33.145 C 108.962 33.724,109.345 34.120,109.933 35.406 C 110.688 37.055,110.430 37.495,108.000 38.701 C 105.557 39.913,104.497 40.962,103.178 43.476 C 101.734 46.226,101.609 46.359,99.781 47.067 C 96.984 48.151,96.430 48.731,96.079 50.945 C 95.803 52.679,95.169 53.451,93.713 53.825 C 90.328 54.695,89.866 54.972,89.655 56.260 C 89.016 60.152,90.226 60.987,96.750 61.155 C 101.386 61.275,101.431 61.294,102.946 63.811 C 103.880 65.362,103.352 66.315,100.866 67.567 C 98.451 68.783,96.924 70.422,95.899 72.900 C 95.088 74.860,94.772 75.160,92.832 75.807 C 90.044 76.737,89.604 77.199,89.414 79.393 C 89.197 81.900,88.918 82.187,86.305 82.594 C 83.464 83.037,83.065 83.425,82.844 85.964 C 82.612 88.639,82.259 89.023,79.750 89.333 C 77.277 89.639,76.897 90.047,76.303 93.037 C 75.741 95.864,75.645 95.960,72.770 96.569 C 69.787 97.200,69.462 97.822,69.338 103.125 C 69.323 103.789,68.717 104.000,66.821 104.000 C 64.639 104.000,64.333 103.813,63.674 102.081 C 62.597 99.252,63.315 98.037,66.855 96.694 C 67.989 96.263,69.015 95.849,69.135 95.773 C 69.593 95.483,69.713 94.637,69.818 90.986 C 69.959 86.060,69.918 86.124,73.111 85.943 C 76.396 85.757,76.332 85.923,76.333 77.644 L 76.333 71.038 75.875 70.162 C 74.957 68.407,74.153 68.162,68.833 68.018 L 64.917 67.911 63.487 67.230 C 61.496 66.281,61.267 65.931,61.193 63.719 C 61.086 60.498,61.977 58.989,64.451 58.201 C 67.596 57.200,68.130 56.299,68.154 51.953 C 68.173 48.800,68.467 48.377,71.250 47.507 C 73.175 46.906,73.867 46.251,74.867 44.082 C 75.218 43.319,75.257 42.953,75.335 39.667 C 75.430 35.602,75.741 34.346,76.929 33.208 L 77.495 32.667 92.123 32.667 L 106.750 32.667 107.750 33.145 M72.136 36.417 C 72.808 38.458,72.200 44.000,71.304 44.000 C 70.410 44.000,70.018 37.157,70.853 36.097 C 71.360 35.451,71.859 35.576,72.136 36.417 M107.579 42.726 C 107.982 43.021,107.824 43.410,107.163 43.752 C 106.560 44.064,106.167 43.871,106.167 43.263 C 106.167 42.550,106.937 42.257,107.579 42.726 M65.467 49.200 C 65.813 49.546,65.742 55.401,65.387 55.756 C 65.051 56.092,64.043 56.009,63.408 55.593 L 62.996 55.323 63.104 52.703 C 63.164 51.262,63.283 49.946,63.369 49.778 C 63.675 49.184,65.067 48.800,65.467 49.200 M100.819 49.292 C 101.100 49.521,101.208 49.874,101.329 50.951 C 101.623 53.549,102.994 54.844,105.969 55.333 C 108.227 55.704,109.000 57.397,109.000 61.971 C 109.000 64.935,108.971 65.023,107.854 65.412 C 106.287 65.959,105.976 65.653,105.758 63.346 C 105.433 59.915,104.646 59.507,98.053 59.352 C 92.653 59.226,92.719 59.251,92.804 57.311 C 92.874 55.719,93.008 55.592,95.038 55.184 C 98.393 54.509,99.311 53.374,99.332 49.875 C 99.336 49.197,100.261 48.834,100.819 49.292 M58.941 61.097 C 59.162 61.434,59.249 62.116,59.340 64.222 C 59.593 70.076,60.565 70.815,68.030 70.828 C 71.386 70.833,73.768 71.031,74.373 71.354 C 74.652 71.504,74.668 71.903,74.627 77.713 L 74.583 83.912 74.158 84.116 C 73.561 84.402,71.556 84.456,71.293 84.193 C 71.143 84.044,71.059 82.949,70.998 80.367 C 70.884 75.528,70.907 75.566,66.667 73.456 L 65.583 72.917 57.917 72.830 C 49.899 72.740,49.720 72.722,49.331 71.996 C 48.955 71.293,49.652 70.833,51.096 70.833 C 54.188 70.833,55.093 69.489,55.323 64.552 C 55.467 61.452,55.599 61.082,56.624 60.911 C 56.968 60.853,57.325 60.781,57.417 60.750 C 58.023 60.544,58.676 60.693,58.941 61.097 M100.930 71.355 C 101.237 71.851,100.349 72.692,99.906 72.324 C 99.583 72.056,99.603 71.386,99.940 71.197 C 100.238 71.030,100.783 71.118,100.930 71.355 M94.300 77.867 C 94.778 78.345,94.475 80.776,93.905 81.036 C 92.831 81.525,92.382 80.852,92.655 79.160 C 92.872 77.812,93.641 77.207,94.300 77.867 M87.800 84.367 C 88.103 84.670,88.059 86.842,87.741 87.296 C 87.246 88.003,85.664 87.610,85.669 86.782 C 85.679 84.940,86.942 83.508,87.800 84.367 M66.907 87.496 C 67.409 87.687,67.424 87.879,67.086 89.750 C 66.953 90.483,66.842 91.628,66.839 92.294 C 66.833 93.479,66.822 93.512,66.292 93.835 C 64.809 94.739,64.575 94.299,64.621 90.699 C 64.668 86.990,64.861 86.719,66.907 87.496 M81.160 92.904 C 81.663 93.844,81.229 94.272,79.619 94.425 C 78.513 94.530,78.000 94.321,78.000 93.765 C 78.000 92.800,80.709 92.062,81.160 92.904 M74.511 99.506 C 74.940 99.735,74.934 100.566,74.500 101.000 C 73.436 102.064,70.736 101.035,71.485 99.852 C 71.752 99.431,73.910 99.184,74.511 99.506 M59.540 99.958 C 59.681 100.119,59.958 100.850,60.155 101.583 C 60.892 104.332,62.157 105.438,65.215 106.008 C 66.295 106.209,67.333 106.498,67.521 106.650 L 67.862 106.926 67.405 108.066 C 66.732 109.749,66.508 109.825,62.227 109.830 C 57.669 109.835,58.112 110.359,58.027 104.853 C 57.969 101.026,57.993 100.451,58.234 100.084 C 58.556 99.594,59.165 99.535,59.540 99.958 " stroke="none" fill="#5c657e" fill-rule="evenodd"></path><path id="path3" d="M75.841 24.844 C 73.503 25.456,72.947 26.131,72.693 28.667 C 72.497 30.623,72.272 30.874,70.469 31.158 C 66.550 31.776,66.187 32.447,66.013 39.417 C 65.875 44.924,65.800 45.088,62.997 45.992 C 59.777 47.030,59.618 47.314,59.500 52.250 C 59.397 56.567,59.442 56.497,56.744 56.499 C 53.795 56.501,53.001 58.065,53.000 63.866 C 53.000 65.800,52.768 66.087,51.000 66.341 C 47.922 66.784,46.797 68.281,46.812 71.917 C 46.833 76.996,46.624 76.894,57.167 77.000 C 67.877 77.108,67.167 76.818,67.167 81.080 C 67.167 84.252,67.134 84.309,65.066 84.743 C 60.939 85.609,60.168 86.723,60.166 91.829 C 60.165 94.105,59.855 94.539,57.737 95.231 C 56.582 95.609,54.619 97.288,54.031 98.402 L 53.583 99.250 53.586 104.333 C 53.589 112.122,53.478 112.022,62.206 112.127 C 70.276 112.225,70.612 112.072,70.827 108.207 C 70.963 105.771,70.952 105.782,73.302 105.647 C 76.325 105.474,76.803 105.058,77.425 102.062 C 77.934 99.605,77.684 99.845,80.626 98.999 C 82.156 98.560,82.719 98.019,84.167 95.600 C 85.540 93.304,87.155 91.557,88.997 90.373 C 91.913 88.501,92.239 88.100,92.426 86.159 C 92.626 84.091,92.863 83.830,94.835 83.513 C 97.974 83.007,99.000 81.957,99.000 79.253 C 99.000 77.671,99.475 77.242,101.627 76.881 C 104.167 76.454,104.986 75.734,105.338 73.622 C 105.829 70.681,105.967 70.505,108.085 70.116 C 111.559 69.478,112.084 68.247,112.081 60.750 L 112.079 55.583 111.665 54.759 C 111.094 53.625,110.472 53.337,108.207 53.157 C 105.848 52.970,105.667 52.796,105.667 50.733 C 105.667 48.805,105.839 48.635,108.058 48.362 C 110.923 48.010,111.472 47.462,111.916 44.508 C 112.285 42.051,112.401 41.922,114.484 41.658 C 116.527 41.399,117.634 40.492,118.206 38.610 C 118.611 37.278,118.498 26.466,118.073 25.897 C 117.577 25.233,116.983 24.833,116.237 24.660 C 114.746 24.314,77.211 24.485,75.841 24.844 M116.327 25.756 C 117.535 26.465,117.577 26.670,117.635 32.069 L 117.686 36.887 117.175 37.926 C 116.553 39.189,116.182 39.446,114.295 39.926 C 111.952 40.523,111.600 40.892,110.989 43.398 C 110.272 46.336,109.954 46.677,107.401 47.252 C 104.858 47.825,104.500 48.207,104.500 50.351 C 104.500 52.906,105.152 53.678,107.586 54.004 C 111.054 54.469,111.233 54.872,111.134 61.964 C 111.064 66.972,110.912 67.265,107.833 68.319 C 105.515 69.113,105.000 69.668,104.343 72.083 C 103.662 74.586,102.998 75.219,100.230 76.000 C 98.289 76.547,97.846 77.062,97.502 79.167 C 97.151 81.320,96.583 81.973,94.545 82.565 C 94.016 82.719,93.204 82.954,92.741 83.087 C 91.454 83.458,91.038 84.002,90.720 85.734 C 90.314 87.945,89.291 89.068,86.982 89.839 C 85.239 90.422,83.501 92.314,83.500 93.632 C 83.499 95.203,81.410 97.168,79.021 97.845 C 77.330 98.324,77.137 98.562,76.610 100.814 C 75.827 104.158,75.647 104.336,72.857 104.524 C 70.082 104.711,70.103 104.687,69.857 107.884 C 69.603 111.172,69.440 111.250,62.833 111.250 L 57.917 111.250 56.933 110.750 C 55.187 109.863,55.029 109.366,54.889 104.333 C 54.748 99.270,55.089 98.626,59.070 96.423 C 61.416 95.126,61.999 94.236,62.003 91.947 C 62.012 87.351,62.884 85.972,66.083 85.501 C 68.949 85.079,69.000 85.001,69.000 80.975 L 69.000 77.967 68.452 77.418 C 68.064 77.030,67.501 76.743,66.526 76.435 L 65.149 76.000 58.366 75.991 C 48.889 75.979,48.718 75.949,48.112 74.153 C 47.004 70.864,47.939 68.867,51.025 67.935 C 53.362 67.229,53.740 66.601,53.902 63.167 C 54.112 58.683,54.653 57.803,57.338 57.577 C 60.313 57.328,60.390 57.206,60.500 52.591 C 60.610 47.955,60.689 47.831,63.949 47.160 C 66.723 46.589,67.001 45.970,67.165 40.000 C 67.327 34.112,67.792 33.224,71.250 32.188 C 73.483 31.518,73.886 31.080,74.266 28.907 C 74.629 26.827,74.913 26.441,76.605 25.740 L 77.583 25.335 96.667 25.376 C 115.523 25.416,115.757 25.421,116.327 25.756 M76.929 33.208 C 75.741 34.346,75.430 35.602,75.335 39.667 C 75.257 42.953,75.218 43.319,74.867 44.082 C 73.867 46.251,73.175 46.906,71.250 47.507 C 68.467 48.377,68.173 48.800,68.154 51.953 C 68.130 56.299,67.596 57.200,64.451 58.201 C 61.977 58.989,61.086 60.498,61.193 63.719 C 61.267 65.931,61.496 66.281,63.487 67.230 L 64.917 67.911 68.833 68.018 C 74.153 68.162,74.957 68.407,75.875 70.162 L 76.333 71.038 76.333 77.644 C 76.332 85.923,76.396 85.757,73.111 85.943 C 69.918 86.124,69.959 86.060,69.818 90.986 C 69.713 94.637,69.593 95.483,69.135 95.773 C 69.015 95.849,67.989 96.263,66.855 96.694 C 63.315 98.037,62.597 99.252,63.674 102.081 C 64.333 103.813,64.639 104.000,66.821 104.000 C 68.717 104.000,69.323 103.789,69.338 103.125 C 69.462 97.822,69.787 97.200,72.770 96.569 C 75.645 95.960,75.741 95.864,76.303 93.037 C 76.897 90.047,77.277 89.639,79.750 89.333 C 82.259 89.023,82.612 88.639,82.844 85.964 C 83.065 83.425,83.464 83.037,86.305 82.594 C 88.918 82.187,89.197 81.900,89.414 79.393 C 89.604 77.199,90.044 76.737,92.832 75.807 C 94.772 75.160,95.088 74.860,95.899 72.900 C 96.924 70.422,98.451 68.783,100.866 67.567 C 103.352 66.315,103.880 65.362,102.946 63.811 C 101.431 61.294,101.386 61.275,96.750 61.155 C 90.226 60.987,89.016 60.152,89.655 56.260 C 89.866 54.972,90.328 54.695,93.713 53.825 C 95.169 53.451,95.803 52.679,96.079 50.945 C 96.430 48.731,96.984 48.151,99.781 47.067 C 101.609 46.359,101.734 46.226,103.178 43.476 C 104.497 40.962,105.557 39.913,108.000 38.701 C 110.430 37.495,110.688 37.055,109.933 35.406 C 109.345 34.120,108.962 33.724,107.750 33.145 L 106.750 32.667 92.123 32.667 L 77.495 32.667 76.929 33.208 M107.268 35.198 C 108.619 36.476,108.541 36.693,106.336 37.772 C 104.972 38.440,104.469 38.783,104.042 39.339 C 103.742 39.730,103.196 40.376,102.829 40.774 C 102.462 41.172,101.900 42.042,101.580 42.707 C 100.509 44.933,100.069 45.382,97.958 46.397 C 95.239 47.705,94.934 48.104,94.738 50.610 C 94.566 52.812,94.472 52.911,92.295 53.177 C 89.003 53.579,88.331 54.305,88.337 57.453 C 88.342 60.084,88.814 60.935,90.635 61.598 C 91.065 61.755,91.966 62.097,92.638 62.358 C 93.816 62.817,93.962 62.833,96.809 62.833 C 100.155 62.833,100.142 62.829,100.991 64.152 C 101.745 65.327,101.390 65.813,99.167 66.655 C 97.893 67.137,95.665 69.289,95.249 70.439 C 94.176 73.410,93.637 74.052,91.557 74.827 C 88.929 75.807,88.446 76.446,88.245 79.215 C 88.082 81.446,88.031 81.499,85.823 81.699 C 82.609 81.991,81.998 82.581,81.823 85.563 C 81.683 87.930,81.559 88.064,79.348 88.231 C 76.373 88.456,75.855 88.979,75.436 92.182 C 75.127 94.555,74.977 94.729,73.105 94.899 C 70.894 95.099,70.785 94.890,70.862 90.605 C 70.930 86.777,70.802 86.976,73.302 86.828 C 77.302 86.592,77.409 86.316,77.289 76.523 C 77.167 66.555,76.975 66.333,68.457 66.333 C 63.731 66.333,62.833 65.878,62.833 63.482 L 62.833 62.131 64.042 60.879 C 64.706 60.191,65.914 59.179,66.725 58.631 C 69.901 56.487,70.000 56.311,70.000 52.780 C 70.000 49.105,70.090 48.943,72.475 48.349 C 76.105 47.446,76.656 46.409,76.822 40.167 C 76.932 36.028,77.034 35.466,77.819 34.681 C 78.166 34.334,78.192 34.333,92.260 34.333 L 106.353 34.333 107.268 35.198 M317.667 40.326 C 314.849 40.503,314.291 40.690,313.167 41.834 C 312.662 42.347,311.970 42.937,311.628 43.145 C 310.812 43.642,310.423 44.157,309.997 45.305 C 309.769 45.919,309.360 46.542,308.831 47.083 C 307.790 48.146,307.526 48.802,307.338 50.787 C 307.143 52.850,307.071 52.955,304.970 54.250 C 304.672 54.433,304.255 54.846,304.042 55.167 C 303.118 56.561,303.083 56.570,302.103 55.667 C 300.563 54.247,297.670 53.398,294.846 53.536 C 292.290 53.661,291.531 54.221,290.090 57.040 L 289.333 58.520 289.322 67.885 C 289.315 73.036,289.259 77.376,289.197 77.531 C 288.276 79.812,285.167 81.186,284.098 79.785 C 282.684 77.930,282.501 76.336,282.498 65.888 L 282.497 58.417 282.076 57.514 C 280.602 54.347,279.450 53.581,276.167 53.588 C 272.269 53.595,270.541 54.624,269.665 57.462 C 269.350 58.481,269.333 59.018,269.336 68.143 C 269.340 80.300,269.409 80.955,270.864 82.709 C 271.333 83.274,271.656 83.931,271.989 84.994 C 272.643 87.078,274.542 89.195,276.191 89.677 C 279.713 90.706,286.085 90.646,289.610 89.549 C 290.441 89.291,290.511 89.295,291.693 89.683 C 293.958 90.424,299.920 90.120,301.156 89.199 C 302.327 88.326,302.240 89.294,302.341 76.113 C 302.433 64.075,302.461 63.573,303.066 62.746 C 303.291 62.438,303.337 62.457,304.143 63.212 C 304.607 63.645,305.078 64.000,305.190 64.000 C 305.653 64.000,306.795 64.700,306.974 65.094 C 307.113 65.399,307.167 68.570,307.167 76.556 L 307.167 87.596 307.542 88.340 C 308.141 89.528,308.866 89.796,312.126 90.033 C 316.468 90.349,318.085 89.950,318.863 88.369 L 319.250 87.583 319.296 76.459 L 319.342 65.335 319.728 65.083 C 319.939 64.944,320.808 64.678,321.659 64.493 C 323.569 64.076,324.084 63.827,324.862 62.945 L 325.475 62.250 326.201 63.006 C 326.600 63.422,327.187 63.860,327.505 63.980 C 330.099 64.957,329.833 63.555,329.833 76.292 C 329.833 88.129,329.811 87.834,330.773 88.729 C 332.934 90.738,340.663 90.572,342.614 88.475 C 343.325 87.710,343.333 87.569,343.333 76.312 C 343.333 63.676,343.152 64.666,345.557 64.171 C 348.146 63.637,349.048 62.753,349.593 60.215 C 350.284 57.001,348.653 54.550,345.243 53.678 C 344.415 53.466,343.833 52.950,343.833 52.427 C 343.833 52.012,344.830 51.000,345.238 51.000 C 346.775 51.000,349.320 49.256,349.922 47.790 C 350.613 46.107,350.401 42.335,349.558 41.334 C 348.728 40.347,345.764 39.993,341.083 40.321 C 337.172 40.595,336.522 40.852,335.533 42.509 C 335.296 42.906,334.904 43.226,334.342 43.480 C 333.244 43.976,332.932 44.406,332.409 46.141 C 332.170 46.934,331.671 48.091,331.299 48.712 C 330.928 49.332,330.454 50.443,330.246 51.179 C 329.789 52.802,329.642 52.974,328.057 53.757 C 327.017 54.271,326.712 54.521,326.222 55.259 C 325.560 56.257,325.378 56.267,324.853 55.332 C 324.396 54.519,323.858 54.132,322.318 53.505 C 320.489 52.760,320.436 52.659,321.415 51.760 C 321.862 51.350,322.645 50.849,323.155 50.646 C 326.873 49.172,327.974 47.670,327.789 44.322 C 327.587 40.655,325.509 39.834,317.667 40.326 M323.549 41.096 C 325.954 41.719,326.568 42.358,326.725 44.401 C 326.922 46.960,326.204 47.876,323.174 48.933 C 322.605 49.131,321.982 49.524,321.508 49.984 C 321.092 50.387,320.363 51.004,319.888 51.355 C 318.196 52.605,318.588 53.588,321.134 54.479 C 324.654 55.711,325.805 58.456,324.155 61.689 C 323.672 62.636,322.717 63.257,321.376 63.495 C 318.273 64.046,318.599 62.623,318.500 76.059 C 318.406 88.828,318.487 88.063,317.135 88.957 C 315.913 89.766,310.805 89.600,309.272 88.702 C 308.007 87.961,308.093 88.809,308.000 76.192 L 307.917 64.908 307.538 64.427 C 307.330 64.163,306.723 63.628,306.188 63.239 C 303.182 61.052,303.069 57.741,305.914 55.238 C 307.585 53.766,307.969 53.119,308.360 51.116 C 308.642 49.669,308.800 49.256,309.424 48.333 C 309.827 47.737,310.274 46.915,310.417 46.505 C 310.880 45.182,311.464 44.368,312.296 43.889 C 312.729 43.640,313.541 43.014,314.101 42.497 C 315.706 41.014,320.493 40.304,323.549 41.096 M347.404 41.151 C 349.009 41.545,349.499 42.398,349.500 44.798 C 349.500 47.536,348.914 48.306,346.250 49.065 C 344.627 49.527,344.144 49.909,343.006 51.627 C 342.187 52.863,342.679 53.705,344.979 55.001 C 348.242 56.839,348.991 58.314,347.835 60.624 C 347.094 62.103,346.569 62.570,344.909 63.220 C 343.772 63.666,342.678 64.323,342.178 64.860 C 341.837 65.226,341.833 65.344,341.833 76.037 C 341.833 84.901,341.792 86.944,341.601 87.400 C 340.551 89.914,334.113 90.316,331.917 88.004 L 331.417 87.478 331.333 76.303 L 331.250 65.128 330.583 64.552 C 330.217 64.235,329.405 63.706,328.780 63.377 C 325.398 61.599,325.231 57.225,328.462 55.063 C 331.166 53.255,331.540 52.736,332.228 49.831 C 333.149 45.950,334.145 44.000,335.206 44.000 C 335.294 44.000,335.868 43.515,336.482 42.923 C 337.958 41.498,338.128 41.433,341.750 40.930 C 342.568 40.816,346.698 40.977,347.404 41.151 M234.210 43.339 C 232.554 43.513,231.851 43.900,231.333 44.925 L 230.917 45.750 230.871 66.150 C 230.825 87.038,230.849 87.977,231.470 88.833 C 232.502 90.259,240.005 90.700,241.860 89.444 C 243.125 88.587,243.166 88.341,243.169 81.599 C 243.171 77.088,243.224 75.479,243.382 75.167 C 243.854 74.232,246.471 73.944,247.916 74.667 C 249.129 75.273,249.363 75.696,250.247 78.886 C 250.458 79.647,250.689 80.024,251.322 80.636 C 252.381 81.661,252.589 82.100,253.411 85.050 C 253.632 85.843,253.867 86.205,254.715 87.064 C 255.284 87.640,255.900 88.367,256.083 88.681 C 256.854 89.997,259.460 90.428,264.275 90.036 C 266.569 89.850,267.104 89.631,267.651 88.659 C 268.564 87.034,267.441 83.045,265.782 82.020 C 265.118 81.609,264.916 81.208,264.591 79.648 C 264.229 77.916,263.673 76.831,262.764 76.086 C 261.780 75.280,261.710 75.141,261.260 73.143 L 260.891 71.500 261.361 70.143 C 261.929 68.504,261.989 68.427,263.102 67.901 C 264.090 67.433,264.532 66.851,264.846 65.605 C 264.975 65.089,265.345 64.426,265.861 63.783 C 267.019 62.340,267.354 61.179,267.457 58.250 C 267.597 54.272,267.193 52.520,265.825 51.170 C 265.105 50.460,264.789 49.979,264.439 49.061 C 263.906 47.663,263.760 47.511,262.333 46.870 C 261.526 46.508,261.047 46.146,260.454 45.453 C 259.142 43.916,258.279 43.717,251.250 43.335 C 247.694 43.141,236.063 43.144,234.210 43.339 M252.250 44.071 C 256.579 44.342,257.169 44.503,259.201 45.962 C 259.961 46.509,261.046 47.197,261.611 47.493 C 262.988 48.214,263.088 48.345,264.643 51.417 C 266.804 55.689,267.088 58.108,265.767 61.000 C 265.411 61.779,264.840 63.228,264.498 64.219 C 263.838 66.129,263.375 66.794,262.333 67.331 C 261.505 67.757,261.229 68.114,260.313 69.940 L 259.502 71.558 259.896 72.237 C 260.112 72.611,260.490 73.542,260.735 74.306 C 261.196 75.743,261.704 76.686,262.525 77.631 C 263.138 78.337,263.684 79.446,264.157 80.946 C 264.422 81.788,264.781 82.449,265.370 83.179 C 268.791 87.425,267.853 89.373,262.336 89.473 C 258.227 89.549,257.071 89.174,256.392 87.550 C 256.268 87.254,255.830 86.632,255.418 86.168 C 254.489 85.122,254.169 84.502,253.503 82.452 C 253.093 81.190,252.811 80.641,252.224 79.958 C 251.293 78.875,251.021 78.345,250.343 76.293 C 249.704 74.358,249.466 74.126,247.715 73.737 C 245.761 73.302,243.031 73.631,242.562 74.358 C 242.482 74.482,242.379 77.514,242.333 81.097 L 242.250 87.610 241.801 88.198 C 240.255 90.224,232.951 89.905,231.936 87.768 C 231.687 87.241,231.667 85.400,231.706 66.541 L 231.750 45.891 232.230 45.261 C 232.816 44.492,233.405 44.232,235.013 44.031 C 236.961 43.787,248.143 43.813,252.250 44.071 M245.001 52.433 C 242.665 52.927,242.346 53.673,242.338 58.647 C 242.332 63.276,242.319 63.250,245.000 63.927 C 246.578 64.325,248.755 64.137,252.218 63.302 C 253.087 63.092,254.058 62.170,254.418 61.210 C 254.582 60.774,254.853 60.220,255.021 59.980 C 255.683 59.030,255.704 58.725,255.186 57.529 C 254.921 56.917,254.654 56.253,254.594 56.052 C 254.478 55.667,252.596 53.833,252.317 53.833 C 252.227 53.833,251.425 53.504,250.535 53.102 C 248.629 52.241,246.899 52.032,245.001 52.433 M250.660 54.519 C 253.056 55.116,253.212 55.258,253.640 57.245 L 253.962 58.740 253.559 60.328 C 253.014 62.481,253.005 62.488,250.309 62.780 C 246.861 63.153,244.350 62.848,243.546 61.958 C 243.154 61.525,243.096 55.903,243.478 55.443 C 243.761 55.102,245.358 54.179,245.965 54.005 C 246.691 53.797,248.605 54.007,250.660 54.519 M278.071 54.995 C 278.847 55.290,279.939 56.466,280.436 57.542 L 280.917 58.583 281.019 67.667 C 281.130 77.470,281.123 77.388,281.905 78.500 C 282.195 78.912,282.711 79.712,283.052 80.276 C 283.810 81.530,284.197 81.700,285.973 81.557 C 287.227 81.455,288.167 81.146,288.167 80.834 C 288.167 80.747,288.767 80.039,289.500 79.260 L 290.833 77.845 290.833 68.453 C 290.833 58.194,290.834 58.185,291.810 56.647 C 292.755 55.156,293.265 54.917,295.487 54.917 C 297.871 54.917,298.855 55.353,300.792 57.268 C 302.203 58.663,302.156 58.404,301.665 62.060 C 301.361 64.326,301.333 65.489,301.333 75.785 C 301.333 88.527,301.408 87.801,300.017 88.558 C 297.375 89.996,293.002 89.800,290.975 88.152 L 290.533 87.793 289.553 88.397 C 287.321 89.775,279.522 90.155,276.917 89.013 C 275.889 88.562,273.113 85.750,272.790 84.833 C 270.483 78.273,270.517 78.537,270.509 67.167 L 270.503 58.917 270.904 58.056 C 272.045 55.605,275.638 54.070,278.071 54.995 M68.184 99.271 C 69.110 100.386,67.554 102.167,65.655 102.167 C 64.711 102.167,64.138 100.157,64.862 99.386 C 65.331 98.887,67.795 98.802,68.184 99.271 " stroke="none" fill="#5c657e" fill-rule="evenodd"></path><path id="path4" d="M317.917 41.015 C 315.791 41.234,315.233 41.451,314.101 42.497 C 313.541 43.014,312.729 43.640,312.296 43.889 C 311.464 44.368,310.880 45.182,310.417 46.505 C 310.274 46.915,309.827 47.737,309.424 48.333 C 308.800 49.256,308.642 49.669,308.360 51.116 C 307.969 53.119,307.585 53.766,305.914 55.238 C 303.069 57.741,303.182 61.052,306.188 63.239 C 306.723 63.628,307.330 64.163,307.538 64.427 L 307.917 64.908 308.000 76.192 C 308.093 88.809,308.007 87.961,309.272 88.702 C 310.805 89.600,315.913 89.766,317.135 88.957 C 318.487 88.063,318.406 88.828,318.500 76.059 C 318.599 62.623,318.273 64.046,321.376 63.495 C 322.717 63.257,323.672 62.636,324.155 61.689 C 325.805 58.456,324.654 55.711,321.134 54.479 C 318.588 53.588,318.196 52.605,319.888 51.355 C 320.363 51.004,321.092 50.387,321.508 49.984 C 321.982 49.524,322.605 49.131,323.174 48.933 C 326.204 47.876,326.922 46.960,326.725 44.401 C 326.492 41.362,323.967 40.391,317.917 41.015 M341.750 40.930 C 338.128 41.433,337.958 41.498,336.482 42.923 C 335.868 43.515,335.294 44.000,335.206 44.000 C 334.145 44.000,333.149 45.950,332.228 49.831 C 331.540 52.736,331.166 53.255,328.462 55.063 C 325.231 57.225,325.398 61.599,328.780 63.377 C 329.405 63.706,330.217 64.235,330.583 64.552 L 331.250 65.128 331.333 76.303 L 331.417 87.478 331.917 88.004 C 334.113 90.316,340.551 89.914,341.601 87.400 C 341.792 86.944,341.833 84.901,341.833 76.037 C 341.833 65.344,341.837 65.226,342.178 64.860 C 342.678 64.323,343.772 63.666,344.909 63.220 C 346.569 62.570,347.094 62.103,347.835 60.624 C 348.991 58.314,348.242 56.839,344.979 55.001 C 342.679 53.705,342.187 52.863,343.006 51.627 C 344.144 49.909,344.627 49.527,346.250 49.065 C 348.914 48.306,349.500 47.536,349.500 44.798 C 349.499 42.398,349.009 41.545,347.404 41.151 C 346.698 40.977,342.568 40.816,341.750 40.930 M322.787 42.085 C 324.160 42.493,324.593 43.021,324.735 44.462 C 324.919 46.336,324.596 46.731,321.985 47.816 C 319.703 48.765,317.500 51.129,317.500 52.630 C 317.500 55.151,318.504 56.388,320.779 56.670 C 323.179 56.968,324.057 58.243,323.152 60.113 C 322.688 61.072,322.170 61.447,321.122 61.581 C 319.028 61.850,318.439 62.235,317.684 63.833 L 317.250 64.750 317.203 76.099 L 317.156 87.448 316.650 87.932 C 315.615 88.922,310.736 88.453,309.918 87.285 C 309.700 86.974,309.667 85.474,309.667 76.041 C 309.667 64.228,309.702 64.714,308.741 63.323 C 308.516 62.997,307.853 62.378,307.267 61.948 C 304.633 60.014,304.627 58.150,307.251 56.408 C 308.606 55.509,309.686 53.629,310.347 51.016 C 311.483 46.530,312.057 45.372,313.478 44.699 C 313.992 44.456,314.713 43.947,315.081 43.568 C 316.111 42.506,317.002 42.202,319.667 42.003 C 320.537 41.938,321.405 41.873,321.595 41.859 C 321.784 41.845,322.321 41.947,322.787 42.085 M345.905 42.106 C 347.876 42.468,348.089 42.679,348.243 44.431 C 348.432 46.584,348.175 46.911,345.833 47.499 C 344.222 47.903,343.398 48.377,342.727 49.285 C 342.470 49.632,341.913 50.329,341.488 50.833 C 340.350 52.184,340.267 52.392,340.497 53.309 C 340.978 55.222,341.720 55.978,343.733 56.604 C 347.209 57.685,346.956 60.470,343.249 61.917 C 339.858 63.240,340.001 62.627,339.998 75.928 C 339.996 84.326,339.946 87.015,339.789 87.333 C 339.040 88.845,334.469 88.952,333.439 87.481 C 333.194 87.131,333.167 86.000,333.167 76.124 C 333.167 64.240,333.198 64.675,332.247 63.428 C 331.972 63.067,331.260 62.571,330.320 62.086 C 327.145 60.445,326.541 57.986,329.042 56.879 C 332.470 55.363,333.073 54.524,333.502 50.672 C 333.861 47.457,334.509 45.975,335.903 45.189 C 336.403 44.907,337.193 44.337,337.660 43.923 C 339.037 42.700,340.250 42.199,342.320 42.001 C 344.272 41.814,344.323 41.815,345.905 42.106 M235.013 44.031 C 233.405 44.232,232.816 44.492,232.230 45.261 L 231.750 45.891 231.706 66.541 C 231.667 85.400,231.687 87.241,231.936 87.768 C 232.951 89.905,240.255 90.224,241.801 88.198 L 242.250 87.610 242.333 81.097 C 242.379 77.514,242.482 74.482,242.562 74.358 C 243.031 73.631,245.761 73.302,247.715 73.737 C 249.466 74.126,249.704 74.358,250.343 76.293 C 251.021 78.345,251.293 78.875,252.224 79.958 C 252.811 80.641,253.093 81.190,253.503 82.452 C 254.169 84.502,254.489 85.122,255.418 86.168 C 255.830 86.632,256.268 87.254,256.392 87.550 C 257.071 89.174,258.227 89.549,262.336 89.473 C 267.853 89.373,268.791 87.425,265.370 83.179 C 264.781 82.449,264.422 81.788,264.157 80.946 C 263.684 79.446,263.138 78.337,262.525 77.631 C 261.704 76.686,261.196 75.743,260.735 74.306 C 260.490 73.542,260.112 72.611,259.896 72.237 L 259.502 71.558 260.313 69.940 C 261.229 68.114,261.505 67.757,262.333 67.331 C 263.375 66.794,263.838 66.129,264.498 64.219 C 264.840 63.228,265.411 61.779,265.767 61.000 C 267.088 58.108,266.804 55.689,264.643 51.417 C 263.088 48.345,262.988 48.214,261.611 47.493 C 261.046 47.197,259.961 46.509,259.201 45.962 C 257.169 44.503,256.579 44.342,252.250 44.071 C 248.143 43.813,236.961 43.787,235.013 44.031 M254.083 45.311 C 255.847 45.594,255.892 45.610,256.940 46.392 C 257.477 46.792,258.682 47.510,259.617 47.988 C 261.871 49.139,262.070 49.315,262.837 50.841 C 264.244 53.640,264.991 58.008,264.342 59.648 C 264.147 60.142,263.761 61.567,263.486 62.815 C 262.926 65.348,262.722 65.734,261.627 66.335 C 260.581 66.909,260.235 67.244,259.391 68.500 C 258.990 69.096,258.426 69.900,258.137 70.286 C 257.363 71.321,257.429 71.767,258.546 73.076 C 259.326 73.990,259.555 74.413,259.925 75.626 C 260.463 77.389,260.983 78.444,261.587 79.000 C 262.288 79.645,262.745 80.470,263.157 81.831 C 263.627 83.387,263.959 84.028,264.836 85.076 C 267.017 87.683,266.465 88.353,262.049 88.456 C 258.182 88.546,258.152 88.532,257.113 86.147 C 256.888 85.631,256.444 84.919,256.124 84.563 C 255.425 83.785,255.005 82.970,254.500 81.417 C 253.994 79.861,253.637 79.178,252.854 78.274 C 252.428 77.781,251.982 76.947,251.575 75.884 C 250.383 72.761,249.517 72.270,245.277 72.312 C 243.047 72.335,242.252 72.627,241.554 73.681 L 241.083 74.392 241.000 80.942 L 240.917 87.493 240.455 87.955 C 239.647 88.762,234.718 88.529,233.574 87.630 L 233.167 87.309 233.167 66.764 C 233.167 43.155,232.941 45.845,234.965 45.303 C 236.290 44.948,251.864 44.955,254.083 45.311 M243.882 50.977 C 241.525 51.286,240.918 53.072,241.038 59.333 C 241.153 65.282,241.907 66.125,247.047 66.058 C 248.944 66.033,249.054 66.011,250.297 65.415 C 251.004 65.076,252.030 64.650,252.575 64.468 C 257.011 62.988,258.526 57.748,255.445 54.539 C 252.338 51.304,249.071 50.297,243.882 50.977 M250.535 53.102 C 251.425 53.504,252.227 53.833,252.317 53.833 C 252.596 53.833,254.478 55.667,254.594 56.052 C 254.654 56.253,254.921 56.917,255.186 57.529 C 255.704 58.725,255.683 59.030,255.021 59.980 C 254.853 60.220,254.582 60.774,254.418 61.210 C 254.058 62.170,253.087 63.092,252.218 63.302 C 247.125 64.529,243.643 64.329,242.668 62.752 C 242.138 61.895,242.172 55.502,242.713 54.182 C 243.592 52.041,247.110 51.555,250.535 53.102 M273.722 55.320 C 272.464 55.915,271.436 56.913,270.904 58.056 L 270.503 58.917 270.509 67.167 C 270.517 78.537,270.483 78.273,272.790 84.833 C 273.113 85.750,275.889 88.562,276.917 89.013 C 279.522 90.155,287.321 89.775,289.553 88.397 L 290.533 87.793 290.975 88.152 C 293.002 89.800,297.375 89.996,300.017 88.558 C 301.408 87.801,301.333 88.527,301.333 75.785 C 301.333 65.489,301.361 64.326,301.665 62.060 C 302.156 58.404,302.203 58.663,300.792 57.268 C 297.663 54.174,293.558 53.891,291.810 56.647 C 290.834 58.185,290.833 58.194,290.833 68.453 L 290.833 77.845 289.500 79.260 C 288.767 80.039,288.167 80.747,288.167 80.834 C 288.167 81.146,287.227 81.455,285.973 81.557 C 284.197 81.700,283.810 81.530,283.052 80.276 C 282.711 79.712,282.195 78.912,281.905 78.500 C 281.123 77.388,281.130 77.470,281.019 67.667 L 280.917 58.583 280.436 57.542 C 279.230 54.932,276.472 54.019,273.722 55.320 M278.072 57.091 C 278.288 57.233,278.680 57.658,278.941 58.035 L 279.417 58.721 279.500 68.319 C 279.596 79.358,279.437 78.305,281.374 80.739 C 282.841 82.583,283.358 82.833,285.698 82.833 C 288.055 82.833,288.398 82.680,290.210 80.815 C 292.457 78.501,292.237 79.784,292.333 68.417 L 292.417 58.583 292.808 57.954 C 293.944 56.126,297.564 56.446,298.958 58.497 L 299.333 59.049 299.333 72.988 C 299.333 88.564,299.432 87.348,298.114 88.034 C 296.169 89.046,293.465 88.624,291.932 87.068 C 290.561 85.677,290.354 85.683,288.720 87.169 C 287.371 88.396,284.242 88.894,280.333 88.505 C 277.814 88.255,277.408 88.101,276.571 87.079 C 276.213 86.642,275.527 85.994,275.046 85.639 C 273.777 84.702,273.530 84.015,272.897 79.667 C 272.620 77.761,272.351 60.910,272.574 59.422 C 272.881 57.375,276.296 55.927,278.072 57.091 " stroke="none" fill="#5c657e" fill-rule="evenodd"></path></g></svg>