<svg id="svg" version="1.1" xmlns="http://www.w3.org/2000/svg" xmlns:xlink="http://www.w3.org/1999/xlink" width="400" height="123.76237623762376" viewBox="0, 0, 400,123.76237623762376"><g id="svgg"><path id="path0" d="M49.083 27.762 C 48.442 27.881,47.167 28.027,46.250 28.086 C 42.066 28.355,38.656 29.988,37.563 32.245 L 37.000 33.407 37.003 37.162 C 37.004 39.227,37.061 41.004,37.129 41.111 C 37.220 41.254,39.356 41.325,45.085 41.375 C 50.745 41.424,53.020 41.498,53.290 41.643 C 54.336 42.204,54.534 45.161,53.554 45.587 C 53.387 45.660,47.169 45.764,39.738 45.818 L 26.225 45.917 25.569 46.351 C 25.208 46.590,24.731 46.843,24.510 46.913 C 24.290 46.983,23.765 47.356,23.346 47.740 C 22.927 48.125,22.347 48.604,22.058 48.803 C 21.446 49.226,20.638 50.580,20.282 51.778 C 20.145 52.238,19.857 52.945,19.642 53.349 L 19.250 54.083 19.250 62.250 L 19.250 70.417 19.708 71.349 C 19.960 71.862,20.167 72.393,20.167 72.528 C 20.167 72.663,20.496 73.444,20.898 74.262 C 22.547 77.614,24.884 78.815,29.780 78.827 C 32.902 78.835,32.665 79.162,32.577 74.969 C 32.522 72.387,32.563 71.363,32.753 70.544 C 32.889 69.959,33.001 69.203,33.002 68.865 C 33.012 65.810,36.195 61.742,39.041 61.147 C 39.523 61.046,40.292 60.766,40.750 60.524 L 41.583 60.083 52.417 60.000 L 63.250 59.917 64.167 59.460 C 64.671 59.209,65.197 59.003,65.337 59.002 C 66.077 58.997,69.000 56.187,69.000 55.480 C 69.000 55.304,69.225 54.739,69.500 54.223 L 70.000 53.286 70.000 43.823 L 70.000 34.359 69.607 33.888 C 69.391 33.629,69.080 33.155,68.916 32.836 C 68.559 32.141,66.825 30.167,66.570 30.167 C 66.471 30.167,66.059 29.950,65.654 29.684 C 65.248 29.419,64.583 29.147,64.176 29.081 C 63.769 29.014,63.019 28.812,62.509 28.632 C 62.000 28.452,60.721 28.200,59.667 28.074 C 58.612 27.947,57.262 27.767,56.667 27.675 C 55.180 27.444,50.505 27.498,49.083 27.762 M252.000 29.493 C 251.578 29.766,251.625 86.697,252.048 87.119 C 252.320 87.391,252.766 87.417,257.298 87.417 C 263.258 87.417,263.182 87.435,263.376 85.915 C 263.572 84.381,263.470 84.333,259.989 84.333 C 257.142 84.333,256.484 84.220,256.218 83.686 C 256.062 83.373,255.934 35.269,256.086 34.205 C 256.292 32.770,256.506 32.676,259.821 32.582 C 263.417 32.480,263.518 32.437,263.385 31.045 C 263.224 29.351,263.482 29.423,257.454 29.374 C 254.293 29.348,252.152 29.394,252.000 29.493 M361.833 29.667 C 361.569 29.931,361.500 30.222,361.500 31.077 C 361.500 32.508,361.538 32.525,364.979 32.604 C 368.063 32.674,368.248 32.706,368.542 33.220 C 368.766 33.611,368.960 80.991,368.745 82.805 C 368.567 84.304,368.495 84.333,365.032 84.333 C 361.425 84.333,361.424 84.334,361.530 85.808 C 361.571 86.375,361.685 86.918,361.783 87.016 C 362.446 87.679,372.312 87.686,372.848 87.023 C 373.299 86.466,373.355 30.045,372.905 29.595 C 372.451 29.142,362.293 29.207,361.833 29.667 M45.083 31.413 C 46.253 31.915,47.333 33.639,47.333 35.002 C 47.333 39.148,42.023 40.358,39.879 36.700 C 38.126 33.709,41.782 29.995,45.083 31.413 M160.917 43.170 C 159.681 43.505,157.866 44.216,157.333 44.574 C 157.012 44.790,156.563 45.022,156.333 45.090 C 155.340 45.384,154.148 46.217,153.831 46.837 C 152.685 49.084,151.113 48.594,150.913 45.929 C 150.771 44.025,150.833 44.081,148.708 43.950 C 147.308 43.864,147.151 43.884,146.997 44.172 C 146.727 44.677,146.854 77.873,147.127 78.202 C 147.330 78.446,149.005 78.467,150.118 78.239 C 150.785 78.103,150.831 77.411,150.836 67.500 C 150.841 57.658,151.002 54.614,151.565 53.754 C 151.709 53.535,151.967 52.984,152.140 52.529 C 152.455 51.701,154.237 49.167,154.505 49.167 C 154.584 49.167,155.169 48.717,155.807 48.167 C 156.444 47.617,157.060 47.167,157.175 47.167 C 157.290 47.167,157.804 46.960,158.317 46.708 C 159.223 46.263,159.330 46.250,162.000 46.257 L 164.750 46.265 165.684 46.798 C 166.808 47.441,169.340 50.019,169.647 50.833 C 169.767 51.154,170.025 51.792,170.220 52.250 C 170.568 53.068,170.576 53.310,170.662 65.500 C 170.711 72.329,170.811 78.010,170.885 78.125 C 171.171 78.568,174.483 78.401,174.660 77.935 C 174.744 77.714,174.826 72.853,174.845 67.060 C 174.888 53.308,175.108 52.008,177.750 49.840 C 178.025 49.615,178.514 49.164,178.836 48.840 C 179.750 47.919,180.493 47.418,181.667 46.928 C 183.450 46.184,183.772 46.133,186.235 46.203 L 188.583 46.269 189.720 46.922 C 190.850 47.571,192.031 48.757,192.548 49.762 C 192.693 50.044,192.924 50.368,193.062 50.482 C 193.199 50.596,193.363 50.928,193.425 51.220 C 193.487 51.511,193.736 52.163,193.977 52.667 L 194.417 53.583 194.500 65.833 C 194.546 72.571,194.632 78.158,194.692 78.250 C 194.754 78.345,195.583 78.415,196.607 78.413 L 198.413 78.409 198.548 77.496 C 198.622 76.994,198.660 71.446,198.633 65.167 L 198.583 53.750 198.209 52.938 C 198.003 52.491,197.764 51.688,197.677 51.153 C 197.588 50.600,197.336 49.907,197.094 49.551 C 196.859 49.205,196.666 48.809,196.666 48.670 C 196.666 48.531,196.505 48.154,196.310 47.833 C 196.114 47.512,195.871 47.015,195.769 46.728 C 195.458 45.854,193.803 44.792,191.000 43.669 C 189.020 42.876,186.172 42.735,184.500 43.346 C 183.996 43.531,183.246 43.782,182.833 43.903 C 180.578 44.569,179.164 45.470,177.148 47.526 C 174.557 50.168,174.286 50.152,172.500 47.250 C 172.179 46.729,171.625 46.103,171.269 45.860 C 169.418 44.593,169.168 44.469,166.000 43.241 C 165.352 42.990,161.766 42.939,160.917 43.170 M292.500 43.234 C 292.179 43.364,291.467 43.640,290.917 43.848 C 290.367 44.056,289.729 44.355,289.500 44.511 C 289.271 44.668,288.808 44.871,288.472 44.964 C 287.355 45.271,286.124 46.289,285.118 47.736 C 283.850 49.558,282.773 48.614,282.757 45.667 C 282.753 44.887,282.697 44.168,282.632 44.069 C 282.497 43.861,279.025 43.954,278.750 44.173 C 278.481 44.386,278.537 91.937,278.807 92.207 C 278.944 92.344,279.529 92.417,280.495 92.417 C 281.307 92.417,282.026 92.470,282.091 92.536 C 282.157 92.601,282.351 92.580,282.522 92.488 C 282.820 92.329,282.833 91.943,282.833 83.443 C 282.833 73.674,282.805 73.944,283.835 73.944 C 284.271 73.944,284.521 74.096,285.056 74.681 C 287.431 77.281,288.006 77.833,288.334 77.833 C 288.528 77.833,289.076 78.016,289.552 78.239 C 290.671 78.763,294.283 79.405,295.408 79.279 C 300.441 78.716,302.423 77.876,304.373 75.479 C 306.457 72.915,306.667 72.640,306.667 72.462 C 306.667 72.367,306.835 72.018,307.041 71.686 C 308.004 70.134,308.654 67.628,308.666 65.417 C 308.669 64.867,308.781 63.967,308.913 63.417 C 309.223 62.134,309.228 60.708,308.929 59.060 C 308.798 58.340,308.640 56.857,308.578 55.767 C 308.484 54.136,308.393 53.650,308.065 53.033 C 307.846 52.621,307.667 52.104,307.667 51.884 C 307.667 51.445,307.233 50.500,307.032 50.500 C 306.962 50.500,306.764 50.256,306.592 49.958 C 306.419 49.660,305.926 49.004,305.497 48.500 C 305.067 47.996,304.517 47.265,304.273 46.876 C 303.647 45.875,300.773 44.186,299.250 43.924 C 298.883 43.861,298.321 43.649,298.000 43.453 C 297.247 42.993,293.468 42.843,292.500 43.234 M209.625 44.119 C 209.373 44.158,209.167 44.211,209.167 44.238 C 209.167 44.735,209.575 46.138,209.820 46.482 C 209.999 46.732,210.196 47.157,210.258 47.427 C 210.321 47.696,210.549 48.181,210.766 48.504 C 210.983 48.827,211.269 49.427,211.403 49.838 C 211.536 50.248,211.956 51.408,212.335 52.417 C 212.715 53.425,213.091 54.611,213.171 55.052 C 213.263 55.560,213.502 56.065,213.825 56.432 C 214.105 56.751,214.333 57.153,214.333 57.326 C 214.333 57.499,214.518 57.860,214.743 58.128 C 214.969 58.397,215.224 58.929,215.310 59.311 C 215.396 59.694,215.579 60.179,215.717 60.390 C 216.035 60.876,216.974 63.662,217.175 64.716 C 217.259 65.155,217.516 65.762,217.747 66.065 C 217.978 66.367,218.167 66.707,218.167 66.819 C 218.167 66.932,218.384 67.450,218.649 67.970 C 220.232 71.079,220.890 72.696,221.166 74.161 C 221.261 74.663,221.516 75.338,221.733 75.661 C 221.950 75.985,222.172 76.494,222.226 76.793 C 222.281 77.092,222.494 77.565,222.701 77.844 C 223.215 78.539,223.184 79.410,222.615 80.232 C 222.369 80.588,222.167 81.084,222.167 81.334 C 222.167 81.587,221.946 82.065,221.667 82.417 C 221.360 82.803,221.167 83.241,221.167 83.550 C 221.167 84.868,219.284 87.678,217.943 88.362 C 217.568 88.554,217.059 88.860,216.813 89.042 C 216.447 89.312,215.990 89.392,214.308 89.478 L 212.250 89.583 212.202 90.766 C 212.132 92.474,213.277 92.903,216.167 92.249 C 216.854 92.093,217.867 91.873,218.417 91.759 C 220.397 91.349,222.012 90.251,222.565 88.938 C 222.686 88.651,223.125 88.040,223.541 87.579 C 224.275 86.766,225.022 85.010,225.419 83.168 C 225.488 82.848,225.713 82.361,225.920 82.085 C 226.127 81.809,226.352 81.323,226.420 81.005 C 226.571 80.292,227.423 78.575,227.928 77.964 C 228.134 77.715,228.355 77.190,228.419 76.797 C 228.483 76.405,228.671 75.858,228.838 75.583 C 229.004 75.308,229.289 74.521,229.471 73.833 C 229.919 72.140,230.589 70.362,230.915 70.002 C 231.062 69.839,231.263 69.416,231.360 69.061 C 231.458 68.707,231.672 68.228,231.835 67.998 C 231.998 67.768,232.215 67.272,232.317 66.895 C 232.418 66.518,232.641 66.032,232.812 65.813 C 232.983 65.595,233.237 64.892,233.376 64.250 C 233.632 63.066,234.246 61.401,234.822 60.324 C 234.997 59.998,235.190 59.461,235.252 59.130 C 235.314 58.799,235.542 58.362,235.757 58.160 C 235.973 57.957,236.199 57.557,236.259 57.271 C 236.320 56.984,236.522 56.499,236.708 56.192 C 236.895 55.885,237.149 55.152,237.272 54.564 C 237.395 53.976,237.638 53.214,237.811 52.872 C 237.984 52.530,238.182 51.987,238.251 51.667 C 238.320 51.346,238.592 50.679,238.855 50.185 C 239.118 49.691,239.333 49.199,239.333 49.092 C 239.333 48.985,239.521 48.644,239.750 48.333 C 239.979 48.023,240.167 47.569,240.167 47.324 C 240.167 47.080,240.354 46.604,240.583 46.266 C 241.554 44.835,241.122 44.207,239.063 44.061 C 237.388 43.942,237.380 43.946,236.960 45.167 C 236.511 46.470,235.805 48.073,235.553 48.359 C 235.419 48.511,235.202 48.995,235.070 49.434 C 234.938 49.873,234.674 50.398,234.484 50.600 C 234.295 50.802,234.098 51.293,234.047 51.692 C 233.996 52.091,233.853 52.618,233.729 52.864 C 233.605 53.110,233.321 53.860,233.098 54.530 C 232.353 56.772,231.813 58.080,231.491 58.425 C 231.315 58.612,231.123 59.025,231.064 59.341 C 231.004 59.658,230.788 60.142,230.583 60.418 C 230.378 60.694,230.156 61.182,230.089 61.502 C 230.022 61.822,229.825 62.332,229.650 62.636 C 229.475 62.940,229.214 63.760,229.069 64.459 C 228.925 65.158,228.672 65.997,228.507 66.323 C 228.343 66.650,227.693 67.958,227.062 69.231 C 225.824 71.732,225.534 72.035,224.753 71.643 C 224.271 71.401,224.231 71.338,223.206 69.167 C 222.838 68.387,222.305 67.262,222.022 66.667 C 221.340 65.229,220.500 62.901,220.500 62.447 C 220.500 62.247,220.284 61.633,220.020 61.083 C 219.755 60.533,219.399 59.789,219.228 59.430 C 218.678 58.275,218.592 58.102,218.042 57.018 C 217.744 56.432,217.500 55.845,217.500 55.712 C 217.500 55.580,217.275 54.910,217.000 54.224 C 216.725 53.537,216.500 52.780,216.500 52.542 C 216.500 52.143,215.922 50.741,215.177 49.333 C 214.246 47.576,213.669 46.309,213.393 45.419 C 212.971 44.060,212.071 43.749,209.625 44.119 M317.667 44.253 C 317.667 44.367,317.770 44.545,317.895 44.649 C 318.021 44.753,318.161 45.168,318.206 45.571 C 318.252 45.973,318.441 46.517,318.627 46.778 C 318.813 47.039,319.047 47.552,319.146 47.918 C 319.245 48.284,319.509 48.851,319.732 49.178 C 319.955 49.505,320.227 50.105,320.336 50.511 C 320.446 50.918,320.654 51.475,320.799 51.750 C 320.944 52.025,321.116 52.687,321.181 53.222 C 321.254 53.818,321.426 54.333,321.627 54.555 C 321.807 54.754,322.029 55.142,322.120 55.417 C 322.212 55.692,322.485 56.209,322.727 56.565 C 322.969 56.922,323.167 57.333,323.167 57.479 C 323.167 57.626,323.350 58.121,323.574 58.581 C 324.477 60.435,325.043 61.935,325.158 62.783 C 325.224 63.275,325.436 63.890,325.628 64.150 C 325.819 64.409,326.029 64.899,326.092 65.239 C 326.156 65.579,326.376 66.058,326.581 66.304 C 326.787 66.549,327.011 66.938,327.080 67.167 C 327.149 67.396,327.383 67.921,327.599 68.333 C 328.286 69.643,328.959 71.384,329.178 72.417 C 329.295 72.967,329.517 73.604,329.672 73.833 C 329.827 74.063,330.008 74.547,330.074 74.909 C 330.140 75.272,330.374 75.781,330.593 76.042 C 330.812 76.302,331.076 76.828,331.179 77.211 C 331.282 77.594,331.471 78.057,331.600 78.241 C 331.920 78.697,331.893 79.236,331.513 79.967 C 330.812 81.318,330.173 82.776,330.074 83.250 C 329.733 84.889,327.575 88.129,326.623 88.431 C 326.420 88.495,325.975 88.732,325.634 88.958 C 325.096 89.314,324.774 89.379,323.215 89.444 C 320.502 89.558,320.667 89.468,320.667 90.831 C 320.667 92.534,322.230 92.909,325.750 92.051 C 326.575 91.850,327.518 91.643,327.845 91.591 C 328.173 91.539,328.694 91.309,329.003 91.081 C 329.312 90.853,329.662 90.667,329.781 90.667 C 329.900 90.667,330.410 90.109,330.914 89.427 C 331.418 88.746,331.903 88.144,331.990 88.089 C 332.262 87.921,333.110 86.118,333.236 85.438 C 333.302 85.083,333.534 84.446,333.751 84.021 C 334.366 82.822,335.110 81.144,335.319 80.485 C 335.423 80.156,335.694 79.635,335.921 79.328 C 336.148 79.020,336.333 78.651,336.333 78.506 C 336.333 78.362,336.525 77.963,336.758 77.619 C 337.016 77.240,337.222 76.650,337.282 76.122 C 337.336 75.642,337.516 74.979,337.682 74.647 C 337.848 74.316,338.075 73.678,338.186 73.231 C 338.297 72.783,338.778 71.656,339.255 70.726 C 339.731 69.796,340.174 68.821,340.238 68.559 C 340.302 68.298,340.536 67.818,340.758 67.495 C 340.980 67.171,341.236 66.513,341.327 66.032 C 341.418 65.551,341.575 65.004,341.676 64.816 C 341.777 64.628,341.974 64.086,342.115 63.612 C 342.255 63.138,342.550 62.413,342.769 62.001 C 342.987 61.590,343.167 61.142,343.167 61.007 C 343.167 60.726,344.411 58.123,344.844 57.500 C 345.003 57.271,345.175 56.736,345.227 56.311 C 345.279 55.886,345.469 55.286,345.649 54.978 C 345.828 54.669,346.024 54.117,346.082 53.750 C 346.199 53.020,347.198 50.694,347.715 49.945 C 347.895 49.686,348.111 49.161,348.196 48.779 C 348.281 48.396,348.545 47.802,348.782 47.458 C 349.157 46.912,349.201 46.715,349.120 45.926 C 349.033 45.089,349.054 45.016,349.388 44.968 C 350.049 44.874,349.973 44.152,349.304 44.167 C 348.999 44.173,348.207 44.128,347.544 44.067 C 346.294 43.951,345.833 44.100,345.833 44.617 C 345.833 44.897,345.051 46.784,344.327 48.250 C 344.055 48.800,343.833 49.334,343.833 49.436 C 343.833 49.538,343.675 49.823,343.481 50.070 C 343.287 50.316,343.024 50.864,342.897 51.288 C 342.769 51.712,342.557 52.178,342.425 52.324 C 342.293 52.470,342.102 52.963,342.001 53.419 C 341.758 54.515,340.922 56.942,340.411 58.040 C 340.187 58.522,340.002 59.029,340.001 59.167 C 340.000 59.304,339.774 59.754,339.500 60.167 C 339.226 60.579,339.000 61.029,338.998 61.167 C 338.996 61.304,338.770 61.747,338.497 62.150 C 338.151 62.660,338.000 63.086,338.000 63.547 C 338.000 63.912,337.857 64.445,337.683 64.730 C 337.508 65.016,337.250 65.641,337.110 66.119 C 336.970 66.597,336.483 67.767,336.029 68.720 C 335.576 69.673,335.149 70.632,335.082 70.851 C 334.519 72.694,333.216 72.188,332.043 69.671 C 331.636 68.798,331.123 67.708,330.905 67.250 C 330.375 66.141,329.407 63.598,329.166 62.682 C 329.060 62.278,328.872 61.790,328.749 61.598 C 328.625 61.407,328.471 60.950,328.405 60.583 C 328.339 60.217,328.115 59.712,327.907 59.462 C 327.699 59.212,327.476 58.762,327.412 58.462 C 327.348 58.162,327.120 57.579,326.906 57.167 C 326.202 55.816,325.627 54.444,325.332 53.412 C 325.173 52.854,324.930 52.177,324.794 51.907 C 324.658 51.637,324.504 51.086,324.452 50.683 C 324.400 50.279,324.198 49.733,324.003 49.468 C 323.807 49.204,323.541 48.685,323.411 48.316 C 323.280 47.947,323.022 47.452,322.837 47.217 C 322.652 46.981,322.500 46.683,322.500 46.554 C 322.500 46.259,321.495 44.293,321.259 44.125 C 320.948 43.905,317.667 44.022,317.667 44.253 M74.595 45.429 C 74.387 45.637,74.333 46.089,74.333 47.627 C 74.333 54.793,72.844 59.916,70.250 61.678 C 67.990 63.213,65.529 63.957,62.000 64.172 C 60.762 64.247,58.288 64.403,56.500 64.519 C 54.712 64.634,52.500 64.720,51.583 64.708 C 50.667 64.696,48.117 64.664,45.917 64.635 L 41.917 64.583 40.781 65.229 C 36.964 67.397,36.917 67.595,36.917 81.333 L 36.917 90.250 37.485 91.463 C 37.831 92.201,38.298 92.887,38.677 93.213 C 39.358 93.800,40.707 94.667,40.940 94.667 C 41.020 94.667,41.423 94.842,41.835 95.056 C 42.246 95.270,43.183 95.578,43.917 95.741 C 44.650 95.903,45.713 96.174,46.279 96.342 C 49.465 97.290,58.360 97.102,62.750 95.994 C 66.819 94.967,67.868 94.373,69.295 92.286 L 70.083 91.132 70.127 87.024 C 70.151 84.765,70.105 82.816,70.024 82.692 C 69.905 82.511,68.775 82.470,64.147 82.477 C 52.569 82.497,51.969 82.355,52.682 79.772 C 53.022 78.540,52.470 78.589,66.667 78.540 C 74.952 78.511,79.421 78.436,79.750 78.321 C 80.025 78.224,80.639 78.080,81.114 78.000 C 83.230 77.644,86.224 74.496,87.295 71.500 C 87.676 70.434,88.167 67.846,88.167 66.902 C 88.167 66.544,88.279 65.662,88.417 64.944 C 88.703 63.450,88.737 60.919,88.493 59.333 C 88.402 58.737,88.248 57.575,88.150 56.750 C 87.827 53.998,87.371 52.069,86.734 50.750 C 85.923 49.071,82.931 45.891,82.022 45.741 C 81.689 45.686,81.085 45.534,80.679 45.404 C 79.579 45.050,74.955 45.069,74.595 45.429 M105.500 45.790 C 104.996 45.825,104.519 45.916,104.441 45.994 C 104.236 46.196,104.263 52.020,104.469 52.147 C 104.733 52.311,109.349 52.218,109.521 52.045 C 109.869 51.698,109.764 45.956,109.407 45.817 C 109.080 45.689,107.189 45.676,105.500 45.790 M298.456 46.591 C 298.937 46.805,299.911 47.512,300.623 48.164 C 301.335 48.816,302.158 49.570,302.453 49.840 C 303.404 50.712,304.212 52.151,304.366 53.246 C 304.443 53.794,304.666 54.544,304.861 54.913 C 305.787 56.657,305.818 65.608,304.905 67.381 C 304.679 67.819,304.447 68.629,304.389 69.179 C 304.155 71.421,300.984 74.750,298.167 75.712 C 297.754 75.853,297.117 76.085,296.750 76.227 C 296.325 76.392,295.541 76.485,294.583 76.485 C 293.626 76.485,292.842 76.392,292.417 76.227 C 292.050 76.085,291.412 75.857,291.000 75.721 C 287.279 74.495,284.491 71.008,283.738 66.642 C 283.324 64.239,283.229 59.088,283.562 57.132 C 283.711 56.257,283.833 55.281,283.833 54.961 C 283.833 54.642,284.048 53.976,284.311 53.482 C 284.573 52.988,284.846 52.396,284.916 52.167 C 285.267 51.026,288.473 47.808,290.247 46.816 C 291.876 45.904,296.624 45.774,298.456 46.591 M104.485 72.515 C 104.188 72.812,104.223 77.793,104.526 78.375 C 104.698 78.705,108.839 78.816,109.333 78.504 C 109.686 78.281,109.805 72.823,109.464 72.539 C 109.074 72.215,104.805 72.195,104.485 72.515 M64.458 85.761 C 68.241 86.535,67.247 93.064,63.346 93.064 C 61.474 93.064,59.346 91.039,59.339 89.250 C 59.335 88.252,60.782 86.035,61.464 85.993 C 61.530 85.989,61.958 85.883,62.417 85.758 C 62.875 85.633,63.419 85.561,63.625 85.599 C 63.831 85.636,64.206 85.709,64.458 85.761 " stroke="none" fill="#5c657e" fill-rule="evenodd"></path><path id="path1" d="M0.000 61.833 L 0.000 123.667 200.000 123.667 L 400.000 123.667 400.000 61.833 L 400.000 0.000 200.000 0.000 L 0.000 0.000 0.000 61.833 M59.167 26.648 C 60.496 26.824,61.883 27.081,62.250 27.220 C 62.617 27.358,63.137 27.520,63.405 27.580 C 65.916 28.137,69.097 30.541,70.142 32.672 L 70.676 33.760 70.630 44.255 L 70.583 54.750 69.904 56.167 C 68.642 58.800,66.048 60.581,62.955 60.937 C 62.384 61.003,57.492 61.062,52.083 61.070 L 42.250 61.083 40.667 61.689 C 39.796 62.021,38.862 62.382,38.591 62.489 C 37.118 63.073,35.556 64.981,34.552 67.423 L 33.938 68.917 33.865 73.992 L 33.791 79.068 33.339 79.520 C 32.753 80.106,31.881 80.233,29.191 80.125 C 23.551 79.899,20.383 77.430,18.446 71.750 C 17.970 70.354,17.803 55.362,18.244 53.638 C 19.995 46.804,24.740 44.159,33.774 44.980 C 35.768 45.162,46.330 44.982,50.721 44.692 C 52.831 44.552,52.993 44.477,52.997 43.631 C 53.002 42.782,52.873 42.768,44.583 42.706 C 39.944 42.671,36.744 42.582,36.480 42.480 C 35.734 42.191,35.667 41.776,35.667 37.474 L 35.667 33.463 36.277 32.229 C 37.243 30.273,40.837 27.545,42.515 27.493 C 42.644 27.489,43.050 27.374,43.417 27.239 C 43.783 27.103,45.096 26.877,46.333 26.736 C 47.571 26.595,49.108 26.414,49.750 26.334 C 51.474 26.118,56.405 26.282,59.167 26.648 M263.952 28.772 C 264.399 29.105,264.418 29.180,264.464 30.778 C 264.530 33.117,264.012 33.448,259.981 33.645 C 258.458 33.719,257.622 33.830,257.439 33.981 C 257.043 34.310,257.017 82.379,257.413 82.944 C 257.643 83.273,257.842 83.300,260.538 83.369 C 264.491 83.470,264.667 83.583,264.667 86.019 C 264.667 88.145,264.603 88.188,260.963 88.512 C 256.585 88.902,251.893 88.547,251.229 87.775 C 250.618 87.064,250.583 85.548,250.583 59.583 C 250.583 26.985,250.479 28.578,252.631 28.447 C 256.374 28.221,263.486 28.425,263.952 28.772 M373.453 28.662 C 374.282 29.211,374.250 28.023,374.250 58.417 C 374.250 90.436,374.361 87.726,373.031 88.283 C 371.718 88.833,363.093 88.730,361.207 88.142 C 360.464 87.911,360.333 87.581,360.333 85.941 C 360.333 83.533,360.456 83.453,364.333 83.365 C 366.524 83.314,367.143 83.249,367.375 83.042 C 367.650 82.796,367.667 81.414,367.667 58.484 L 367.667 34.186 367.296 33.926 C 367.015 33.729,366.479 33.667,365.064 33.667 C 361.336 33.667,360.333 33.070,360.333 30.852 C 360.333 28.998,360.524 28.700,361.838 28.502 C 363.514 28.249,373.029 28.380,373.453 28.662 M42.056 32.773 C 39.774 34.252,40.755 37.665,43.464 37.666 C 46.419 37.667,47.240 33.708,44.521 32.569 C 43.656 32.206,42.823 32.275,42.056 32.773 M166.523 42.240 C 169.240 42.816,172.208 44.729,173.784 46.921 C 174.766 48.285,174.668 48.304,176.626 46.358 C 179.927 43.075,183.106 41.870,188.000 42.046 C 193.916 42.259,197.489 45.366,199.065 51.667 L 199.502 53.417 199.501 66.023 C 199.500 81.033,199.818 79.389,196.895 79.474 C 194.701 79.537,193.822 79.359,193.531 78.794 C 193.391 78.521,193.322 75.130,193.280 66.500 C 193.217 53.250,193.216 53.243,192.017 50.866 C 189.362 45.608,180.356 46.574,177.286 52.447 C 176.049 54.814,175.961 55.740,175.846 67.667 C 175.720 80.719,176.064 79.608,172.199 79.475 C 169.089 79.369,169.339 80.568,169.327 65.667 C 169.318 54.350,169.271 53.472,168.578 51.642 C 166.145 45.214,155.748 46.400,153.055 53.414 C 152.307 55.360,152.295 55.553,152.188 67.167 C 152.107 75.839,152.035 78.502,151.870 78.790 C 151.574 79.309,151.044 79.417,148.796 79.417 C 145.444 79.417,145.667 80.714,145.667 61.186 C 145.667 41.427,145.407 42.833,149.063 42.833 C 151.648 42.833,151.997 43.025,152.114 44.510 C 152.272 46.523,152.369 46.559,153.990 45.198 C 155.317 44.083,158.133 42.631,159.500 42.355 C 160.004 42.253,160.567 42.140,160.750 42.104 C 161.614 41.934,165.512 42.026,166.523 42.240 M299.333 42.575 C 305.366 44.548,309.343 50.164,310.196 57.917 C 310.592 61.510,310.332 65.656,309.566 67.945 C 309.346 68.602,309.167 69.274,309.167 69.440 C 309.167 70.714,305.924 75.861,304.189 77.340 C 298.728 81.997,289.897 81.600,284.965 76.476 C 283.611 75.069,283.620 75.022,283.537 84.650 L 283.466 92.882 283.087 93.262 C 282.724 93.624,282.618 93.638,280.729 93.562 C 277.812 93.446,277.683 93.414,277.404 92.745 C 277.117 92.059,277.041 44.518,277.326 43.770 C 277.623 42.987,278.063 42.857,280.565 42.812 C 283.380 42.762,283.489 42.830,283.517 44.643 C 283.551 46.903,283.850 47.089,285.262 45.729 C 287.096 43.964,289.794 42.613,292.500 42.106 C 293.904 41.843,297.942 42.121,299.333 42.575 M213.457 43.088 C 213.878 43.384,214.484 44.526,214.914 45.837 C 215.079 46.339,215.653 47.733,216.190 48.934 C 216.727 50.136,217.167 51.222,217.167 51.348 C 217.167 51.475,217.344 51.955,217.561 52.414 C 218.279 53.939,218.543 54.574,218.839 55.500 C 219.000 56.004,219.486 57.242,219.919 58.250 C 220.352 59.258,220.872 60.533,221.075 61.083 C 221.277 61.633,221.568 62.323,221.722 62.617 C 221.875 62.910,222.000 63.230,222.000 63.327 C 222.000 63.424,222.143 63.822,222.319 64.210 C 223.223 66.215,223.970 67.962,224.081 68.333 C 224.880 71.018,225.500 70.370,227.830 64.417 C 228.116 63.683,228.563 62.596,228.822 62.000 C 229.081 61.404,229.830 59.529,230.486 57.833 C 231.143 56.137,231.792 54.546,231.930 54.297 C 232.067 54.047,232.283 53.522,232.409 53.130 C 232.637 52.424,233.216 50.951,233.836 49.500 C 234.012 49.087,234.505 47.850,234.931 46.750 C 236.427 42.892,236.493 42.833,239.360 42.833 C 242.277 42.833,242.802 43.120,242.260 44.418 C 242.138 44.711,241.984 45.280,241.919 45.684 C 241.854 46.087,241.694 46.586,241.562 46.794 C 241.430 47.001,241.184 47.601,241.014 48.127 C 240.844 48.653,240.461 49.683,240.163 50.417 C 239.864 51.150,239.441 52.200,239.221 52.750 C 239.002 53.300,238.637 54.099,238.411 54.525 C 238.185 54.951,238.000 55.428,238.000 55.586 C 238.000 55.744,237.691 56.558,237.314 57.395 C 236.937 58.232,236.384 59.592,236.086 60.417 C 235.789 61.242,235.374 62.329,235.166 62.833 C 234.957 63.337,234.604 64.200,234.382 64.750 C 234.159 65.300,233.757 66.192,233.489 66.732 C 233.220 67.272,233.000 67.817,233.000 67.944 C 233.000 68.070,232.768 68.679,232.484 69.295 C 232.200 69.912,231.710 71.155,231.396 72.058 C 231.081 72.961,230.639 74.048,230.412 74.474 C 230.185 74.899,230.000 75.360,229.999 75.499 C 229.998 75.637,229.878 75.975,229.731 76.250 C 229.584 76.525,229.323 77.154,229.150 77.649 C 228.977 78.143,228.761 78.636,228.671 78.745 C 228.580 78.854,228.248 79.650,227.933 80.513 C 227.618 81.377,227.055 82.768,226.680 83.606 C 226.306 84.443,226.000 85.232,226.000 85.359 C 226.000 85.486,225.823 85.850,225.607 86.170 C 225.391 86.489,225.155 86.938,225.083 87.167 C 224.587 88.742,222.172 91.553,220.638 92.340 C 218.348 93.515,212.161 94.009,211.242 93.091 C 210.250 92.098,210.805 88.364,211.951 88.323 C 217.535 88.123,218.494 87.429,220.804 81.917 C 222.000 79.065,222.002 78.458,220.830 76.161 C 220.649 75.805,220.498 75.417,220.495 75.298 C 220.492 75.180,220.267 74.635,219.995 74.088 C 219.723 73.540,219.500 73.006,219.500 72.900 C 219.500 72.795,219.170 71.996,218.766 71.126 C 218.362 70.256,217.845 69.028,217.617 68.397 C 217.226 67.313,217.008 66.795,216.064 64.705 C 215.845 64.221,215.667 63.731,215.667 63.615 C 215.667 63.499,215.510 63.107,215.319 62.744 C 215.127 62.380,214.678 61.275,214.320 60.287 C 213.962 59.299,213.509 58.177,213.313 57.794 C 212.895 56.974,212.102 55.096,211.677 53.917 C 211.511 53.458,211.221 52.783,211.033 52.417 C 210.705 51.782,209.640 49.033,208.675 46.333 C 208.429 45.645,208.094 44.877,207.929 44.626 C 207.599 44.123,207.664 43.526,208.095 43.095 C 208.473 42.717,212.919 42.712,213.457 43.088 M322.241 43.208 C 322.619 43.541,324.047 46.731,325.168 49.750 C 325.338 50.208,325.715 51.146,326.005 51.833 C 327.009 54.209,328.032 56.752,328.251 57.417 C 328.372 57.783,328.712 58.646,329.007 59.333 C 329.302 60.021,329.750 61.108,330.005 61.750 C 332.838 68.905,333.404 70.090,333.898 69.901 C 334.113 69.818,335.500 67.126,335.500 66.792 C 335.500 66.680,335.683 66.212,335.907 65.752 C 336.494 64.548,337.333 62.555,337.333 62.366 C 337.333 62.277,337.550 61.727,337.815 61.144 C 338.079 60.561,338.797 58.771,339.411 57.167 C 340.024 55.563,340.669 53.950,340.845 53.583 C 341.021 53.217,341.322 52.504,341.514 52.000 C 342.395 49.687,342.683 48.964,343.408 47.250 C 343.834 46.242,344.335 45.023,344.520 44.541 C 345.101 43.034,345.527 42.833,348.152 42.833 C 351.183 42.833,351.514 43.171,350.679 45.417 C 349.165 49.489,348.250 51.789,346.635 55.583 C 346.362 56.225,346.035 57.071,345.909 57.463 C 345.783 57.856,345.564 58.381,345.422 58.630 C 345.281 58.879,344.910 59.796,344.599 60.667 C 344.288 61.538,343.763 62.862,343.433 63.610 C 343.103 64.359,342.833 65.044,342.833 65.133 C 342.833 65.223,342.602 65.811,342.320 66.440 C 341.378 68.540,339.667 72.807,339.667 73.056 C 339.667 73.143,339.520 73.522,339.342 73.898 C 338.697 75.256,338.000 76.977,338.000 77.211 C 338.000 77.343,337.809 77.810,337.576 78.248 C 337.183 78.987,336.000 81.870,336.000 82.089 C 336.000 82.437,333.498 87.610,332.724 88.860 C 330.502 92.454,328.287 93.500,322.906 93.500 L 320.308 93.500 319.821 93.013 C 319.347 92.539,319.333 92.479,319.333 90.855 C 319.333 88.440,319.418 88.362,322.167 88.224 C 324.915 88.087,325.680 87.807,326.898 86.491 C 327.747 85.574,329.500 82.496,329.500 81.922 C 329.500 81.805,329.677 81.305,329.893 80.812 C 330.478 79.480,330.537 78.878,330.177 77.917 C 330.006 77.458,329.683 76.590,329.459 75.986 C 329.235 75.382,328.932 74.670,328.787 74.403 C 328.326 73.555,327.705 72.054,327.579 71.480 C 327.512 71.175,327.242 70.502,326.979 69.984 C 326.715 69.466,326.500 68.994,326.500 68.936 C 326.500 68.812,325.264 65.812,324.912 65.083 C 324.779 64.808,324.563 64.283,324.431 63.917 C 324.300 63.550,323.918 62.612,323.583 61.833 C 323.248 61.054,322.789 59.929,322.562 59.333 C 321.837 57.426,321.134 55.756,320.969 55.551 C 320.881 55.442,320.671 54.917,320.503 54.385 C 320.335 53.852,319.768 52.442,319.242 51.250 C 318.717 50.058,317.989 48.258,317.626 47.250 C 317.262 46.242,316.858 45.127,316.727 44.773 C 316.474 44.091,316.544 43.601,316.962 43.125 C 317.398 42.628,321.658 42.695,322.241 43.208 M81.966 44.804 C 84.473 45.879,86.786 48.240,87.605 50.560 C 87.733 50.924,87.911 51.310,88.001 51.418 C 88.155 51.603,88.506 52.806,89.072 55.083 C 89.698 57.601,89.965 62.609,89.600 64.988 C 89.453 65.943,89.333 67.074,89.333 67.500 C 89.333 67.927,89.146 68.812,88.917 69.468 C 88.688 70.124,88.500 70.809,88.500 70.990 C 88.500 72.936,84.232 78.166,82.298 78.591 C 82.004 78.656,81.423 78.868,81.007 79.063 C 80.261 79.412,80.066 79.418,67.317 79.500 C 53.292 79.590,53.833 79.550,53.833 80.500 C 53.833 81.467,54.227 81.515,63.140 81.646 C 71.771 81.773,70.744 81.171,70.896 86.196 C 71.072 92.005,70.392 93.880,67.605 95.276 C 67.135 95.512,66.637 95.799,66.500 95.913 C 65.601 96.665,61.754 97.566,58.167 97.867 C 49.341 98.607,42.456 97.342,38.380 94.233 C 37.675 93.695,36.650 92.179,36.086 90.839 L 35.640 89.780 35.627 81.015 L 35.614 72.250 36.046 70.308 C 36.705 67.350,37.421 66.191,39.430 64.828 C 41.636 63.332,40.885 63.434,50.000 63.402 C 55.197 63.384,58.351 63.308,58.833 63.191 C 59.246 63.090,60.446 63.005,61.500 63.001 C 70.519 62.966,73.128 59.347,73.162 46.824 C 73.169 44.172,73.191 44.160,77.750 44.234 C 80.689 44.282,80.775 44.294,81.966 44.804 M110.285 45.438 L 110.750 45.786 110.797 48.768 C 110.869 53.266,110.956 53.165,106.987 53.166 C 103.460 53.167,103.603 53.317,103.530 49.534 C 103.450 45.365,103.477 45.295,105.202 45.143 C 107.630 44.930,109.770 45.054,110.285 45.438 M292.667 47.496 C 289.498 47.833,285.823 51.507,285.242 54.917 C 285.180 55.283,284.988 56.107,284.815 56.747 C 283.999 59.763,284.510 65.926,285.856 69.292 C 288.546 76.023,297.486 77.326,301.795 71.615 C 302.655 70.474,303.667 68.550,303.667 68.055 C 303.667 67.838,303.862 67.118,304.102 66.455 C 304.709 64.773,304.770 58.141,304.195 56.333 C 304.005 55.737,303.770 54.893,303.674 54.456 C 303.200 52.322,300.659 49.156,298.568 48.098 C 297.244 47.427,295.238 47.223,292.667 47.496 M109.872 71.440 C 110.718 71.871,110.833 72.365,110.833 75.561 C 110.833 78.817,110.815 78.915,110.155 79.256 C 109.503 79.593,104.545 79.608,104.088 79.274 C 103.265 78.672,103.277 72.169,104.103 71.484 C 104.689 70.997,108.940 70.965,109.872 71.440 M62.667 86.615 C 60.366 87.431,59.990 90.108,61.987 91.454 C 63.814 92.685,66.353 90.853,65.932 88.608 C 65.703 87.388,63.786 86.218,62.667 86.615 " stroke="none" fill="#1e2129" fill-rule="evenodd"></path><path id="path2" d="M49.750 26.334 C 49.108 26.414,47.571 26.595,46.333 26.736 C 45.096 26.877,43.783 27.103,43.417 27.239 C 43.050 27.374,42.644 27.489,42.515 27.493 C 40.837 27.545,37.243 30.273,36.277 32.229 L 35.667 33.463 35.667 37.474 C 35.667 41.776,35.734 42.191,36.480 42.480 C 36.744 42.582,39.944 42.671,44.583 42.706 C 52.873 42.768,53.002 42.782,52.997 43.631 C 52.993 44.477,52.831 44.552,50.721 44.692 C 46.330 44.982,35.768 45.162,33.774 44.980 C 24.740 44.159,19.995 46.804,18.244 53.638 C 17.803 55.362,17.970 70.354,18.446 71.750 C 20.383 77.430,23.551 79.899,29.191 80.125 C 31.881 80.233,32.753 80.106,33.339 79.520 L 33.791 79.068 33.865 73.992 L 33.938 68.917 34.552 67.423 C 35.556 64.981,37.118 63.073,38.591 62.489 C 38.862 62.382,39.796 62.021,40.667 61.689 L 42.250 61.083 52.083 61.070 C 57.492 61.062,62.384 61.003,62.955 60.937 C 66.048 60.581,68.642 58.800,69.904 56.167 L 70.583 54.750 70.630 44.255 L 70.676 33.760 70.142 32.672 C 69.097 30.541,65.916 28.137,63.405 27.580 C 63.137 27.520,62.617 27.358,62.250 27.220 C 60.493 26.555,52.501 25.989,49.750 26.334 M57.000 26.996 C 57.596 27.080,58.918 27.263,59.938 27.404 C 64.705 28.061,68.029 29.953,69.669 32.941 L 70.333 34.151 70.333 43.899 L 70.333 53.648 69.744 55.111 C 68.758 57.555,67.441 58.856,64.922 59.872 L 63.583 60.412 52.750 60.500 C 42.088 60.585,41.903 60.593,41.083 60.949 C 40.625 61.149,39.772 61.480,39.187 61.684 C 36.732 62.544,35.043 64.406,33.829 67.593 C 33.449 68.590,33.165 72.484,33.276 75.172 C 33.459 79.613,33.471 79.599,29.333 79.447 C 23.826 79.245,21.430 77.626,19.512 72.812 C 18.666 70.690,18.651 70.484,18.702 61.744 L 18.750 53.583 19.455 51.939 C 20.659 49.133,21.955 47.697,24.572 46.270 C 26.173 45.396,27.157 45.324,35.750 45.446 C 45.140 45.580,52.752 45.307,53.250 44.818 C 53.735 44.342,53.709 43.135,53.204 42.630 L 52.824 42.250 44.897 42.167 L 36.970 42.083 36.652 41.690 C 36.358 41.327,36.333 40.986,36.333 37.352 L 36.333 33.407 36.892 32.245 C 38.042 29.851,42.209 27.541,45.469 27.490 C 45.807 27.485,46.946 27.344,48.000 27.177 C 50.135 26.839,55.157 26.738,57.000 26.996 M252.631 28.447 C 250.479 28.578,250.583 26.985,250.583 59.583 C 250.583 85.548,250.618 87.064,251.229 87.775 C 251.893 88.547,256.585 88.902,260.963 88.512 C 264.603 88.188,264.667 88.145,264.667 86.019 C 264.667 83.583,264.491 83.470,260.538 83.369 C 257.842 83.300,257.643 83.273,257.413 82.944 C 257.017 82.379,257.043 34.310,257.439 33.981 C 257.622 33.830,258.458 33.719,259.981 33.645 C 264.012 33.448,264.530 33.117,264.464 30.778 C 264.394 28.304,264.707 28.431,258.619 28.403 C 255.941 28.390,253.247 28.410,252.631 28.447 M361.838 28.502 C 360.524 28.700,360.333 28.998,360.333 30.852 C 360.333 33.070,361.336 33.667,365.064 33.667 C 366.479 33.667,367.015 33.729,367.296 33.926 L 367.667 34.186 367.667 58.484 C 367.667 81.414,367.650 82.796,367.375 83.042 C 367.143 83.249,366.524 83.314,364.333 83.365 C 360.456 83.453,360.333 83.533,360.333 85.941 C 360.333 87.581,360.464 87.911,361.207 88.142 C 363.093 88.730,371.718 88.833,373.031 88.283 C 374.361 87.726,374.250 90.436,374.250 58.417 C 374.250 28.023,374.282 29.211,373.453 28.662 C 373.029 28.380,363.514 28.249,361.838 28.502 M262.912 28.995 C 263.838 29.209,264.000 29.512,264.000 31.028 C 264.000 32.779,263.069 33.161,258.781 33.165 C 257.264 33.167,256.935 33.301,256.684 34.021 C 256.454 34.682,256.429 81.743,256.658 82.732 C 256.926 83.884,256.990 83.906,260.397 83.999 C 264.097 84.101,264.000 84.052,264.000 85.822 C 264.000 87.495,263.881 87.641,262.348 87.854 C 260.982 88.043,252.407 87.979,251.981 87.776 C 251.230 87.419,251.253 88.185,251.196 62.000 C 251.135 34.034,251.201 29.632,251.686 29.147 C 252.037 28.796,261.500 28.668,262.912 28.995 M373.156 29.125 C 373.821 29.664,373.842 30.656,373.795 59.087 C 373.745 89.236,373.811 87.430,372.747 87.834 C 372.183 88.049,363.735 88.050,362.426 87.836 C 361.115 87.621,360.967 87.442,360.878 85.970 C 360.763 84.057,360.686 84.100,364.399 83.999 C 367.337 83.920,367.511 83.896,367.871 83.536 L 368.250 83.157 368.250 58.481 L 368.250 33.804 367.857 33.485 C 367.522 33.215,367.183 33.166,365.607 33.164 C 361.757 33.158,360.792 32.693,360.909 30.899 C 361.005 29.429,361.106 29.194,361.719 29.017 C 362.806 28.703,372.751 28.796,373.156 29.125 M42.250 31.928 C 39.752 33.222,39.432 36.178,41.624 37.700 C 44.151 39.454,47.369 37.139,46.588 34.128 C 46.110 32.285,43.811 31.119,42.250 31.928 M44.521 32.569 C 47.240 33.708,46.419 37.667,43.464 37.666 C 41.893 37.666,40.833 36.609,40.833 35.043 C 40.833 33.047,42.690 31.802,44.521 32.569 M160.750 42.104 C 160.567 42.140,160.004 42.253,159.500 42.355 C 158.133 42.631,155.317 44.083,153.990 45.198 C 152.369 46.559,152.272 46.523,152.114 44.510 C 151.997 43.025,151.648 42.833,149.063 42.833 C 145.407 42.833,145.667 41.427,145.667 61.186 C 145.667 80.714,145.444 79.417,148.796 79.417 C 151.044 79.417,151.574 79.309,151.870 78.790 C 152.035 78.502,152.107 75.839,152.188 67.167 C 152.295 55.553,152.307 55.360,153.055 53.414 C 155.748 46.400,166.145 45.214,168.578 51.642 C 169.271 53.472,169.318 54.350,169.327 65.667 C 169.339 80.568,169.089 79.369,172.199 79.475 C 176.064 79.608,175.720 80.719,175.846 67.667 C 175.961 55.740,176.049 54.814,177.286 52.447 C 180.356 46.574,189.362 45.608,192.017 50.866 C 193.216 53.243,193.217 53.250,193.280 66.500 C 193.322 75.130,193.391 78.521,193.531 78.794 C 193.822 79.359,194.701 79.537,196.895 79.474 C 199.818 79.389,199.500 81.033,199.501 66.023 L 199.502 53.417 199.065 51.667 C 197.489 45.366,193.916 42.259,188.000 42.046 C 183.106 41.870,179.927 43.075,176.626 46.358 C 174.668 48.304,174.766 48.285,173.784 46.921 C 171.161 43.274,165.477 41.174,160.750 42.104 M292.500 42.106 C 289.794 42.613,287.096 43.964,285.262 45.729 C 283.850 47.089,283.551 46.903,283.517 44.643 C 283.489 42.830,283.380 42.762,280.565 42.812 C 278.063 42.857,277.623 42.987,277.326 43.770 C 277.041 44.518,277.117 92.059,277.404 92.745 C 277.683 93.414,277.812 93.446,280.729 93.562 C 282.618 93.638,282.724 93.624,283.087 93.262 L 283.466 92.882 283.537 84.650 C 283.620 75.022,283.611 75.069,284.965 76.476 C 289.897 81.600,298.728 81.997,304.189 77.340 C 305.924 75.861,309.167 70.714,309.167 69.440 C 309.167 69.274,309.346 68.602,309.566 67.945 C 312.171 60.157,309.144 48.756,303.376 44.630 C 300.389 42.494,295.941 41.462,292.500 42.106 M165.852 42.670 C 168.791 43.227,171.641 44.995,173.342 47.318 C 174.682 49.147,174.729 49.142,176.851 46.931 C 178.702 45.002,179.705 44.374,182.757 43.231 L 184.417 42.610 187.250 42.604 L 190.083 42.598 191.769 43.278 C 194.701 44.460,196.245 45.859,197.166 48.167 C 197.293 48.487,197.571 49.080,197.782 49.483 C 197.994 49.886,198.168 50.374,198.169 50.566 C 198.170 50.759,198.357 51.501,198.585 52.215 L 199.000 53.513 199.000 65.994 C 199.000 80.636,199.313 79.000,196.514 79.000 C 193.715 79.000,194.029 80.538,193.958 66.497 L 193.898 54.583 193.386 52.870 C 191.363 46.100,183.726 44.568,178.537 49.891 C 175.548 52.957,175.466 53.405,175.345 67.358 C 175.232 80.364,175.537 79.000,172.743 79.000 C 171.148 79.000,170.812 78.953,170.477 78.681 L 170.083 78.363 169.984 66.223 C 169.861 51.165,169.894 51.371,167.205 48.811 C 165.449 47.139,164.820 46.917,161.833 46.917 C 156.859 46.917,153.036 50.139,151.746 55.417 C 151.679 55.692,151.577 60.958,151.520 67.119 C 151.399 80.278,151.683 78.889,149.094 78.973 C 146.978 79.042,146.753 78.942,146.514 77.827 C 146.286 76.763,146.268 45.400,146.495 44.421 C 146.727 43.421,146.927 43.345,149.057 43.451 C 151.367 43.566,151.500 43.655,151.500 45.084 C 151.500 47.430,152.106 47.747,153.631 46.202 C 156.340 43.459,161.756 41.894,165.852 42.670 M298.583 42.965 C 299.042 43.152,299.829 43.430,300.333 43.583 C 302.462 44.230,305.819 47.197,306.967 49.444 C 307.100 49.704,307.316 50.040,307.448 50.191 C 309.456 52.494,310.381 61.649,309.163 67.167 C 308.991 67.946,308.804 68.822,308.748 69.113 C 308.464 70.582,306.592 73.828,304.872 75.833 C 300.315 81.147,290.785 81.408,285.720 76.359 C 283.146 73.793,283.273 73.414,283.168 84.000 C 283.121 88.721,283.023 92.677,282.948 92.792 C 282.693 93.186,278.803 93.072,278.272 92.655 L 277.833 92.309 277.833 68.256 C 277.833 40.043,277.454 43.513,280.546 43.430 C 283.125 43.360,283.167 43.390,283.167 45.292 C 283.167 47.944,283.683 48.182,285.468 46.356 C 288.562 43.192,295.034 41.518,298.583 42.965 M208.095 43.095 C 207.664 43.526,207.599 44.123,207.929 44.626 C 208.094 44.877,208.429 45.645,208.675 46.333 C 209.640 49.033,210.705 51.782,211.033 52.417 C 211.221 52.783,211.511 53.458,211.677 53.917 C 212.102 55.096,212.895 56.974,213.313 57.794 C 213.509 58.177,213.962 59.299,214.320 60.287 C 214.678 61.275,215.127 62.380,215.319 62.744 C 215.510 63.107,215.667 63.499,215.667 63.615 C 215.667 63.731,215.845 64.221,216.064 64.705 C 217.008 66.795,217.226 67.313,217.617 68.397 C 217.845 69.028,218.362 70.256,218.766 71.126 C 219.170 71.996,219.500 72.795,219.500 72.900 C 219.500 73.006,219.723 73.540,219.995 74.088 C 220.267 74.635,220.492 75.180,220.495 75.298 C 220.498 75.417,220.649 75.805,220.830 76.161 C 222.002 78.458,222.000 79.065,220.804 81.917 C 218.494 87.429,217.535 88.123,211.951 88.323 C 211.128 88.352,210.833 89.037,210.833 90.917 C 210.833 93.481,210.858 93.500,214.125 93.500 C 218.050 93.500,220.587 92.789,222.262 91.219 C 223.000 90.529,224.871 87.840,225.083 87.167 C 225.155 86.938,225.391 86.489,225.607 86.170 C 225.823 85.850,226.000 85.486,226.000 85.359 C 226.000 85.232,226.306 84.443,226.680 83.606 C 227.055 82.768,227.618 81.377,227.933 80.513 C 228.248 79.650,228.580 78.854,228.671 78.745 C 228.761 78.636,228.977 78.143,229.150 77.649 C 229.323 77.154,229.584 76.525,229.731 76.250 C 229.878 75.975,229.998 75.637,229.999 75.499 C 230.000 75.360,230.185 74.899,230.412 74.474 C 230.639 74.048,231.081 72.961,231.396 72.058 C 231.710 71.155,232.200 69.912,232.484 69.295 C 232.768 68.679,233.000 68.070,233.000 67.944 C 233.000 67.817,233.220 67.272,233.489 66.732 C 233.757 66.192,234.159 65.300,234.382 64.750 C 234.604 64.200,234.957 63.337,235.166 62.833 C 235.374 62.329,235.789 61.242,236.086 60.417 C 236.384 59.592,236.937 58.232,237.314 57.395 C 237.691 56.558,238.000 55.744,238.000 55.586 C 238.000 55.428,238.185 54.951,238.411 54.525 C 238.637 54.099,239.002 53.300,239.221 52.750 C 239.441 52.200,239.864 51.150,240.163 50.417 C 240.461 49.683,240.844 48.653,241.014 48.127 C 241.184 47.601,241.430 47.001,241.562 46.794 C 241.694 46.586,241.854 46.087,241.919 45.684 C 241.984 45.280,242.138 44.711,242.260 44.418 C 242.802 43.120,242.277 42.833,239.360 42.833 C 236.493 42.833,236.427 42.892,234.931 46.750 C 234.505 47.850,234.012 49.087,233.836 49.500 C 233.216 50.951,232.637 52.424,232.409 53.130 C 232.283 53.522,232.067 54.047,231.930 54.297 C 231.792 54.546,231.143 56.137,230.486 57.833 C 229.830 59.529,229.081 61.404,228.822 62.000 C 228.563 62.596,228.116 63.683,227.830 64.417 C 225.500 70.370,224.880 71.018,224.081 68.333 C 223.970 67.962,223.223 66.215,222.319 64.210 C 222.143 63.822,222.000 63.424,222.000 63.327 C 222.000 63.230,221.875 62.910,221.722 62.617 C 221.568 62.323,221.277 61.633,221.075 61.083 C 220.872 60.533,220.352 59.258,219.919 58.250 C 219.486 57.242,219.000 56.004,218.839 55.500 C 218.543 54.574,218.279 53.939,217.561 52.414 C 217.344 51.955,217.167 51.475,217.167 51.348 C 217.167 51.222,216.727 50.136,216.190 48.934 C 215.653 47.733,215.079 46.339,214.914 45.837 C 214.484 44.526,213.878 43.384,213.457 43.088 C 212.919 42.712,208.473 42.717,208.095 43.095 M316.962 43.125 C 316.544 43.601,316.474 44.091,316.727 44.773 C 316.858 45.127,317.262 46.242,317.626 47.250 C 317.989 48.258,318.717 50.058,319.242 51.250 C 319.768 52.442,320.335 53.852,320.503 54.385 C 320.671 54.917,320.881 55.442,320.969 55.551 C 321.134 55.756,321.837 57.426,322.562 59.333 C 322.789 59.929,323.248 61.054,323.583 61.833 C 323.918 62.612,324.300 63.550,324.431 63.917 C 324.563 64.283,324.779 64.808,324.912 65.083 C 325.264 65.812,326.500 68.812,326.500 68.936 C 326.500 68.994,326.715 69.466,326.979 69.984 C 327.242 70.502,327.512 71.175,327.579 71.480 C 327.705 72.054,328.326 73.555,328.787 74.403 C 328.932 74.670,329.235 75.382,329.459 75.986 C 329.683 76.590,330.006 77.458,330.177 77.917 C 330.537 78.878,330.478 79.480,329.893 80.812 C 329.677 81.305,329.500 81.805,329.500 81.922 C 329.500 82.496,327.747 85.574,326.898 86.491 C 325.680 87.807,324.915 88.087,322.167 88.224 C 319.418 88.362,319.333 88.440,319.333 90.855 C 319.333 92.479,319.347 92.539,319.821 93.013 L 320.308 93.500 322.906 93.500 C 328.287 93.500,330.502 92.454,332.724 88.860 C 333.498 87.610,336.000 82.437,336.000 82.089 C 336.000 81.870,337.183 78.987,337.576 78.248 C 337.809 77.810,338.000 77.343,338.000 77.211 C 338.000 76.977,338.697 75.256,339.342 73.898 C 339.520 73.522,339.667 73.143,339.667 73.056 C 339.667 72.807,341.378 68.540,342.320 66.440 C 342.602 65.811,342.833 65.223,342.833 65.133 C 342.833 65.044,343.103 64.359,343.433 63.610 C 343.763 62.862,344.288 61.538,344.599 60.667 C 344.910 59.796,345.281 58.879,345.422 58.630 C 345.564 58.381,345.783 57.856,345.909 57.463 C 346.035 57.071,346.362 56.225,346.635 55.583 C 348.250 51.789,349.165 49.489,350.679 45.417 C 351.514 43.171,351.183 42.833,348.152 42.833 C 345.527 42.833,345.101 43.034,344.520 44.541 C 344.335 45.023,343.834 46.242,343.408 47.250 C 342.683 48.964,342.395 49.687,341.514 52.000 C 341.322 52.504,341.021 53.217,340.845 53.583 C 340.669 53.950,340.024 55.563,339.411 57.167 C 338.797 58.771,338.079 60.561,337.815 61.144 C 337.550 61.727,337.333 62.277,337.333 62.366 C 337.333 62.555,336.494 64.548,335.907 65.752 C 335.683 66.212,335.500 66.680,335.500 66.792 C 335.500 67.126,334.113 69.818,333.898 69.901 C 333.404 70.090,332.838 68.905,330.005 61.750 C 329.750 61.108,329.302 60.021,329.007 59.333 C 328.712 58.646,328.372 57.783,328.251 57.417 C 328.032 56.752,327.009 54.209,326.005 51.833 C 325.715 51.146,325.338 50.208,325.168 49.750 C 324.047 46.731,322.619 43.541,322.241 43.208 C 321.658 42.695,317.398 42.628,316.962 43.125 M212.955 43.590 C 213.383 43.684,213.662 44.167,214.271 45.871 C 214.510 46.538,215.119 47.946,215.623 49.000 C 216.128 50.054,216.709 51.404,216.914 52.000 C 217.222 52.898,217.725 54.277,218.584 56.583 C 218.781 57.113,219.987 59.835,220.430 60.752 C 220.652 61.212,220.833 61.675,220.833 61.781 C 220.833 62.390,224.231 70.189,224.668 70.585 C 225.500 71.337,226.563 69.604,228.351 64.583 C 228.710 63.575,229.153 62.477,229.335 62.144 C 229.518 61.811,229.667 61.448,229.667 61.339 C 229.667 61.091,230.540 59.008,231.066 58.000 C 231.281 57.587,231.620 56.755,231.817 56.150 C 232.015 55.545,232.325 54.760,232.505 54.406 C 232.686 54.052,232.833 53.668,232.833 53.551 C 232.833 53.280,233.579 51.327,234.095 50.250 C 234.314 49.792,234.800 48.667,235.175 47.750 C 237.068 43.121,236.720 43.500,239.072 43.500 C 241.506 43.500,241.748 43.643,241.586 44.979 C 241.524 45.495,241.353 46.103,241.206 46.332 C 241.060 46.560,240.771 47.198,240.566 47.748 C 239.979 49.320,238.359 53.342,237.996 54.129 C 237.815 54.521,237.667 54.976,237.667 55.138 C 237.667 55.301,237.472 55.843,237.234 56.342 C 236.039 58.849,235.183 60.939,233.960 64.333 C 233.778 64.837,233.418 65.700,233.161 66.250 C 232.903 66.800,232.641 67.430,232.577 67.650 C 232.514 67.870,232.161 68.695,231.794 69.484 C 231.428 70.272,230.918 71.517,230.662 72.250 C 230.405 72.983,230.007 74.071,229.777 74.667 C 229.547 75.262,229.163 76.267,228.923 76.900 C 228.684 77.532,228.355 78.244,228.193 78.483 C 228.031 78.721,227.684 79.479,227.421 80.167 C 227.159 80.854,226.700 81.989,226.401 82.688 C 226.103 83.387,225.746 84.325,225.608 84.771 C 225.124 86.345,222.841 90.043,221.828 90.895 C 220.262 92.214,217.045 93.061,213.943 92.972 C 211.477 92.902,211.333 92.789,211.333 90.917 C 211.333 89.063,211.447 88.975,214.027 88.836 C 216.474 88.705,217.390 88.308,218.765 86.785 C 219.503 85.967,220.833 83.551,220.833 83.028 C 220.833 82.897,220.985 82.545,221.169 82.246 C 221.354 81.946,221.646 81.300,221.817 80.809 C 221.989 80.318,222.227 79.677,222.348 79.383 C 222.543 78.907,222.528 78.770,222.200 78.115 C 221.998 77.711,221.833 77.286,221.833 77.171 C 221.833 77.056,221.648 76.614,221.422 76.189 C 221.023 75.438,220.891 75.108,220.084 72.833 C 219.644 71.592,218.030 67.819,217.411 66.583 C 217.181 66.125,216.888 65.412,216.761 65.000 C 216.633 64.587,216.287 63.650,215.992 62.917 C 215.697 62.183,215.255 61.021,215.010 60.333 C 214.582 59.133,213.857 57.565,213.162 56.336 C 212.981 56.017,212.833 55.666,212.833 55.557 C 212.833 55.337,211.990 53.122,211.511 52.083 C 211.342 51.717,211.112 51.117,211.000 50.750 C 210.802 50.100,209.968 48.091,209.340 46.750 C 209.169 46.383,208.946 45.773,208.847 45.395 C 208.747 45.016,208.553 44.613,208.416 44.499 C 208.100 44.237,208.094 43.724,208.404 43.550 C 208.648 43.413,212.292 43.445,212.955 43.590 M321.910 43.827 C 322.123 44.027,322.426 44.542,322.582 44.970 C 322.739 45.399,323.298 46.725,323.825 47.917 C 324.351 49.108,324.876 50.346,324.991 50.667 C 325.106 50.987,325.423 51.813,325.695 52.500 C 325.966 53.188,326.328 54.125,326.498 54.583 C 327.169 56.393,328.030 58.455,328.422 59.191 C 328.648 59.617,328.834 60.067,328.834 60.191 C 328.835 60.315,328.955 60.642,329.101 60.917 C 329.247 61.192,329.539 61.904,329.749 62.500 C 331.659 67.899,333.098 70.833,333.837 70.833 C 334.362 70.833,335.346 68.986,336.587 65.667 C 336.844 64.979,337.148 64.267,337.261 64.083 C 337.374 63.900,337.519 63.502,337.582 63.199 C 337.646 62.896,338.074 61.846,338.535 60.865 C 338.995 59.885,339.507 58.708,339.672 58.250 C 339.837 57.792,340.283 56.592,340.663 55.583 C 341.044 54.575,341.456 53.450,341.579 53.083 C 341.812 52.387,342.452 50.890,343.002 49.750 C 343.363 49.002,344.103 47.224,344.858 45.293 C 345.583 43.436,345.720 43.359,348.120 43.456 C 350.585 43.556,351.057 44.088,350.058 45.639 C 349.920 45.853,349.694 46.410,349.555 46.876 C 349.417 47.343,349.204 47.880,349.082 48.070 C 348.960 48.261,348.773 48.754,348.665 49.167 C 348.557 49.579,348.331 50.143,348.161 50.420 C 347.992 50.697,347.503 51.860,347.075 53.004 C 346.647 54.147,346.156 55.362,345.982 55.702 C 345.809 56.042,345.667 56.460,345.667 56.632 C 345.667 56.803,345.476 57.312,345.242 57.763 C 344.780 58.655,344.434 59.471,343.566 61.708 C 342.182 65.276,341.802 66.287,341.639 66.833 C 341.543 67.154,341.394 67.504,341.307 67.611 C 340.921 68.086,337.667 76.234,337.667 76.726 C 337.667 76.884,336.745 78.897,336.226 79.873 C 336.093 80.124,335.843 80.724,335.672 81.207 C 335.500 81.689,335.083 82.721,334.746 83.500 C 334.408 84.279,333.989 85.275,333.815 85.712 C 332.649 88.641,330.407 91.366,328.583 92.072 C 327.273 92.578,325.546 92.863,323.333 92.936 C 320.061 93.045,320.098 93.067,320.036 90.979 C 319.976 88.952,319.932 88.988,322.543 88.842 C 326.332 88.629,328.211 86.987,329.802 82.500 C 329.981 81.996,330.322 81.133,330.560 80.583 C 331.194 79.117,331.066 77.942,330.092 76.280 C 329.858 75.881,329.666 75.411,329.666 75.235 C 329.666 75.060,329.519 74.677,329.341 74.385 C 329.163 74.092,328.721 73.005,328.359 71.968 C 327.997 70.931,327.311 69.221,326.834 68.167 C 326.357 67.112,325.828 65.888,325.659 65.445 C 325.491 65.003,325.268 64.538,325.164 64.413 C 325.060 64.288,324.873 63.825,324.748 63.384 C 324.455 62.347,323.754 60.494,323.357 59.704 C 323.185 59.363,322.952 58.783,322.838 58.417 C 322.724 58.050,322.265 57.000,321.818 56.083 C 321.371 55.167,320.897 54.079,320.765 53.667 C 320.408 52.554,319.711 50.727,319.175 49.500 C 318.197 47.257,317.853 46.402,317.733 45.917 C 317.666 45.642,317.473 45.192,317.306 44.917 C 316.548 43.673,316.936 43.410,319.482 43.440 C 321.332 43.462,321.559 43.498,321.910 43.827 M74.175 44.328 C 73.287 44.549,73.167 44.844,73.162 46.824 C 73.128 59.347,70.519 62.966,61.500 63.001 C 60.446 63.005,59.246 63.090,58.833 63.191 C 58.351 63.308,55.197 63.384,50.000 63.402 C 40.885 63.434,41.636 63.332,39.430 64.828 C 37.421 66.191,36.705 67.350,36.046 70.308 L 35.614 72.250 35.627 81.015 L 35.640 89.780 36.086 90.839 C 36.650 92.179,37.675 93.695,38.380 94.233 C 42.456 97.342,49.341 98.607,58.167 97.867 C 61.754 97.566,65.601 96.665,66.500 95.913 C 66.637 95.799,67.135 95.512,67.605 95.276 C 70.392 93.880,71.072 92.005,70.896 86.196 C 70.744 81.171,71.771 81.773,63.140 81.646 C 54.227 81.515,53.833 81.467,53.833 80.500 C 53.833 79.550,53.292 79.590,67.317 79.500 C 80.066 79.418,80.261 79.412,81.007 79.063 C 81.423 78.868,82.004 78.656,82.298 78.591 C 84.232 78.166,88.500 72.936,88.500 70.990 C 88.500 70.809,88.688 70.124,88.917 69.468 C 89.146 68.812,89.333 67.927,89.333 67.500 C 89.333 67.074,89.453 65.943,89.600 64.988 C 89.965 62.609,89.698 57.601,89.072 55.083 C 88.506 52.806,88.155 51.603,88.001 51.418 C 87.911 51.310,87.733 50.924,87.605 50.560 C 86.786 48.240,84.473 45.879,81.966 44.804 C 80.676 44.251,75.704 43.948,74.175 44.328 M81.576 45.181 C 86.512 46.818,89.450 53.696,89.115 62.833 C 89.002 65.931,88.770 68.235,88.504 68.917 C 88.396 69.192,88.236 69.807,88.147 70.284 C 87.472 73.917,84.532 77.329,81.083 78.481 L 79.583 78.982 66.909 79.033 C 55.135 79.080,54.203 79.104,53.787 79.377 C 53.123 79.812,52.992 80.729,53.484 81.486 C 53.756 81.904,55.271 82.004,62.750 82.096 C 67.248 82.151,70.148 82.249,70.250 82.351 C 70.438 82.537,70.582 89.840,70.419 90.944 C 69.952 94.116,65.141 96.769,59.135 97.166 C 57.915 97.247,56.117 97.398,55.140 97.501 C 53.892 97.633,52.998 97.638,52.140 97.519 C 51.467 97.425,50.092 97.302,49.083 97.246 C 42.364 96.869,37.470 94.101,36.424 90.085 C 36.054 88.666,36.047 73.988,36.414 71.750 C 36.550 70.925,36.662 70.021,36.664 69.741 C 36.669 68.906,37.865 66.634,38.604 66.056 C 41.127 64.085,41.651 63.943,46.167 64.009 C 52.553 64.103,57.995 63.988,59.219 63.735 C 59.844 63.606,61.156 63.500,62.136 63.500 C 70.762 63.499,73.667 59.437,73.667 47.376 C 73.667 44.574,73.500 44.698,77.304 44.680 C 79.915 44.667,80.086 44.687,81.576 45.181 M105.202 45.143 C 103.477 45.295,103.450 45.365,103.530 49.534 C 103.603 53.317,103.460 53.167,106.987 53.166 C 110.956 53.165,110.869 53.266,110.797 48.768 L 110.750 45.786 110.285 45.438 C 109.770 45.054,107.630 44.930,105.202 45.143 M110.008 45.760 C 110.431 46.269,110.273 52.011,109.826 52.372 C 109.405 52.714,104.918 52.813,104.322 52.494 C 103.928 52.283,103.816 46.084,104.200 45.700 C 104.530 45.370,109.729 45.424,110.008 45.760 M292.451 46.849 C 288.963 47.359,285.522 51.067,284.475 55.444 C 283.853 58.047,283.896 64.844,284.551 67.250 C 286.337 73.813,291.605 77.095,297.530 75.336 C 300.403 74.482,303.395 71.347,304.001 68.554 C 304.096 68.112,304.334 67.375,304.528 66.917 C 305.247 65.221,305.248 57.235,304.529 55.610 C 304.345 55.194,304.108 54.437,304.002 53.928 C 303.560 51.797,300.784 48.465,298.584 47.424 C 297.138 46.740,294.734 46.515,292.451 46.849 M296.352 47.485 C 299.364 47.801,302.956 51.221,303.674 54.456 C 303.770 54.893,304.005 55.737,304.195 56.333 C 304.770 58.141,304.709 64.773,304.102 66.455 C 303.862 67.118,303.667 67.838,303.667 68.055 C 303.667 68.550,302.655 70.474,301.795 71.615 C 297.486 77.326,288.546 76.023,285.856 69.292 C 284.510 65.926,283.999 59.763,284.815 56.747 C 284.988 56.107,285.180 55.283,285.242 54.917 C 285.394 54.029,286.222 52.321,287.114 51.059 C 289.222 48.077,291.947 47.022,296.352 47.485 M105.642 71.152 C 103.665 71.326,103.495 71.640,103.513 75.083 C 103.537 79.614,103.445 79.500,107.040 79.500 C 110.996 79.500,110.833 79.669,110.833 75.561 C 110.833 71.177,110.320 70.741,105.642 71.152 M109.206 71.842 C 110.107 72.092,110.167 72.323,110.167 75.541 C 110.167 79.337,110.385 79.074,107.200 79.116 C 103.862 79.161,104.106 79.412,103.993 75.806 C 103.895 72.708,103.992 72.044,104.558 71.919 C 105.724 71.662,108.400 71.618,109.206 71.842 M62.917 86.082 C 62.825 86.112,62.545 86.183,62.295 86.238 C 60.635 86.603,59.586 88.873,60.348 90.448 C 62.084 94.033,67.261 92.202,66.333 88.332 C 66.005 86.967,64.075 85.695,62.917 86.082 M64.250 86.813 C 66.475 87.834,66.585 90.543,64.443 91.560 C 61.581 92.918,59.183 88.879,61.804 87.116 C 62.855 86.409,63.260 86.359,64.250 86.813 " stroke="none" fill="#5c657e" fill-rule="evenodd"></path><path id="path3" d="M48.000 27.177 C 46.946 27.344,45.807 27.485,45.469 27.490 C 42.209 27.541,38.042 29.851,36.892 32.245 L 36.333 33.407 36.333 37.352 C 36.333 40.986,36.358 41.327,36.652 41.690 L 36.970 42.083 44.897 42.167 L 52.824 42.250 53.204 42.630 C 53.709 43.135,53.735 44.342,53.250 44.818 C 52.752 45.307,45.140 45.580,35.750 45.446 C 27.157 45.324,26.173 45.396,24.572 46.270 C 21.955 47.697,20.659 49.133,19.455 51.939 L 18.750 53.583 18.702 61.744 C 18.651 70.484,18.666 70.690,19.512 72.812 C 21.430 77.626,23.826 79.245,29.333 79.447 C 33.471 79.599,33.459 79.613,33.276 75.172 C 33.165 72.484,33.449 68.590,33.829 67.593 C 35.043 64.406,36.732 62.544,39.187 61.684 C 39.772 61.480,40.625 61.149,41.083 60.949 C 41.903 60.593,42.088 60.585,52.750 60.500 L 63.583 60.412 64.922 59.872 C 67.441 58.856,68.758 57.555,69.744 55.111 L 70.333 53.648 70.333 43.899 L 70.333 34.151 69.669 32.941 C 68.029 29.953,64.705 28.061,59.938 27.404 C 58.918 27.263,57.596 27.080,57.000 26.996 C 55.157 26.738,50.135 26.839,48.000 27.177 M56.667 27.675 C 57.262 27.767,58.612 27.947,59.667 28.074 C 60.721 28.200,62.000 28.452,62.509 28.632 C 63.019 28.812,63.769 29.014,64.176 29.081 C 64.583 29.147,65.248 29.419,65.654 29.684 C 66.059 29.950,66.471 30.167,66.570 30.167 C 66.825 30.167,68.559 32.141,68.916 32.836 C 69.080 33.155,69.391 33.629,69.607 33.888 L 70.000 34.359 70.000 43.823 L 70.000 53.286 69.500 54.223 C 69.225 54.739,69.000 55.304,69.000 55.480 C 69.000 56.187,66.077 58.997,65.337 59.002 C 65.197 59.003,64.671 59.209,64.167 59.460 L 63.250 59.917 52.417 60.000 L 41.583 60.083 40.750 60.524 C 40.292 60.766,39.523 61.046,39.041 61.147 C 36.195 61.742,33.012 65.810,33.002 68.865 C 33.001 69.203,32.889 69.959,32.753 70.544 C 32.563 71.363,32.522 72.387,32.577 74.969 C 32.665 79.162,32.902 78.835,29.780 78.827 C 24.884 78.815,22.547 77.614,20.898 74.262 C 20.496 73.444,20.167 72.663,20.167 72.528 C 20.167 72.393,19.960 71.862,19.708 71.349 L 19.250 70.417 19.250 62.250 L 19.250 54.083 19.642 53.349 C 19.857 52.945,20.145 52.238,20.282 51.778 C 20.638 50.580,21.446 49.226,22.058 48.803 C 22.347 48.604,22.927 48.125,23.346 47.740 C 23.765 47.356,24.290 46.983,24.510 46.913 C 24.731 46.843,25.208 46.590,25.569 46.351 L 26.225 45.917 39.738 45.818 C 47.169 45.764,53.387 45.660,53.554 45.587 C 54.534 45.161,54.336 42.204,53.290 41.643 C 53.020 41.498,50.745 41.424,45.085 41.375 C 39.356 41.325,37.220 41.254,37.129 41.111 C 37.061 41.004,37.004 39.227,37.003 37.162 L 37.000 33.407 37.563 32.245 C 38.656 29.988,42.066 28.355,46.250 28.086 C 47.167 28.027,48.442 27.881,49.083 27.762 C 50.505 27.498,55.180 27.444,56.667 27.675 M42.333 31.250 C 40.033 31.984,38.765 34.799,39.879 36.700 C 41.650 39.723,45.830 39.619,47.007 36.522 C 48.195 33.394,45.421 30.265,42.333 31.250 M44.749 32.000 C 47.955 33.551,47.036 38.250,43.526 38.250 C 40.473 38.250,39.008 34.783,41.188 32.718 C 42.354 31.616,43.484 31.387,44.749 32.000 M160.750 42.664 C 158.594 42.982,155.093 44.722,153.631 46.202 C 152.106 47.747,151.500 47.430,151.500 45.084 C 151.500 43.655,151.367 43.566,149.057 43.451 C 146.927 43.345,146.727 43.421,146.495 44.421 C 146.268 45.400,146.286 76.763,146.514 77.827 C 146.753 78.942,146.978 79.042,149.094 78.973 C 151.683 78.889,151.399 80.278,151.520 67.119 C 151.577 60.958,151.679 55.692,151.746 55.417 C 153.036 50.139,156.859 46.917,161.833 46.917 C 164.820 46.917,165.449 47.139,167.205 48.811 C 169.894 51.371,169.861 51.165,169.984 66.223 L 170.083 78.363 170.477 78.681 C 170.812 78.953,171.148 79.000,172.743 79.000 C 175.537 79.000,175.232 80.364,175.345 67.358 C 175.466 53.405,175.548 52.957,178.537 49.891 C 183.726 44.568,191.363 46.100,193.386 52.870 L 193.898 54.583 193.958 66.497 C 194.029 80.538,193.715 79.000,196.514 79.000 C 199.313 79.000,199.000 80.636,199.000 65.994 L 199.000 53.513 198.585 52.215 C 198.357 51.501,198.170 50.759,198.169 50.566 C 198.168 50.374,197.994 49.886,197.782 49.483 C 197.571 49.080,197.293 48.487,197.166 48.167 C 196.245 45.859,194.701 44.460,191.769 43.278 L 190.083 42.598 187.250 42.604 L 184.417 42.610 182.757 43.231 C 179.705 44.374,178.702 45.002,176.851 46.931 C 174.729 49.142,174.682 49.147,173.342 47.318 C 170.635 43.622,165.964 41.896,160.750 42.664 M292.583 42.644 C 290.227 43.077,287.057 44.731,285.468 46.356 C 283.683 48.182,283.167 47.944,283.167 45.292 C 283.167 43.390,283.125 43.360,280.546 43.430 C 277.454 43.513,277.833 40.043,277.833 68.256 L 277.833 92.309 278.272 92.655 C 278.803 93.072,282.693 93.186,282.948 92.792 C 283.023 92.677,283.121 88.721,283.168 84.000 C 283.273 73.414,283.146 73.793,285.720 76.359 C 290.785 81.408,300.315 81.147,304.872 75.833 C 306.592 73.828,308.464 70.582,308.748 69.113 C 308.804 68.822,308.991 67.946,309.163 67.167 C 310.381 61.649,309.456 52.494,307.448 50.191 C 307.316 50.040,307.100 49.704,306.967 49.444 C 305.819 47.197,302.462 44.230,300.333 43.583 C 299.829 43.430,299.042 43.152,298.583 42.965 C 297.679 42.596,293.933 42.396,292.583 42.644 M166.000 43.241 C 169.168 44.469,169.418 44.593,171.269 45.860 C 171.625 46.103,172.179 46.729,172.500 47.250 C 174.286 50.152,174.557 50.168,177.148 47.526 C 179.164 45.470,180.578 44.569,182.833 43.903 C 183.246 43.782,183.996 43.531,184.500 43.346 C 186.172 42.735,189.020 42.876,191.000 43.669 C 193.803 44.792,195.458 45.854,195.769 46.728 C 195.871 47.015,196.114 47.512,196.310 47.833 C 196.505 48.154,196.666 48.531,196.666 48.670 C 196.666 48.809,196.859 49.205,197.094 49.551 C 197.336 49.907,197.588 50.600,197.677 51.153 C 197.764 51.688,198.003 52.491,198.209 52.938 L 198.583 53.750 198.633 65.167 C 198.660 71.446,198.622 76.994,198.548 77.496 L 198.413 78.409 196.607 78.413 C 195.583 78.415,194.754 78.345,194.692 78.250 C 194.632 78.158,194.546 72.571,194.500 65.833 L 194.417 53.583 193.977 52.667 C 193.736 52.163,193.487 51.511,193.425 51.220 C 193.363 50.928,193.199 50.596,193.062 50.482 C 192.924 50.368,192.693 50.044,192.548 49.762 C 192.031 48.757,190.850 47.571,189.720 46.922 L 188.583 46.269 186.235 46.203 C 183.772 46.133,183.450 46.184,181.667 46.928 C 180.493 47.418,179.750 47.919,178.836 48.840 C 178.514 49.164,178.025 49.615,177.750 49.840 C 175.108 52.008,174.888 53.308,174.845 67.060 C 174.826 72.853,174.744 77.714,174.660 77.935 C 174.483 78.401,171.171 78.568,170.885 78.125 C 170.811 78.010,170.711 72.329,170.662 65.500 C 170.576 53.310,170.568 53.068,170.220 52.250 C 170.025 51.792,169.767 51.154,169.647 50.833 C 169.340 50.019,166.808 47.441,165.684 46.798 L 164.750 46.265 162.000 46.257 C 159.330 46.250,159.223 46.263,158.317 46.708 C 157.804 46.960,157.290 47.167,157.175 47.167 C 157.060 47.167,156.444 47.617,155.807 48.167 C 155.169 48.717,154.584 49.167,154.505 49.167 C 154.237 49.167,152.455 51.701,152.140 52.529 C 151.967 52.984,151.709 53.535,151.565 53.754 C 151.002 54.614,150.841 57.658,150.836 67.500 C 150.831 77.411,150.785 78.103,150.118 78.239 C 149.005 78.467,147.330 78.446,147.127 78.202 C 146.854 77.873,146.727 44.677,146.997 44.172 C 147.151 43.884,147.308 43.864,148.708 43.950 C 150.833 44.081,150.771 44.025,150.913 45.929 C 151.113 48.594,152.685 49.084,153.831 46.837 C 154.148 46.217,155.340 45.384,156.333 45.090 C 156.563 45.022,157.012 44.790,157.333 44.574 C 157.866 44.216,159.681 43.505,160.917 43.170 C 161.766 42.939,165.352 42.990,166.000 43.241 M298.000 43.453 C 298.321 43.649,298.883 43.861,299.250 43.924 C 300.773 44.186,303.647 45.875,304.273 46.876 C 304.517 47.265,305.067 47.996,305.497 48.500 C 305.926 49.004,306.419 49.660,306.592 49.958 C 306.764 50.256,306.962 50.500,307.032 50.500 C 307.233 50.500,307.667 51.445,307.667 51.884 C 307.667 52.104,307.846 52.621,308.065 53.033 C 308.393 53.650,308.484 54.136,308.578 55.767 C 308.640 56.857,308.798 58.340,308.929 59.060 C 309.228 60.708,309.223 62.134,308.913 63.417 C 308.781 63.967,308.669 64.867,308.666 65.417 C 308.654 67.628,308.004 70.134,307.041 71.686 C 306.835 72.018,306.667 72.367,306.667 72.462 C 306.667 72.640,306.457 72.915,304.373 75.479 C 302.423 77.876,300.441 78.716,295.408 79.279 C 294.283 79.405,290.671 78.763,289.552 78.239 C 289.076 78.016,288.528 77.833,288.334 77.833 C 288.006 77.833,287.431 77.281,285.056 74.681 C 284.521 74.096,284.271 73.944,283.835 73.944 C 282.805 73.944,282.833 73.674,282.833 83.443 C 282.833 91.943,282.820 92.329,282.522 92.488 C 282.351 92.580,282.157 92.601,282.091 92.536 C 282.026 92.470,281.307 92.417,280.495 92.417 C 279.529 92.417,278.944 92.344,278.807 92.207 C 278.537 91.937,278.481 44.386,278.750 44.173 C 279.025 43.954,282.497 43.861,282.632 44.069 C 282.697 44.168,282.753 44.887,282.757 45.667 C 282.773 48.614,283.850 49.558,285.118 47.736 C 286.124 46.289,287.355 45.271,288.472 44.964 C 288.808 44.871,289.271 44.668,289.500 44.511 C 289.729 44.355,290.367 44.056,290.917 43.848 C 291.467 43.640,292.179 43.364,292.500 43.234 C 293.468 42.843,297.247 42.993,298.000 43.453 M208.404 43.550 C 208.094 43.724,208.100 44.237,208.416 44.499 C 208.553 44.613,208.747 45.016,208.847 45.395 C 208.946 45.773,209.169 46.383,209.340 46.750 C 209.968 48.091,210.802 50.100,211.000 50.750 C 211.112 51.117,211.342 51.717,211.511 52.083 C 211.990 53.122,212.833 55.337,212.833 55.557 C 212.833 55.666,212.981 56.017,213.162 56.336 C 213.857 57.565,214.582 59.133,215.010 60.333 C 215.255 61.021,215.697 62.183,215.992 62.917 C 216.287 63.650,216.633 64.587,216.761 65.000 C 216.888 65.412,217.181 66.125,217.411 66.583 C 218.030 67.819,219.644 71.592,220.084 72.833 C 220.891 75.108,221.023 75.438,221.422 76.189 C 221.648 76.614,221.833 77.056,221.833 77.171 C 221.833 77.286,221.998 77.711,222.200 78.115 C 222.528 78.770,222.543 78.907,222.348 79.383 C 222.227 79.677,221.989 80.318,221.817 80.809 C 221.646 81.300,221.354 81.946,221.169 82.246 C 220.985 82.545,220.833 82.897,220.833 83.028 C 220.833 83.551,219.503 85.967,218.765 86.785 C 217.390 88.308,216.474 88.705,214.027 88.836 C 211.447 88.975,211.333 89.063,211.333 90.917 C 211.333 92.789,211.477 92.902,213.943 92.972 C 217.045 93.061,220.262 92.214,221.828 90.895 C 222.841 90.043,225.124 86.345,225.608 84.771 C 225.746 84.325,226.103 83.387,226.401 82.688 C 226.700 81.989,227.159 80.854,227.421 80.167 C 227.684 79.479,228.031 78.721,228.193 78.483 C 228.355 78.244,228.684 77.532,228.923 76.900 C 229.163 76.267,229.547 75.262,229.777 74.667 C 230.007 74.071,230.405 72.983,230.662 72.250 C 230.918 71.517,231.428 70.272,231.794 69.484 C 232.161 68.695,232.514 67.870,232.577 67.650 C 232.641 67.430,232.903 66.800,233.161 66.250 C 233.418 65.700,233.778 64.837,233.960 64.333 C 235.183 60.939,236.039 58.849,237.234 56.342 C 237.472 55.843,237.667 55.301,237.667 55.138 C 237.667 54.976,237.815 54.521,237.996 54.129 C 238.359 53.342,239.979 49.320,240.566 47.748 C 240.771 47.198,241.060 46.560,241.206 46.332 C 241.353 46.103,241.524 45.495,241.586 44.979 C 241.748 43.643,241.506 43.500,239.072 43.500 C 236.720 43.500,237.068 43.121,235.175 47.750 C 234.800 48.667,234.314 49.792,234.095 50.250 C 233.579 51.327,232.833 53.280,232.833 53.551 C 232.833 53.668,232.686 54.052,232.505 54.406 C 232.325 54.760,232.015 55.545,231.817 56.150 C 231.620 56.755,231.281 57.587,231.066 58.000 C 230.540 59.008,229.667 61.091,229.667 61.339 C 229.667 61.448,229.518 61.811,229.335 62.144 C 229.153 62.477,228.710 63.575,228.351 64.583 C 226.563 69.604,225.500 71.337,224.668 70.585 C 224.231 70.189,220.833 62.390,220.833 61.781 C 220.833 61.675,220.652 61.212,220.430 60.752 C 219.987 59.835,218.781 57.113,218.584 56.583 C 217.725 54.277,217.222 52.898,216.914 52.000 C 216.709 51.404,216.128 50.054,215.623 49.000 C 215.119 47.946,214.510 46.538,214.271 45.871 C 213.662 44.167,213.383 43.684,212.955 43.590 C 212.292 43.445,208.648 43.413,208.404 43.550 M317.221 43.637 C 316.919 43.938,316.945 44.324,317.306 44.917 C 317.473 45.192,317.666 45.642,317.733 45.917 C 317.853 46.402,318.197 47.257,319.175 49.500 C 319.711 50.727,320.408 52.554,320.765 53.667 C 320.897 54.079,321.371 55.167,321.818 56.083 C 322.265 57.000,322.724 58.050,322.838 58.417 C 322.952 58.783,323.185 59.363,323.357 59.704 C 323.754 60.494,324.455 62.347,324.748 63.384 C 324.873 63.825,325.060 64.288,325.164 64.413 C 325.268 64.538,325.491 65.003,325.659 65.445 C 325.828 65.888,326.357 67.112,326.834 68.167 C 327.311 69.221,327.997 70.931,328.359 71.968 C 328.721 73.005,329.163 74.092,329.341 74.385 C 329.519 74.677,329.666 75.060,329.666 75.235 C 329.666 75.411,329.858 75.881,330.092 76.280 C 331.066 77.942,331.194 79.117,330.560 80.583 C 330.322 81.133,329.981 81.996,329.802 82.500 C 328.211 86.987,326.332 88.629,322.543 88.842 C 319.932 88.988,319.976 88.952,320.036 90.979 C 320.098 93.067,320.061 93.045,323.333 92.936 C 327.753 92.789,329.912 91.906,331.615 89.547 C 332.570 88.225,333.370 86.830,333.815 85.712 C 333.989 85.275,334.408 84.279,334.746 83.500 C 335.083 82.721,335.500 81.689,335.672 81.207 C 335.843 80.724,336.093 80.124,336.226 79.873 C 336.745 78.897,337.667 76.884,337.667 76.726 C 337.667 76.234,340.921 68.086,341.307 67.611 C 341.394 67.504,341.543 67.154,341.639 66.833 C 341.802 66.287,342.182 65.276,343.566 61.708 C 344.434 59.471,344.780 58.655,345.242 57.763 C 345.476 57.312,345.667 56.803,345.667 56.632 C 345.667 56.460,345.809 56.042,345.982 55.702 C 346.156 55.362,346.647 54.147,347.075 53.004 C 347.503 51.860,347.992 50.697,348.161 50.420 C 348.331 50.143,348.557 49.579,348.665 49.167 C 348.773 48.754,348.960 48.261,349.082 48.070 C 349.204 47.880,349.417 47.343,349.555 46.876 C 349.694 46.410,349.920 45.853,350.058 45.639 C 351.057 44.088,350.585 43.556,348.120 43.456 C 345.720 43.359,345.583 43.436,344.858 45.293 C 344.103 47.224,343.363 49.002,343.002 49.750 C 342.452 50.890,341.812 52.387,341.579 53.083 C 341.456 53.450,341.044 54.575,340.663 55.583 C 340.283 56.592,339.837 57.792,339.672 58.250 C 339.507 58.708,338.995 59.885,338.535 60.865 C 338.074 61.846,337.646 62.896,337.582 63.199 C 337.519 63.502,337.374 63.900,337.261 64.083 C 337.148 64.267,336.844 64.979,336.587 65.667 C 335.346 68.986,334.362 70.833,333.837 70.833 C 333.098 70.833,331.659 67.899,329.749 62.500 C 329.539 61.904,329.247 61.192,329.101 60.917 C 328.955 60.642,328.835 60.315,328.834 60.191 C 328.834 60.067,328.648 59.617,328.422 59.191 C 328.030 58.455,327.169 56.393,326.498 54.583 C 326.328 54.125,325.966 53.188,325.695 52.500 C 325.423 51.813,325.106 50.987,324.991 50.667 C 324.876 50.346,324.351 49.108,323.825 47.917 C 323.298 46.725,322.739 45.399,322.582 44.970 C 322.077 43.588,321.833 43.467,319.482 43.440 C 317.985 43.422,317.382 43.475,317.221 43.637 M212.667 44.213 C 212.968 44.363,213.169 44.697,213.393 45.419 C 213.669 46.309,214.246 47.576,215.177 49.333 C 215.922 50.741,216.500 52.143,216.500 52.542 C 216.500 52.780,216.725 53.537,217.000 54.224 C 217.275 54.910,217.500 55.580,217.500 55.712 C 217.500 55.845,217.744 56.432,218.042 57.018 C 218.592 58.102,218.678 58.275,219.228 59.430 C 219.399 59.789,219.755 60.533,220.020 61.083 C 220.284 61.633,220.500 62.247,220.500 62.447 C 220.500 62.901,221.340 65.229,222.022 66.667 C 222.305 67.262,222.838 68.387,223.206 69.167 C 224.231 71.338,224.271 71.401,224.753 71.643 C 225.534 72.035,225.824 71.732,227.062 69.231 C 227.693 67.958,228.343 66.650,228.507 66.323 C 228.672 65.997,228.925 65.158,229.069 64.459 C 229.214 63.760,229.475 62.940,229.650 62.636 C 229.825 62.332,230.022 61.822,230.089 61.502 C 230.156 61.182,230.378 60.694,230.583 60.418 C 230.788 60.142,231.004 59.658,231.064 59.341 C 231.123 59.025,231.315 58.612,231.491 58.425 C 231.813 58.080,232.353 56.772,233.098 54.530 C 233.321 53.860,233.605 53.110,233.729 52.864 C 233.853 52.618,233.996 52.091,234.047 51.692 C 234.098 51.293,234.295 50.802,234.484 50.600 C 234.674 50.398,234.938 49.873,235.070 49.434 C 235.202 48.995,235.419 48.511,235.553 48.359 C 235.805 48.073,236.511 46.470,236.960 45.167 C 237.380 43.946,237.388 43.942,239.063 44.061 C 241.122 44.207,241.554 44.835,240.583 46.266 C 240.354 46.604,240.167 47.080,240.167 47.324 C 240.167 47.569,239.979 48.023,239.750 48.333 C 239.521 48.644,239.333 48.985,239.333 49.092 C 239.333 49.199,239.118 49.691,238.855 50.185 C 238.592 50.679,238.320 51.346,238.251 51.667 C 238.182 51.987,237.984 52.530,237.811 52.872 C 237.638 53.214,237.395 53.976,237.272 54.564 C 237.149 55.152,236.895 55.885,236.708 56.192 C 236.522 56.499,236.320 56.984,236.259 57.271 C 236.199 57.557,235.973 57.957,235.757 58.160 C 235.542 58.362,235.314 58.799,235.252 59.130 C 235.190 59.461,234.997 59.998,234.822 60.324 C 234.246 61.401,233.632 63.066,233.376 64.250 C 233.237 64.892,232.983 65.595,232.812 65.813 C 232.641 66.032,232.418 66.518,232.317 66.895 C 232.215 67.272,231.998 67.768,231.835 67.998 C 231.672 68.228,231.458 68.707,231.360 69.061 C 231.263 69.416,231.062 69.839,230.915 70.002 C 230.589 70.362,229.919 72.140,229.471 73.833 C 229.289 74.521,229.004 75.308,228.838 75.583 C 228.671 75.858,228.483 76.405,228.419 76.797 C 228.355 77.190,228.134 77.715,227.928 77.964 C 227.423 78.575,226.571 80.292,226.420 81.005 C 226.352 81.323,226.127 81.809,225.920 82.085 C 225.713 82.361,225.488 82.848,225.419 83.168 C 225.022 85.010,224.275 86.766,223.541 87.579 C 223.125 88.040,222.686 88.651,222.565 88.938 C 222.012 90.251,220.397 91.349,218.417 91.759 C 217.867 91.873,216.854 92.093,216.167 92.249 C 213.277 92.903,212.132 92.474,212.202 90.766 L 212.250 89.583 214.308 89.478 C 215.990 89.392,216.447 89.312,216.813 89.042 C 217.059 88.860,217.568 88.554,217.943 88.362 C 219.284 87.678,221.167 84.868,221.167 83.550 C 221.167 83.241,221.360 82.803,221.667 82.417 C 221.946 82.065,222.167 81.587,222.167 81.334 C 222.167 81.084,222.369 80.588,222.615 80.232 C 223.184 79.410,223.215 78.539,222.701 77.844 C 222.494 77.565,222.281 77.092,222.226 76.793 C 222.172 76.494,221.950 75.985,221.733 75.661 C 221.516 75.338,221.261 74.663,221.166 74.161 C 220.890 72.696,220.232 71.079,218.649 67.970 C 218.384 67.450,218.167 66.932,218.167 66.819 C 218.167 66.707,217.978 66.367,217.747 66.065 C 217.516 65.762,217.259 65.155,217.175 64.716 C 216.974 63.662,216.035 60.876,215.717 60.390 C 215.579 60.179,215.396 59.694,215.310 59.311 C 215.224 58.929,214.969 58.397,214.743 58.128 C 214.518 57.860,214.333 57.499,214.333 57.326 C 214.333 57.153,214.105 56.751,213.825 56.432 C 213.502 56.065,213.263 55.560,213.171 55.052 C 213.091 54.611,212.715 53.425,212.335 52.417 C 211.956 51.408,211.536 50.248,211.403 49.838 C 211.269 49.427,210.983 48.827,210.766 48.504 C 210.549 48.181,210.321 47.696,210.258 47.427 C 210.196 47.157,209.999 46.732,209.820 46.482 C 209.575 46.138,209.167 44.735,209.167 44.238 C 209.167 43.989,212.173 43.967,212.667 44.213 M321.259 44.125 C 321.495 44.293,322.500 46.259,322.500 46.554 C 322.500 46.683,322.652 46.981,322.837 47.217 C 323.022 47.452,323.280 47.947,323.411 48.316 C 323.541 48.685,323.807 49.204,324.003 49.468 C 324.198 49.733,324.400 50.279,324.452 50.683 C 324.504 51.086,324.658 51.637,324.794 51.907 C 324.930 52.177,325.173 52.854,325.332 53.412 C 325.627 54.444,326.202 55.816,326.906 57.167 C 327.120 57.579,327.348 58.162,327.412 58.462 C 327.476 58.762,327.699 59.212,327.907 59.462 C 328.115 59.712,328.339 60.217,328.405 60.583 C 328.471 60.950,328.625 61.407,328.749 61.598 C 328.872 61.790,329.060 62.278,329.166 62.682 C 329.407 63.598,330.375 66.141,330.905 67.250 C 331.123 67.708,331.636 68.798,332.043 69.671 C 333.216 72.188,334.519 72.694,335.082 70.851 C 335.149 70.632,335.576 69.673,336.029 68.720 C 336.483 67.767,336.970 66.597,337.110 66.119 C 337.250 65.641,337.508 65.016,337.683 64.730 C 337.857 64.445,338.000 63.912,338.000 63.547 C 338.000 63.086,338.151 62.660,338.497 62.150 C 338.770 61.747,338.996 61.304,338.998 61.167 C 339.000 61.029,339.226 60.579,339.500 60.167 C 339.774 59.754,340.000 59.304,340.001 59.167 C 340.002 59.029,340.187 58.522,340.411 58.040 C 340.922 56.942,341.758 54.515,342.001 53.419 C 342.102 52.963,342.293 52.470,342.425 52.324 C 342.557 52.178,342.769 51.712,342.897 51.288 C 343.024 50.864,343.287 50.316,343.481 50.070 C 343.675 49.823,343.833 49.538,343.833 49.436 C 343.833 49.334,344.055 48.800,344.327 48.250 C 345.051 46.784,345.833 44.897,345.833 44.617 C 345.833 44.100,346.294 43.951,347.544 44.067 C 348.207 44.128,348.999 44.173,349.304 44.167 C 349.973 44.152,350.049 44.874,349.388 44.968 C 349.054 45.016,349.033 45.089,349.120 45.926 C 349.201 46.715,349.157 46.912,348.782 47.458 C 348.545 47.802,348.281 48.396,348.196 48.779 C 348.111 49.161,347.895 49.686,347.715 49.945 C 347.198 50.694,346.199 53.020,346.082 53.750 C 346.024 54.117,345.828 54.669,345.649 54.978 C 345.469 55.286,345.279 55.886,345.227 56.311 C 345.175 56.736,345.003 57.271,344.844 57.500 C 344.411 58.123,343.167 60.726,343.167 61.007 C 343.167 61.142,342.987 61.590,342.769 62.001 C 342.550 62.413,342.255 63.138,342.115 63.612 C 341.974 64.086,341.777 64.628,341.676 64.816 C 341.575 65.004,341.418 65.551,341.327 66.032 C 341.236 66.513,340.980 67.171,340.758 67.495 C 340.536 67.818,340.302 68.298,340.238 68.559 C 340.174 68.821,339.731 69.796,339.255 70.726 C 338.778 71.656,338.297 72.783,338.186 73.231 C 338.075 73.678,337.848 74.316,337.682 74.647 C 337.516 74.979,337.336 75.642,337.282 76.122 C 337.222 76.650,337.016 77.240,336.758 77.619 C 336.525 77.963,336.333 78.362,336.333 78.506 C 336.333 78.651,336.148 79.020,335.921 79.328 C 335.694 79.635,335.423 80.156,335.319 80.485 C 335.110 81.144,334.366 82.822,333.751 84.021 C 333.534 84.446,333.302 85.083,333.236 85.438 C 333.110 86.118,332.262 87.921,331.990 88.089 C 331.903 88.144,331.418 88.746,330.914 89.427 C 330.410 90.109,329.900 90.667,329.781 90.667 C 329.662 90.667,329.312 90.853,329.003 91.081 C 328.694 91.309,328.173 91.539,327.845 91.591 C 327.518 91.643,326.575 91.850,325.750 92.051 C 322.230 92.909,320.667 92.534,320.667 90.831 C 320.667 89.468,320.502 89.558,323.215 89.444 C 324.774 89.379,325.096 89.314,325.634 88.958 C 325.975 88.732,326.420 88.495,326.623 88.431 C 327.575 88.129,329.733 84.889,330.074 83.250 C 330.173 82.776,330.812 81.318,331.513 79.967 C 331.893 79.236,331.920 78.697,331.600 78.241 C 331.471 78.057,331.282 77.594,331.179 77.211 C 331.076 76.828,330.812 76.302,330.593 76.042 C 330.374 75.781,330.140 75.272,330.074 74.909 C 330.008 74.547,329.827 74.063,329.672 73.833 C 329.517 73.604,329.295 72.967,329.178 72.417 C 328.959 71.384,328.286 69.643,327.599 68.333 C 327.383 67.921,327.149 67.396,327.080 67.167 C 327.011 66.938,326.787 66.549,326.581 66.304 C 326.376 66.058,326.156 65.579,326.092 65.239 C 326.029 64.899,325.819 64.409,325.628 64.150 C 325.436 63.890,325.224 63.275,325.158 62.783 C 325.043 61.935,324.477 60.435,323.574 58.581 C 323.350 58.121,323.167 57.626,323.167 57.479 C 323.167 57.333,322.969 56.922,322.727 56.565 C 322.485 56.209,322.212 55.692,322.120 55.417 C 322.029 55.142,321.807 54.754,321.627 54.555 C 321.426 54.333,321.254 53.818,321.181 53.222 C 321.116 52.687,320.944 52.025,320.799 51.750 C 320.654 51.475,320.446 50.918,320.336 50.511 C 320.227 50.105,319.955 49.505,319.732 49.178 C 319.509 48.851,319.245 48.284,319.146 47.918 C 319.047 47.552,318.813 47.039,318.627 46.778 C 318.441 46.517,318.252 45.973,318.206 45.571 C 318.161 45.168,318.021 44.753,317.895 44.649 C 317.334 44.183,317.653 44.048,319.375 44.024 C 320.315 44.011,321.162 44.057,321.259 44.125 M292.580 46.152 C 290.184 46.342,285.602 49.938,284.916 52.167 C 284.846 52.396,284.573 52.988,284.311 53.482 C 284.048 53.976,283.833 54.642,283.833 54.961 C 283.833 55.281,283.711 56.257,283.562 57.132 C 283.229 59.088,283.324 64.239,283.738 66.642 C 284.491 71.008,287.279 74.495,291.000 75.721 C 291.412 75.857,292.050 76.085,292.417 76.227 C 292.842 76.392,293.626 76.485,294.583 76.485 C 295.541 76.485,296.325 76.392,296.750 76.227 C 297.117 76.085,297.754 75.853,298.167 75.712 C 300.984 74.750,304.155 71.421,304.389 69.179 C 304.447 68.629,304.679 67.819,304.905 67.381 C 305.818 65.608,305.787 56.657,304.861 54.913 C 304.666 54.544,304.443 53.794,304.366 53.246 C 304.212 52.151,303.404 50.712,302.453 49.840 C 302.158 49.570,301.335 48.816,300.623 48.164 C 298.527 46.245,296.810 45.815,292.580 46.152 M296.554 46.838 C 299.616 47.280,303.363 50.848,304.002 53.928 C 304.108 54.437,304.345 55.194,304.529 55.610 C 305.248 57.235,305.247 65.221,304.528 66.917 C 304.334 67.375,304.096 68.112,304.001 68.554 C 303.395 71.347,300.403 74.482,297.530 75.336 C 291.605 77.095,286.337 73.813,284.551 67.250 C 283.896 64.844,283.853 58.047,284.475 55.444 C 285.948 49.286,290.593 45.976,296.554 46.838 " stroke="none" fill="#5c657e" fill-rule="evenodd"></path><path id="path4" d="M251.686 29.147 C 251.201 29.632,251.135 34.034,251.196 62.000 C 251.253 88.185,251.230 87.419,251.981 87.776 C 252.407 87.979,260.982 88.043,262.348 87.854 C 263.881 87.641,264.000 87.495,264.000 85.822 C 264.000 84.052,264.097 84.101,260.397 83.999 C 256.990 83.906,256.926 83.884,256.658 82.732 C 256.429 81.743,256.454 34.682,256.684 34.021 C 256.935 33.301,257.264 33.167,258.781 33.165 C 263.069 33.161,264.000 32.779,264.000 31.028 C 264.000 28.824,264.059 28.843,257.125 28.837 C 252.324 28.834,251.980 28.853,251.686 29.147 M361.719 29.017 C 361.106 29.194,361.005 29.429,360.909 30.899 C 360.792 32.693,361.757 33.158,365.607 33.164 C 367.183 33.166,367.522 33.215,367.857 33.485 L 368.250 33.804 368.250 58.481 L 368.250 83.157 367.871 83.536 C 367.511 83.896,367.337 83.920,364.399 83.999 C 360.686 84.100,360.763 84.057,360.878 85.970 C 360.967 87.442,361.115 87.621,362.426 87.836 C 363.735 88.050,372.183 88.049,372.747 87.834 C 373.811 87.430,373.745 89.236,373.795 59.087 C 373.842 30.656,373.821 29.664,373.156 29.125 C 372.751 28.796,362.806 28.703,361.719 29.017 M262.976 29.750 C 263.181 29.965,263.326 30.425,263.385 31.045 C 263.518 32.437,263.417 32.480,259.821 32.582 C 256.506 32.676,256.292 32.770,256.086 34.205 C 255.934 35.269,256.062 83.373,256.218 83.686 C 256.484 84.220,257.142 84.333,259.989 84.333 C 263.470 84.333,263.572 84.381,263.376 85.915 C 263.182 87.435,263.258 87.417,257.298 87.417 C 252.766 87.417,252.320 87.391,252.048 87.119 C 251.625 86.697,251.578 29.766,252.000 29.493 C 252.547 29.138,262.618 29.375,262.976 29.750 M372.905 29.595 C 373.355 30.045,373.299 86.466,372.848 87.023 C 372.312 87.686,362.446 87.679,361.783 87.016 C 361.685 86.918,361.571 86.375,361.530 85.808 C 361.424 84.334,361.425 84.333,365.032 84.333 C 368.495 84.333,368.567 84.304,368.745 82.805 C 368.960 80.991,368.766 33.611,368.542 33.220 C 368.248 32.706,368.063 32.674,364.979 32.604 C 361.538 32.525,361.500 32.508,361.500 31.077 C 361.500 29.252,361.226 29.333,367.405 29.333 C 371.944 29.333,372.678 29.368,372.905 29.595 M74.333 44.782 C 73.769 44.984,73.667 45.382,73.667 47.376 C 73.667 59.437,70.762 63.499,62.136 63.500 C 61.156 63.500,59.844 63.606,59.219 63.735 C 57.995 63.988,52.553 64.103,46.167 64.009 C 41.651 63.943,41.127 64.085,38.604 66.056 C 37.865 66.634,36.669 68.906,36.664 69.741 C 36.662 70.021,36.550 70.925,36.414 71.750 C 36.047 73.988,36.054 88.666,36.424 90.085 C 37.470 94.101,42.364 96.869,49.083 97.246 C 50.092 97.302,51.467 97.425,52.140 97.519 C 52.998 97.638,53.892 97.633,55.140 97.501 C 56.117 97.398,57.915 97.247,59.135 97.166 C 65.141 96.769,69.952 94.116,70.419 90.944 C 70.582 89.840,70.438 82.537,70.250 82.351 C 70.148 82.249,67.248 82.151,62.750 82.096 C 55.271 82.004,53.756 81.904,53.484 81.486 C 52.992 80.729,53.123 79.812,53.787 79.377 C 54.203 79.104,55.135 79.080,66.909 79.033 L 79.583 78.982 81.083 78.481 C 84.532 77.329,87.472 73.917,88.147 70.284 C 88.236 69.807,88.396 69.192,88.504 68.917 C 88.770 68.235,89.002 65.931,89.115 62.833 C 89.450 53.696,86.512 46.818,81.576 45.181 C 80.069 44.681,75.344 44.421,74.333 44.782 M80.679 45.404 C 81.085 45.534,81.689 45.686,82.022 45.741 C 82.931 45.891,85.923 49.071,86.734 50.750 C 87.371 52.069,87.827 53.998,88.150 56.750 C 88.248 57.575,88.402 58.737,88.493 59.333 C 88.737 60.919,88.703 63.450,88.417 64.944 C 88.279 65.662,88.167 66.544,88.167 66.902 C 88.167 67.846,87.676 70.434,87.295 71.500 C 86.224 74.496,83.230 77.644,81.114 78.000 C 80.639 78.080,80.025 78.224,79.750 78.321 C 79.421 78.436,74.952 78.511,66.667 78.540 C 52.470 78.589,53.022 78.540,52.682 79.772 C 51.969 82.355,52.569 82.497,64.147 82.477 C 68.775 82.470,69.905 82.511,70.024 82.692 C 70.105 82.816,70.151 84.765,70.127 87.024 L 70.083 91.132 69.295 92.286 C 67.868 94.373,66.819 94.967,62.750 95.994 C 58.360 97.102,49.465 97.290,46.279 96.342 C 45.713 96.174,44.650 95.903,43.917 95.741 C 43.183 95.578,42.246 95.270,41.835 95.056 C 41.423 94.842,41.020 94.667,40.940 94.667 C 40.707 94.667,39.358 93.800,38.677 93.213 C 38.298 92.887,37.831 92.201,37.485 91.463 L 36.917 90.250 36.917 81.333 C 36.917 67.595,36.964 67.397,40.781 65.229 L 41.917 64.583 45.917 64.635 C 48.117 64.664,50.667 64.696,51.583 64.708 C 52.500 64.720,54.712 64.634,56.500 64.519 C 58.288 64.403,60.762 64.247,62.000 64.172 C 65.529 63.957,67.990 63.213,70.250 61.678 C 72.844 59.916,74.333 54.793,74.333 47.627 C 74.333 46.089,74.387 45.637,74.595 45.429 C 74.955 45.069,79.579 45.050,80.679 45.404 M104.200 45.700 C 103.816 46.084,103.928 52.283,104.322 52.494 C 104.918 52.813,109.405 52.714,109.826 52.372 C 110.273 52.011,110.431 46.269,110.008 45.760 C 109.729 45.424,104.530 45.370,104.200 45.700 M109.407 45.817 C 109.764 45.956,109.869 51.698,109.521 52.045 C 109.349 52.218,104.733 52.311,104.469 52.147 C 104.263 52.020,104.236 46.196,104.441 45.994 C 104.698 45.739,108.831 45.591,109.407 45.817 M105.500 71.780 C 103.893 71.945,103.873 72.000,103.993 75.806 C 104.106 79.412,103.862 79.161,107.200 79.116 C 109.455 79.087,109.717 79.052,109.930 78.760 C 110.216 78.368,110.274 72.846,109.998 72.330 C 109.692 71.758,107.872 71.536,105.500 71.780 M109.464 72.539 C 109.805 72.823,109.686 78.281,109.333 78.504 C 108.839 78.816,104.698 78.705,104.526 78.375 C 104.223 77.793,104.188 72.812,104.485 72.515 C 104.805 72.195,109.074 72.215,109.464 72.539 M62.417 85.758 C 61.958 85.883,61.530 85.989,61.464 85.993 C 60.782 86.035,59.335 88.252,59.339 89.250 C 59.346 91.039,61.474 93.064,63.346 93.064 C 66.579 93.064,68.207 88.112,65.569 86.302 C 64.970 85.891,64.703 85.794,63.625 85.599 C 63.419 85.561,62.875 85.633,62.417 85.758 M64.083 86.184 C 67.228 86.976,67.186 91.399,64.024 92.346 C 62.292 92.865,59.990 91.085,60.004 89.239 C 60.012 88.094,61.254 86.467,62.295 86.238 C 62.545 86.183,62.825 86.112,62.917 86.082 C 63.208 85.985,63.336 85.996,64.083 86.184 " stroke="none" fill="#5c657e" fill-rule="evenodd"></path></g></svg>