<svg id="svg" version="1.1" xmlns="http://www.w3.org/2000/svg" xmlns:xlink="http://www.w3.org/1999/xlink" width="400" height="79.52286282306163" viewBox="0, 0, 400,79.52286282306163"><g id="svgg"><path id="path0" d="M353.750 8.839 C 351.265 9.496,350.305 12.550,351.708 15.329 C 353.122 18.130,358.687 17.548,359.316 14.533 C 360.236 10.121,357.907 7.739,353.750 8.839 M224.691 9.221 C 224.563 9.375,224.494 12.530,224.462 19.632 C 224.420 28.994,224.393 29.845,224.131 30.107 C 223.687 30.551,223.108 30.176,222.379 28.973 C 219.717 24.580,213.948 22.754,208.333 24.528 C 203.625 26.015,199.889 31.016,199.079 36.917 C 198.649 40.049,198.314 43.400,198.397 43.742 C 198.442 43.930,198.639 45.508,198.833 47.250 C 199.782 55.745,203.635 60.797,210.025 61.921 C 215.238 62.839,220.262 60.920,222.172 57.283 C 222.888 55.919,223.126 55.667,223.697 55.667 C 224.375 55.667,224.500 56.132,224.500 58.668 C 224.500 61.464,224.333 61.333,227.917 61.333 C 230.069 61.333,230.665 61.283,230.963 61.074 L 231.333 60.814 231.333 35.080 C 231.333 9.807,231.328 9.342,231.011 9.173 C 230.506 8.902,224.920 8.945,224.691 9.221 M119.333 12.160 C 118.983 12.386,118.950 60.683,119.300 61.033 C 119.721 61.455,125.563 61.437,125.987 61.013 C 126.329 60.671,126.333 60.561,126.333 51.352 C 126.333 42.431,126.347 42.020,126.652 41.643 L 126.970 41.250 135.443 41.157 L 143.917 41.064 145.167 40.633 C 150.725 38.716,153.522 35.258,154.316 29.322 L 154.685 26.562 154.322 23.907 C 153.485 17.805,150.993 14.609,145.506 12.603 L 144.083 12.083 131.833 12.041 C 124.133 12.014,119.490 12.058,119.333 12.160 M328.631 14.708 C 328.410 14.882,328.352 15.449,328.285 18.083 C 328.141 23.766,327.516 24.667,323.721 24.667 C 321.553 24.667,321.583 24.629,321.583 27.395 C 321.583 30.233,321.411 30.062,324.383 30.167 C 327.831 30.288,327.498 28.928,327.499 42.877 C 327.500 55.362,327.580 56.562,328.502 58.000 C 330.236 60.706,332.577 61.452,338.889 61.307 C 342.024 61.235,341.873 61.388,341.802 58.369 C 341.738 55.652,341.985 55.839,338.466 55.836 C 335.394 55.833,334.946 55.728,334.675 54.952 C 334.425 54.236,334.434 31.739,334.684 31.021 C 334.963 30.222,335.221 30.167,338.656 30.167 C 342.709 30.167,342.500 30.314,342.500 27.454 C 342.500 24.487,342.744 24.667,338.730 24.667 C 334.201 24.667,334.500 25.061,334.500 19.092 C 334.500 16.054,334.445 14.845,334.300 14.700 C 334.014 14.414,328.997 14.422,328.631 14.708 M141.078 18.174 C 143.252 18.489,144.972 19.571,146.000 21.272 L 146.583 22.237 146.583 26.577 L 146.583 30.917 146.131 31.686 C 145.493 32.771,143.970 34.117,143.116 34.349 C 142.731 34.454,142.042 34.662,141.583 34.812 C 140.868 35.045,139.785 35.083,133.944 35.083 L 127.138 35.083 126.736 34.616 L 126.333 34.148 126.333 26.523 C 126.333 18.272,126.313 18.457,127.250 18.178 C 127.943 17.971,139.652 17.968,141.078 18.174 M253.250 24.030 C 249.865 24.335,246.937 25.731,244.403 28.247 C 242.252 30.383,242.248 30.309,244.627 32.547 C 246.496 34.306,246.305 34.298,247.960 32.676 C 250.560 30.127,252.362 29.339,255.583 29.338 C 261.253 29.337,264.198 32.714,263.786 38.742 C 263.654 40.667,263.877 40.594,257.730 40.714 C 244.510 40.974,240.106 44.432,241.154 53.731 C 242.224 63.228,257.442 65.483,262.493 56.893 C 263.594 55.019,264.294 55.117,264.919 57.231 C 265.759 60.069,267.449 61.077,271.699 61.277 C 274.933 61.428,274.833 61.516,274.833 58.517 C 274.833 55.779,274.909 55.887,272.944 55.809 C 270.658 55.718,270.876 56.833,270.793 44.792 L 270.723 34.583 270.295 33.000 C 268.739 27.240,265.038 24.497,258.167 24.008 C 255.496 23.819,255.597 23.818,253.250 24.030 M299.713 24.017 C 296.528 24.387,293.469 26.607,292.055 29.573 C 291.715 30.285,291.114 30.518,290.694 30.099 C 290.468 29.873,290.407 29.395,290.362 27.495 C 290.312 25.336,290.282 25.150,289.950 24.917 C 289.444 24.563,284.222 24.551,283.740 24.903 C 283.325 25.206,283.220 60.620,283.633 61.033 C 283.946 61.347,289.254 61.424,289.833 61.123 L 290.250 60.907 290.333 48.328 C 290.431 33.543,290.337 34.376,292.135 32.470 C 296.187 28.174,303.554 29.047,305.757 34.083 L 306.413 35.583 306.465 48.163 C 306.513 59.639,306.542 60.770,306.796 61.051 C 307.231 61.531,313.073 61.416,313.435 60.921 C 314.178 59.903,313.525 33.348,312.718 31.775 C 312.584 31.513,312.375 30.971,312.254 30.570 C 311.246 27.220,307.472 24.423,303.406 24.014 C 301.433 23.816,301.440 23.816,299.713 24.017 M382.750 24.025 C 374.052 24.783,368.571 32.062,368.588 42.833 C 368.608 55.755,375.760 63.141,387.144 61.996 C 391.908 61.517,395.628 59.434,397.998 55.917 C 399.649 53.467,399.618 53.373,396.678 51.853 C 394.182 50.563,394.181 50.563,393.361 51.931 C 389.099 59.047,379.019 58.012,376.449 50.195 C 375.863 48.414,375.887 37.658,376.481 35.917 C 379.025 28.454,388.672 27.181,392.827 33.760 C 393.651 35.064,393.501 35.060,396.108 33.828 C 399.318 32.311,399.328 32.289,397.862 30.060 C 395.525 26.509,392.153 24.561,387.500 24.075 C 385.026 23.817,385.120 23.818,382.750 24.025 M159.779 24.911 C 159.522 25.168,159.470 24.957,160.756 28.917 C 160.905 29.375,161.165 30.087,161.335 30.500 C 161.641 31.245,163.185 35.631,164.826 40.417 C 165.297 41.792,165.820 43.292,165.988 43.750 C 166.377 44.813,166.960 46.536,167.255 47.500 C 167.382 47.913,167.706 48.850,167.975 49.583 C 168.923 52.165,170.033 55.260,170.334 56.167 C 170.502 56.671,171.094 58.396,171.650 60.000 C 172.827 63.394,172.839 63.550,172.072 65.750 C 171.753 66.667,171.345 67.873,171.164 68.431 C 170.641 70.051,170.600 70.070,167.310 70.167 C 163.928 70.267,164.173 70.051,164.169 72.933 C 164.166 75.896,163.954 75.738,167.788 75.621 C 174.221 75.424,175.799 74.390,177.890 68.998 C 179.382 65.152,179.500 64.828,179.500 64.572 C 179.500 64.432,179.621 64.084,179.768 63.799 C 179.915 63.514,180.170 62.824,180.335 62.266 C 180.500 61.707,180.870 60.612,181.158 59.833 C 181.446 59.054,181.786 58.079,181.913 57.667 C 182.125 56.981,182.909 54.764,183.917 52.000 C 184.134 51.404,184.512 50.354,184.757 49.667 C 185.002 48.979,185.333 48.079,185.493 47.667 C 185.881 46.668,186.294 45.469,186.669 44.250 C 186.838 43.700,187.209 42.612,187.493 41.833 C 187.777 41.054,188.305 39.554,188.665 38.500 C 189.025 37.446,189.552 35.946,189.836 35.167 C 190.120 34.387,190.657 32.887,191.030 31.833 C 191.403 30.779,191.928 29.317,192.197 28.583 C 193.261 25.683,193.396 24.957,192.903 24.768 C 192.382 24.568,187.600 24.663,187.167 24.882 C 186.772 25.081,185.871 27.370,184.757 31.000 C 184.631 31.412,183.951 33.400,183.247 35.417 C 182.543 37.433,181.827 39.514,181.655 40.040 C 181.484 40.566,181.239 41.204,181.111 41.457 C 180.983 41.710,180.825 42.206,180.761 42.560 C 180.697 42.913,180.510 43.513,180.345 43.893 C 179.894 44.933,179.491 46.145,179.258 47.167 C 179.143 47.671,178.885 48.608,178.684 49.250 C 178.136 51.008,177.694 52.509,177.512 53.228 C 176.875 55.753,175.390 54.238,174.757 50.417 C 174.697 50.050,174.502 49.353,174.324 48.869 C 174.146 48.384,174.000 47.842,174.000 47.665 C 174.000 47.330,172.637 43.171,171.160 39.000 C 170.689 37.671,169.864 35.271,169.327 33.667 C 168.789 32.063,168.228 30.412,168.081 30.000 C 167.933 29.587,167.707 28.912,167.578 28.500 C 166.879 26.256,166.460 25.220,166.146 24.958 C 165.665 24.557,160.174 24.516,159.779 24.911 M352.095 24.929 C 351.860 25.163,351.833 27.032,351.833 43.008 L 351.833 60.826 352.242 61.093 C 352.902 61.526,358.429 61.384,358.764 60.926 C 359.202 60.327,359.108 25.441,358.667 25.000 C 358.212 24.545,352.540 24.484,352.095 24.929 M217.673 29.998 C 219.714 30.293,222.061 31.621,223.207 33.128 C 224.446 34.759,224.417 34.522,224.417 43.000 L 224.417 50.583 224.021 51.583 C 223.276 53.467,220.804 55.401,218.620 55.807 C 215.689 56.351,215.330 56.386,214.459 56.205 C 213.977 56.105,213.208 55.974,212.750 55.913 C 209.884 55.537,207.166 52.589,206.234 48.845 C 205.672 46.588,205.628 39.077,206.167 37.543 C 206.350 37.022,206.500 36.444,206.500 36.260 C 206.500 35.541,207.749 33.418,208.781 32.382 C 210.919 30.238,213.869 29.447,217.673 29.998 M263.282 45.236 C 264.291 46.103,263.987 51.853,262.839 53.616 C 261.898 55.064,259.914 56.325,258.074 56.647 C 251.343 57.823,248.000 55.946,248.000 50.990 C 248.000 47.332,250.083 45.330,254.222 45.011 C 258.415 44.689,262.772 44.796,263.282 45.236 " stroke="none" fill="#5c657e" fill-rule="evenodd"></path><path id="path1" d="M43.776 1.210 C 43.149 1.874,41.292 4.292,39.649 6.583 C 38.006 8.875,35.839 11.875,34.834 13.250 C 33.828 14.625,31.978 17.175,30.721 18.917 C 26.939 24.157,23.680 28.664,21.917 31.091 C 21.000 32.352,19.050 35.046,17.583 37.078 C 13.654 42.520,11.805 45.070,9.680 47.978 C 8.633 49.411,6.726 52.046,5.442 53.833 C 1.982 58.649,0.333 60.833,0.157 60.833 C 0.071 60.833,0.000 61.362,0.000 62.007 L 0.000 63.181 0.958 64.145 C 2.008 65.201,1.923 65.164,7.000 66.804 C 15.219 69.460,22.190 71.736,22.917 72.002 C 23.375 72.170,24.425 72.510,25.250 72.758 C 26.075 73.006,27.275 73.382,27.917 73.595 C 28.558 73.807,30.883 74.555,33.083 75.257 C 40.619 77.661,44.583 79.026,44.717 79.263 C 44.905 79.598,47.259 79.600,47.388 79.266 C 47.475 79.039,55.782 76.250,64.583 73.494 C 65.500 73.207,66.512 72.872,66.833 72.751 C 67.154 72.629,68.842 72.073,70.583 71.514 C 72.325 70.956,74.987 70.095,76.500 69.602 C 78.012 69.109,81.162 68.092,83.500 67.344 C 90.353 65.148,90.788 64.947,91.441 63.667 C 92.268 62.046,91.977 61.133,89.584 57.833 C 88.686 56.596,87.719 55.253,87.434 54.849 C 87.004 54.239,85.276 51.864,81.603 46.833 C 81.302 46.421,80.878 45.821,80.662 45.500 C 80.445 45.179,79.438 43.792,78.423 42.417 C 77.408 41.042,76.023 39.129,75.346 38.167 C 74.668 37.204,73.915 36.154,73.671 35.833 C 73.428 35.512,72.442 34.162,71.479 32.833 C 70.517 31.504,67.855 27.829,65.563 24.667 C 63.272 21.504,60.916 18.242,60.328 17.417 C 59.740 16.592,58.430 14.792,57.417 13.417 C 56.403 12.042,54.771 9.792,53.790 8.417 C 49.894 2.959,48.954 1.716,48.085 0.875 L 47.181 0.000 46.049 0.002 L 44.917 0.004 43.776 1.210 M46.906 10.375 C 47.340 10.935,48.430 12.438,51.583 16.824 C 52.592 18.227,53.787 19.871,54.239 20.479 C 54.691 21.086,56.133 23.083,57.443 24.917 C 58.753 26.750,60.427 29.066,61.163 30.064 C 63.710 33.519,63.821 33.516,54.083 30.243 C 45.418 27.330,46.102 27.344,39.000 29.922 C 35.988 31.016,30.585 32.680,30.194 32.635 C 29.482 32.552,29.555 32.022,30.441 30.821 C 30.876 30.232,32.552 27.912,34.166 25.667 C 35.779 23.421,38.102 20.196,39.327 18.500 C 40.553 16.804,42.228 14.479,43.050 13.333 C 45.824 9.466,46.060 9.284,46.906 10.375 M42.494 36.489 C 42.824 37.106,42.724 70.327,42.391 70.695 C 41.992 71.135,41.819 71.104,38.375 69.979 C 36.656 69.417,33.188 68.284,30.667 67.462 C 28.146 66.639,25.708 65.828,25.250 65.660 C 24.792 65.492,23.067 64.928,21.417 64.408 C 17.515 63.178,11.447 61.216,10.530 60.888 C 8.949 60.322,8.875 60.497,13.250 54.489 C 14.992 52.098,16.867 49.514,17.417 48.747 C 20.563 44.360,21.280 43.399,21.753 42.932 C 22.320 42.374,22.725 42.232,34.417 38.507 C 37.625 37.485,40.512 36.547,40.833 36.424 C 41.701 36.090,42.293 36.113,42.494 36.489 M51.100 36.317 C 64.636 40.534,70.217 42.536,70.862 43.406 C 71.270 43.957,74.591 48.549,78.162 53.500 C 79.385 55.196,80.850 57.221,81.417 58.000 C 83.333 60.631,83.915 60.239,73.000 63.669 C 71.487 64.144,69.875 64.668,69.417 64.834 C 68.958 64.999,65.771 66.051,62.333 67.172 C 58.896 68.292,54.990 69.571,53.654 70.015 C 50.626 71.019,49.986 71.135,49.659 70.740 C 49.306 70.315,49.293 36.867,49.645 36.442 C 49.901 36.134,50.380 36.093,51.100 36.317 " stroke="none" fill="#5c657e" fill-rule="evenodd"></path><path id="path2" d="M0.007 30.292 L 0.014 60.583 0.508 60.005 C 0.780 59.687,2.254 57.700,3.784 55.588 C 5.314 53.477,8.251 49.425,10.311 46.583 C 12.370 43.742,14.492 40.817,15.025 40.083 C 15.558 39.350,17.021 37.325,18.276 35.583 C 19.531 33.842,20.943 31.892,21.414 31.250 C 21.885 30.608,22.948 29.146,23.777 28.000 C 24.605 26.854,26.383 24.400,27.728 22.547 C 29.072 20.693,31.131 17.843,32.304 16.214 C 40.122 5.349,42.957 1.495,43.600 0.861 C 44.004 0.463,44.333 0.107,44.333 0.069 C 44.333 0.031,34.358 0.000,22.167 0.000 L 0.000 0.000 0.007 30.292 M47.941 0.208 C 48.011 0.323,48.235 0.550,48.440 0.712 C 48.645 0.875,49.884 2.488,51.192 4.296 C 52.501 6.104,54.771 9.233,56.237 11.250 C 57.703 13.267,60.036 16.492,61.421 18.417 C 63.675 21.550,69.265 29.269,78.079 41.417 C 79.741 43.708,82.892 48.058,85.080 51.083 C 87.269 54.108,89.581 57.296,90.219 58.167 C 93.190 62.221,92.605 64.916,88.500 66.074 C 87.594 66.330,72.257 71.288,69.917 72.082 C 69.275 72.300,67.063 73.015,65.000 73.672 C 61.576 74.763,58.086 75.895,51.000 78.212 C 49.579 78.676,48.307 79.156,48.173 79.278 C 47.969 79.463,77.390 79.500,223.964 79.500 L 400.000 79.500 399.990 66.958 C 399.983 57.187,399.937 54.486,399.782 54.731 C 397.904 57.702,396.096 59.621,394.068 60.798 C 387.483 64.619,377.268 63.319,372.681 58.077 C 365.809 50.223,366.033 34.798,373.124 27.559 C 379.186 21.370,391.262 21.400,397.012 27.620 C 397.937 28.621,399.500 30.810,399.500 31.105 C 399.500 31.196,399.610 31.415,399.745 31.593 C 399.960 31.878,399.990 30.026,399.995 15.958 L 400.000 0.000 223.907 0.000 C 83.076 0.000,47.839 0.042,47.941 0.208 M357.684 8.079 C 361.426 9.391,361.333 16.542,357.559 17.666 C 353.028 19.016,349.605 16.223,350.330 11.768 C 350.872 8.442,354.100 6.822,357.684 8.079 M231.210 8.176 C 232.433 8.515,232.341 6.218,232.293 35.321 L 232.250 61.529 231.857 61.848 C 231.413 62.207,224.804 62.341,224.173 62.004 C 223.708 61.755,223.500 60.930,223.500 59.336 C 223.500 57.422,223.539 57.421,221.602 59.394 C 217.155 63.922,210.039 64.376,204.417 60.490 C 196.393 54.942,195.168 36.206,202.267 27.600 C 207.072 21.774,216.403 21.342,221.691 26.700 C 222.894 27.919,223.325 28.263,223.400 28.068 C 223.455 27.924,223.500 23.646,223.500 18.561 C 223.500 8.321,223.483 8.492,224.544 8.186 C 225.290 7.970,230.442 7.963,231.210 8.176 M45.549 10.542 C 45.212 10.910,44.084 12.447,39.769 18.417 C 38.576 20.067,37.164 22.017,36.630 22.750 C 36.097 23.483,35.124 24.833,34.469 25.750 C 33.814 26.667,32.623 28.318,31.822 29.419 C 30.212 31.633,30.031 32.052,30.648 32.140 C 30.989 32.188,36.147 30.615,38.750 29.669 C 44.990 27.401,46.063 27.287,49.735 28.494 C 51.118 28.949,54.304 29.999,56.815 30.827 C 61.699 32.439,61.794 32.462,61.938 32.088 C 62.050 31.796,62.144 31.932,53.395 19.833 C 52.566 18.688,50.779 16.212,49.424 14.333 C 46.773 10.658,46.379 10.167,46.083 10.167 C 45.978 10.167,45.737 10.335,45.549 10.542 M144.417 11.405 C 150.963 12.993,154.634 17.463,155.359 24.731 C 156.058 31.749,153.055 37.989,147.761 40.518 C 144.797 41.934,144.310 41.992,135.490 41.996 C 129.201 41.999,127.841 42.041,127.574 42.236 C 127.261 42.465,127.248 42.791,127.202 51.979 L 127.154 61.486 126.721 61.826 C 126.077 62.333,119.265 62.351,118.643 61.848 L 118.250 61.529 118.250 36.583 L 118.250 11.637 118.643 11.319 C 119.023 11.012,119.468 11.000,130.893 11.000 L 142.750 11.000 144.417 11.405 M334.931 14.051 L 335.333 14.519 335.333 18.893 C 335.333 22.072,335.388 23.321,335.533 23.467 C 335.674 23.607,336.610 23.667,338.679 23.667 C 343.300 23.667,343.218 23.611,343.309 26.794 C 343.431 31.057,343.587 30.895,339.289 31.000 C 336.748 31.062,335.814 31.141,335.609 31.312 C 335.290 31.577,335.181 54.000,335.496 54.500 C 335.624 54.702,336.244 54.766,338.758 54.833 L 341.863 54.917 342.265 55.384 C 342.893 56.116,342.888 61.127,342.258 61.758 L 341.848 62.167 337.799 62.164 C 332.368 62.160,331.022 61.819,329.038 59.942 C 326.619 57.654,326.617 57.641,326.541 43.250 C 326.502 35.812,326.418 31.355,326.315 31.250 C 326.225 31.158,325.093 31.046,323.801 31.000 C 320.680 30.889,320.750 30.969,320.750 27.530 C 320.750 23.785,320.843 23.667,323.803 23.667 C 327.107 23.667,327.220 23.493,327.333 18.225 C 327.443 13.140,327.091 13.521,331.640 13.559 L 334.530 13.583 334.931 14.051 M127.795 18.948 C 127.227 19.097,127.151 20.128,127.201 27.016 C 127.248 33.404,127.264 33.704,127.574 33.930 C 128.046 34.276,139.579 34.273,141.387 33.927 C 145.036 33.229,145.917 31.768,145.917 26.417 C 145.917 21.132,144.886 19.704,140.566 18.996 C 139.609 18.840,128.370 18.797,127.795 18.948 M257.583 23.010 C 265.046 23.656,269.214 26.414,270.930 31.842 C 271.567 33.856,271.651 35.442,271.659 45.508 C 271.668 55.624,271.538 54.833,273.189 54.833 C 275.406 54.833,275.667 55.215,275.666 58.453 C 275.664 62.179,275.676 62.167,272.112 62.167 C 267.599 62.167,265.928 61.301,264.315 58.125 C 263.702 56.917,263.707 56.916,262.572 58.424 C 260.228 61.539,256.936 63.000,252.264 63.000 C 244.673 63.000,240.062 58.638,240.108 51.500 C 240.161 43.118,245.867 39.671,259.688 39.667 C 263.121 39.667,262.904 39.849,262.794 37.040 C 262.596 32.011,260.504 30.207,255.055 30.367 C 251.901 30.459,250.968 30.882,248.488 33.346 C 246.322 35.497,246.556 35.520,243.713 32.869 C 241.165 30.493,241.159 30.325,243.535 27.891 C 246.436 24.919,249.604 23.453,254.083 23.010 C 254.817 22.938,255.454 22.869,255.500 22.858 C 255.546 22.846,256.483 22.915,257.583 23.010 M304.558 23.269 C 307.850 23.892,309.912 25.268,311.872 28.151 C 314.285 31.698,314.541 33.858,314.468 50.056 L 314.417 61.530 314.023 61.848 C 313.369 62.378,306.468 62.333,306.093 61.796 C 305.864 61.470,305.833 60.135,305.833 50.671 C 305.833 35.980,305.668 34.581,303.679 32.444 C 300.746 29.293,293.571 30.498,291.712 34.455 C 291.439 35.035,291.410 36.094,291.333 48.167 C 291.247 61.705,291.242 61.808,290.574 62.064 C 290.427 62.120,288.752 62.167,286.852 62.167 C 282.993 62.167,282.909 62.145,282.661 61.079 C 282.461 60.214,282.458 25.799,282.658 24.935 C 282.934 23.746,282.920 23.750,286.918 23.750 C 291.398 23.750,291.209 23.642,291.333 26.283 C 291.436 28.468,291.511 28.502,292.806 26.936 C 295.607 23.550,299.545 22.321,304.558 23.269 M166.613 24.099 C 167.121 24.476,167.147 24.538,168.945 29.833 C 169.552 31.621,170.604 34.696,171.283 36.667 C 173.409 42.843,174.455 46.026,174.926 47.750 C 176.529 53.617,176.454 53.534,177.378 50.417 C 178.234 47.532,180.274 41.318,182.247 35.583 C 183.131 33.017,184.187 29.942,184.595 28.750 C 186.470 23.276,185.938 23.769,190.053 23.696 C 193.347 23.638,193.885 23.733,194.203 24.430 C 194.432 24.933,194.466 24.819,192.426 30.458 C 192.203 31.077,191.298 33.646,190.417 36.167 C 189.535 38.688,188.636 41.237,188.418 41.833 C 188.201 42.429,187.713 43.817,187.335 44.917 C 186.295 47.944,183.346 56.327,183.054 57.083 C 182.913 57.450,182.701 58.050,182.582 58.417 C 182.464 58.783,182.094 59.833,181.760 60.750 C 181.426 61.667,180.859 63.279,180.500 64.333 C 180.140 65.387,179.576 67.000,179.246 67.917 C 178.916 68.833,178.530 69.905,178.389 70.297 C 176.766 74.804,173.798 76.490,167.477 76.497 C 163.105 76.501,163.417 76.770,163.417 73.001 L 163.417 70.138 163.884 69.736 C 164.333 69.349,164.450 69.333,166.829 69.333 C 170.198 69.333,169.914 69.570,171.156 65.721 L 171.864 63.526 171.585 62.554 C 171.432 62.020,170.819 60.196,170.224 58.500 C 169.629 56.804,168.443 53.429,167.589 51.000 C 166.735 48.571,165.909 46.208,165.753 45.750 C 165.062 43.722,163.960 40.561,163.166 38.333 C 162.692 37.004,162.168 35.504,162.001 35.000 C 161.722 34.157,161.130 32.453,159.337 27.335 C 158.651 25.376,158.506 24.338,158.875 24.038 C 159.521 23.514,165.892 23.563,166.613 24.099 M359.371 24.130 L 359.750 24.509 359.750 43.019 L 359.750 61.529 359.357 61.848 C 358.996 62.140,358.659 62.167,355.319 62.167 L 351.674 62.167 351.379 61.716 C 350.965 61.083,350.915 24.754,351.328 24.257 C 351.766 23.728,352.208 23.672,355.621 23.711 C 358.881 23.749,359.004 23.762,359.371 24.130 M383.032 30.667 C 378.382 31.652,376.835 34.772,376.835 43.167 C 376.834 52.173,378.685 55.176,384.500 55.606 C 388.129 55.874,390.558 54.698,392.462 51.750 C 393.980 49.400,393.796 49.423,397.209 51.167 C 398.644 51.900,399.859 52.500,399.909 52.500 C 399.959 52.500,399.997 47.981,399.994 42.458 L 399.988 32.417 399.619 32.867 C 399.278 33.283,396.465 34.725,394.427 35.529 C 393.264 35.987,392.951 35.854,392.304 34.624 C 390.607 31.402,386.944 29.839,383.032 30.667 M212.836 31.012 C 208.327 32.192,206.834 35.154,206.834 42.917 C 206.834 49.333,207.228 50.913,209.358 53.025 C 213.437 57.069,222.307 55.529,223.330 50.599 C 223.726 48.693,223.482 35.382,223.035 34.475 C 221.582 31.526,216.919 29.943,212.836 31.012 M41.417 36.583 C 41.325 36.614,38.400 37.556,34.917 38.676 C 25.921 41.570,22.716 42.629,22.331 42.834 C 21.964 43.031,21.245 43.977,16.633 50.333 C 9.247 60.512,9.491 60.098,10.625 60.542 C 11.400 60.846,17.895 62.980,21.917 64.252 C 23.567 64.773,25.292 65.336,25.750 65.502 C 26.208 65.668,28.946 66.569,31.833 67.504 C 34.721 68.439,38.094 69.537,39.330 69.945 C 41.131 70.538,41.652 70.651,41.955 70.513 L 42.333 70.340 42.333 53.682 C 42.333 35.482,42.375 36.258,41.417 36.583 M49.938 36.854 C 49.532 37.432,49.521 69.718,49.926 70.296 C 50.272 70.789,50.276 70.789,53.115 69.851 C 54.472 69.402,58.396 68.120,61.833 67.002 C 65.271 65.884,68.608 64.792,69.250 64.576 C 69.892 64.360,72.892 63.385,75.917 62.410 C 83.161 60.076,82.794 60.394,81.029 57.975 C 79.595 56.010,76.326 51.490,73.048 46.937 C 69.924 42.599,70.433 42.972,65.333 41.278 C 50.677 36.412,50.319 36.309,49.938 36.854 M254.500 45.786 C 250.194 46.058,248.030 49.085,249.180 53.226 C 250.240 57.041,259.057 57.180,261.920 53.427 C 262.884 52.164,263.342 46.284,262.511 45.839 C 262.210 45.678,256.776 45.642,254.500 45.786 M0.000 71.667 L 0.000 79.500 22.117 79.500 C 38.136 79.500,44.183 79.450,44.051 79.318 C 43.848 79.115,41.032 78.157,33.583 75.759 C 30.833 74.874,28.171 74.012,27.667 73.843 C 27.162 73.675,25.400 73.107,23.750 72.582 C 22.100 72.056,19.325 71.157,17.583 70.584 C 14.165 69.458,4.287 66.257,3.333 65.966 C 2.341 65.663,1.610 65.223,0.925 64.514 C 0.562 64.140,0.206 63.833,0.133 63.833 C 0.060 63.833,0.000 67.358,0.000 71.667 " stroke="none" fill="#1e2129" fill-rule="evenodd"></path><path id="path3" d="M43.644 0.797 C 42.966 1.487,39.931 5.614,32.304 16.214 C 31.131 17.843,29.072 20.693,27.728 22.547 C 26.383 24.400,24.605 26.854,23.777 28.000 C 22.948 29.146,21.885 30.608,21.414 31.250 C 20.943 31.892,19.531 33.842,18.276 35.583 C 17.021 37.325,15.558 39.350,15.025 40.083 C 12.806 43.134,6.408 51.967,4.340 54.833 C 3.117 56.529,1.640 58.537,1.058 59.294 C 0.476 60.052,0.000 60.708,0.000 60.753 C 0.000 61.282,1.050 59.946,5.442 53.833 C 6.726 52.046,8.633 49.411,9.680 47.978 C 11.805 45.070,13.654 42.520,17.583 37.078 C 19.050 35.046,21.000 32.352,21.917 31.091 C 24.453 27.601,28.328 22.241,30.833 18.758 C 32.071 17.038,33.871 14.558,34.833 13.248 C 35.796 11.938,37.971 8.929,39.667 6.561 C 41.362 4.193,43.219 1.777,43.792 1.191 C 44.365 0.604,44.833 0.097,44.833 0.062 C 44.833 -0.197,44.291 0.138,43.644 0.797 M47.333 0.086 C 47.333 0.133,47.707 0.527,48.164 0.961 C 48.960 1.717,49.850 2.897,53.790 8.417 C 54.771 9.792,56.403 12.042,57.417 13.417 C 58.430 14.792,59.740 16.592,60.328 17.417 C 60.916 18.242,63.272 21.504,65.563 24.667 C 67.855 27.829,70.517 31.504,71.479 32.833 C 72.442 34.162,73.428 35.512,73.671 35.833 C 73.915 36.154,74.668 37.204,75.346 38.167 C 76.023 39.129,77.408 41.042,78.423 42.417 C 79.438 43.792,80.445 45.179,80.662 45.500 C 80.878 45.821,81.302 46.421,81.603 46.833 C 85.276 51.864,87.004 54.239,87.434 54.849 C 87.719 55.253,88.686 56.596,89.584 57.833 C 91.977 61.133,92.268 62.046,91.441 63.667 C 90.788 64.947,90.353 65.148,83.500 67.344 C 81.162 68.092,78.012 69.109,76.500 69.602 C 74.987 70.095,72.325 70.956,70.583 71.514 C 68.842 72.073,67.154 72.629,66.833 72.751 C 66.512 72.872,65.537 73.196,64.667 73.469 C 54.559 76.646,47.450 79.040,47.371 79.292 C 47.285 79.567,47.820 79.559,48.154 79.280 C 48.298 79.158,49.579 78.678,51.000 78.213 C 57.282 76.155,61.512 74.783,65.000 73.672 C 67.063 73.015,69.275 72.300,69.917 72.082 C 72.257 71.288,87.594 66.330,88.500 66.074 C 92.605 64.916,93.190 62.221,90.219 58.167 C 89.581 57.296,87.269 54.108,85.080 51.083 C 82.892 48.058,79.741 43.708,78.079 41.417 C 68.040 27.579,63.678 21.555,61.662 18.743 C 60.411 16.997,58.864 14.860,58.224 13.993 C 57.584 13.126,55.278 9.942,53.098 6.917 C 48.866 1.043,47.333 -0.773,47.333 0.086 M353.288 8.049 C 348.942 9.572,349.215 16.628,353.664 17.763 C 357.620 18.773,360.409 16.732,360.402 12.833 C 360.395 8.798,357.228 6.668,353.288 8.049 M224.544 8.186 C 223.483 8.492,223.500 8.321,223.500 18.561 C 223.500 23.646,223.455 27.924,223.400 28.068 C 223.325 28.263,222.894 27.919,221.691 26.700 C 217.129 22.077,209.637 21.643,204.273 25.692 C 195.315 32.451,195.406 54.260,204.417 60.490 C 210.039 64.376,217.155 63.922,221.602 59.394 C 223.539 57.421,223.500 57.422,223.500 59.336 C 223.500 60.930,223.708 61.755,224.173 62.004 C 224.804 62.341,231.413 62.207,231.857 61.848 L 232.250 61.529 232.293 35.321 C 232.341 6.218,232.433 8.515,231.210 8.176 C 230.442 7.963,225.290 7.970,224.544 8.186 M357.424 8.503 C 359.558 9.237,360.570 12.099,359.704 14.951 C 358.575 18.671,352.012 18.375,350.901 14.554 C 349.639 10.213,353.090 7.011,357.424 8.503 M231.483 8.901 L 231.833 9.218 231.833 35.091 C 231.833 60.316,231.825 60.973,231.515 61.357 C 231.199 61.746,231.162 61.750,227.917 61.750 C 223.778 61.750,224.000 61.916,224.000 58.835 C 224.000 55.844,223.769 55.702,222.375 57.836 C 218.069 64.427,206.747 64.194,201.910 57.416 C 196.027 49.171,196.986 32.788,203.706 26.746 C 209.245 21.766,218.532 22.450,222.357 28.119 C 224.026 30.591,223.994 30.760,223.997 19.281 C 224.000 9.079,224.008 8.959,224.719 8.663 C 225.472 8.348,231.092 8.546,231.483 8.901 M45.116 10.542 C 44.801 10.931,43.871 12.188,43.050 13.333 C 42.228 14.479,40.553 16.804,39.327 18.500 C 38.102 20.196,35.779 23.421,34.166 25.667 C 32.552 27.912,30.876 30.232,30.441 30.821 C 29.555 32.022,29.482 32.552,30.194 32.635 C 30.585 32.680,35.988 31.016,39.000 29.922 C 46.102 27.344,45.418 27.330,54.083 30.243 C 63.821 33.516,63.710 33.519,61.163 30.064 C 60.427 29.066,58.753 26.750,57.443 24.917 C 56.133 23.083,54.691 21.086,54.239 20.479 C 53.787 19.871,52.592 18.227,51.583 16.824 C 48.430 12.438,47.340 10.935,46.906 10.375 C 46.316 9.614,45.830 9.659,45.116 10.542 M46.618 10.542 C 46.806 10.748,48.069 12.454,49.424 14.333 C 50.779 16.212,52.566 18.688,53.395 19.833 C 62.144 31.932,62.050 31.796,61.938 32.088 C 61.794 32.462,61.699 32.439,56.815 30.827 C 54.304 29.999,51.118 28.949,49.735 28.494 C 46.063 27.287,44.990 27.401,38.750 29.669 C 36.147 30.615,30.989 32.188,30.648 32.140 C 30.031 32.052,30.212 31.633,31.822 29.419 C 32.623 28.318,33.814 26.667,34.469 25.750 C 35.124 24.833,36.097 23.483,36.630 22.750 C 37.164 22.017,38.576 20.067,39.769 18.417 C 45.655 10.273,45.737 10.167,46.083 10.167 C 46.189 10.167,46.429 10.335,46.618 10.542 M118.643 11.319 L 118.250 11.637 118.250 36.583 L 118.250 61.529 118.643 61.848 C 119.265 62.351,126.077 62.333,126.721 61.826 L 127.154 61.486 127.202 51.979 C 127.248 42.791,127.261 42.465,127.574 42.236 C 127.841 42.041,129.201 41.999,135.490 41.996 C 144.310 41.992,144.797 41.934,147.761 40.518 C 153.055 37.989,156.058 31.749,155.359 24.731 C 154.634 17.463,150.963 12.993,144.417 11.405 L 142.750 11.000 130.893 11.000 C 119.468 11.000,119.023 11.012,118.643 11.319 M144.540 11.902 C 151.415 13.646,154.892 18.576,154.892 26.583 C 154.892 34.265,151.534 39.209,145.039 41.092 C 143.632 41.499,143.612 41.500,135.840 41.500 C 127.656 41.500,127.071 41.547,126.915 42.225 C 126.870 42.422,126.814 46.708,126.791 51.750 C 126.747 61.613,126.766 61.407,125.847 61.682 C 124.743 62.013,119.445 61.819,119.017 61.433 L 118.667 61.115 118.667 36.569 C 118.667 14.477,118.693 11.998,118.929 11.762 C 119.162 11.529,120.493 11.500,131.074 11.500 L 142.957 11.500 144.540 11.902 M328.392 13.610 C 327.483 13.801,327.423 14.062,327.333 18.225 C 327.220 23.493,327.107 23.667,323.803 23.667 C 320.843 23.667,320.750 23.785,320.750 27.530 C 320.750 30.969,320.680 30.889,323.801 31.000 C 325.093 31.046,326.225 31.158,326.315 31.250 C 326.418 31.355,326.502 35.812,326.541 43.250 C 326.617 57.641,326.619 57.654,329.038 59.942 C 331.022 61.819,332.368 62.160,337.799 62.164 L 341.848 62.167 342.258 61.758 C 342.888 61.127,342.893 56.116,342.265 55.384 L 341.863 54.917 338.758 54.833 C 336.244 54.766,335.624 54.702,335.496 54.500 C 335.181 54.000,335.290 31.577,335.609 31.312 C 335.814 31.141,336.748 31.062,339.289 31.000 C 343.587 30.895,343.431 31.057,343.309 26.794 C 343.218 23.611,343.300 23.667,338.679 23.667 C 336.610 23.667,335.674 23.607,335.533 23.467 C 335.388 23.321,335.333 22.072,335.333 18.893 L 335.333 14.519 334.931 14.051 L 334.530 13.583 331.640 13.559 C 330.050 13.546,328.589 13.569,328.392 13.610 M334.523 14.318 C 334.917 14.637,334.917 14.638,334.970 19.137 C 335.037 24.714,334.576 24.131,338.974 24.198 C 343.162 24.262,342.833 23.990,342.833 27.394 C 342.833 30.712,343.061 30.498,339.516 30.507 C 336.573 30.515,335.382 30.656,335.149 31.023 C 334.831 31.524,334.970 54.755,335.293 55.047 C 335.533 55.264,336.134 55.321,338.640 55.364 C 342.447 55.430,342.167 55.172,342.167 58.603 C 342.167 62.081,342.389 61.942,337.095 61.777 C 332.354 61.630,330.851 61.200,329.160 59.509 C 327.110 57.459,327.106 57.431,327.003 43.131 C 326.901 28.957,327.295 30.607,323.993 30.526 C 321.027 30.452,321.167 30.607,321.167 27.398 C 321.167 24.203,321.101 24.280,323.898 24.160 C 327.482 24.006,327.820 23.440,327.833 17.583 C 327.839 14.571,327.864 14.441,328.505 14.186 C 329.334 13.854,334.079 13.959,334.523 14.318 M127.109 18.805 C 126.722 19.233,126.685 33.734,127.070 34.260 C 127.424 34.743,140.081 34.759,141.917 34.278 C 143.879 33.764,145.005 32.913,145.874 31.287 C 146.234 30.613,146.250 30.416,146.250 26.583 L 146.250 22.583 145.756 21.691 C 144.911 20.165,143.669 19.257,141.742 18.755 C 140.134 18.336,127.494 18.379,127.109 18.805 M140.566 18.996 C 144.886 19.704,145.917 21.132,145.917 26.417 C 145.917 31.768,145.036 33.229,141.387 33.927 C 139.579 34.273,128.046 34.276,127.574 33.930 C 127.264 33.704,127.248 33.404,127.201 27.016 C 127.151 20.128,127.227 19.097,127.795 18.948 C 128.370 18.797,139.609 18.840,140.566 18.996 M254.083 23.010 C 249.604 23.453,246.436 24.919,243.535 27.891 C 241.159 30.325,241.165 30.493,243.713 32.869 C 246.556 35.520,246.322 35.497,248.488 33.346 C 250.968 30.882,251.901 30.459,255.055 30.367 C 260.504 30.207,262.596 32.011,262.794 37.040 C 262.904 39.849,263.121 39.667,259.688 39.667 C 245.867 39.671,240.161 43.118,240.108 51.500 C 240.062 58.638,244.673 63.000,252.264 63.000 C 256.936 63.000,260.228 61.539,262.572 58.424 C 263.707 56.916,263.702 56.917,264.315 58.125 C 265.928 61.301,267.599 62.167,272.112 62.167 C 275.676 62.167,275.664 62.179,275.666 58.453 C 275.667 55.215,275.406 54.833,273.189 54.833 C 271.538 54.833,271.668 55.624,271.659 45.508 C 271.655 40.600,271.590 35.833,271.514 34.917 C 271.007 28.831,267.329 24.803,261.083 23.497 C 259.859 23.241,255.817 22.778,255.500 22.858 C 255.454 22.869,254.817 22.938,254.083 23.010 M300.417 23.011 C 297.073 23.353,294.800 24.525,292.806 26.936 C 291.511 28.502,291.436 28.468,291.333 26.283 C 291.209 23.642,291.398 23.750,286.918 23.750 C 282.920 23.750,282.934 23.746,282.658 24.935 C 282.458 25.799,282.461 60.214,282.661 61.079 C 282.909 62.145,282.993 62.167,286.852 62.167 C 288.752 62.167,290.427 62.120,290.574 62.064 C 291.242 61.808,291.247 61.705,291.333 48.167 C 291.410 36.094,291.439 35.035,291.712 34.455 C 293.571 30.498,300.746 29.293,303.679 32.444 C 305.668 34.581,305.833 35.980,305.833 50.671 C 305.833 60.135,305.864 61.470,306.093 61.796 C 306.468 62.333,313.369 62.378,314.023 61.848 L 314.417 61.530 314.468 50.056 C 314.522 38.111,314.429 35.601,313.837 32.877 C 312.390 26.222,307.093 22.328,300.417 23.011 M382.917 23.088 C 372.671 24.293,366.901 32.667,367.800 45.027 C 368.641 56.579,374.936 62.996,385.433 62.999 C 391.388 63.001,396.542 60.222,399.301 55.521 C 400.512 53.457,400.024 53.578,398.630 55.687 C 395.027 61.138,389.056 63.480,381.833 62.275 C 375.347 61.193,370.265 56.344,368.993 50.024 C 368.889 49.507,368.699 48.633,368.571 48.083 C 367.238 42.356,368.533 34.712,371.631 30.026 C 374.612 25.517,380.914 22.723,386.393 23.481 C 387.048 23.571,388.068 23.693,388.660 23.752 C 392.326 24.113,396.042 26.524,398.349 30.038 C 399.902 32.403,399.816 32.576,396.244 34.244 C 393.261 35.638,393.402 35.648,392.454 33.985 C 389.309 28.470,380.622 28.702,377.618 34.381 C 376.384 36.716,375.843 45.641,376.712 49.341 C 378.613 57.430,388.903 58.784,393.128 51.500 C 393.989 50.016,394.114 50.016,396.964 51.504 C 398.221 52.160,399.368 52.803,399.513 52.932 C 399.863 53.244,400.000 53.228,400.000 52.875 C 400.000 52.549,394.855 49.833,394.237 49.833 C 393.814 49.833,393.437 50.239,392.462 51.750 C 390.558 54.698,388.129 55.874,384.500 55.606 C 378.685 55.176,376.834 52.173,376.835 43.167 C 376.835 35.409,377.890 32.740,381.583 31.160 C 385.674 29.411,390.355 30.923,392.304 34.624 C 393.124 36.181,393.189 36.176,397.250 34.261 C 399.961 32.982,400.260 32.613,399.623 31.330 C 397.751 27.554,393.988 24.481,390.149 23.593 C 389.216 23.377,385.076 22.800,384.838 22.853 C 384.790 22.864,383.925 22.969,382.917 23.088 M258.417 23.581 C 265.228 24.254,268.933 26.893,270.605 32.262 L 271.068 33.750 271.119 43.917 C 271.181 56.425,270.984 55.333,273.179 55.333 C 275.152 55.333,275.167 55.358,275.164 58.542 C 275.161 61.808,275.138 61.838,272.614 61.828 C 268.321 61.812,265.937 60.733,264.905 58.338 C 263.851 55.895,263.677 55.804,262.833 57.249 C 260.797 60.737,257.157 62.560,252.250 62.549 C 243.974 62.530,239.424 57.206,240.742 49.083 C 241.767 42.763,247.319 40.167,259.805 40.167 C 263.252 40.167,263.217 40.183,263.304 38.465 C 263.596 32.677,261.061 29.833,255.608 29.833 C 252.170 29.833,250.454 30.633,247.654 33.542 C 246.496 34.744,246.442 34.741,244.876 33.358 C 241.617 30.480,241.612 30.440,244.174 27.862 C 246.637 25.385,249.550 24.008,253.215 23.587 C 255.713 23.300,255.570 23.300,258.417 23.581 M303.594 23.575 C 309.394 24.343,312.784 28.040,313.663 34.552 C 314.117 37.916,314.190 60.953,313.748 61.395 C 313.152 61.991,306.835 62.018,306.403 61.426 C 306.205 61.155,306.166 59.293,306.164 49.843 C 306.160 33.819,305.933 32.721,302.252 30.902 L 301.026 30.296 298.638 30.366 C 295.548 30.457,294.213 30.947,292.562 32.599 C 290.832 34.329,290.941 33.338,290.838 48.286 C 290.756 60.347,290.731 61.174,290.453 61.453 C 289.926 61.979,283.756 61.896,283.319 61.357 C 283.009 60.974,283.000 60.444,283.000 42.974 L 283.000 24.985 283.419 24.566 L 283.838 24.147 286.985 24.198 C 291.017 24.265,290.832 24.139,290.836 26.817 C 290.839 29.994,291.019 30.150,292.404 28.184 C 294.314 25.474,296.512 24.056,299.500 23.605 C 301.563 23.294,301.477 23.294,303.594 23.575 M159.417 23.781 C 158.452 24.036,158.436 24.762,159.337 27.335 C 161.130 32.453,161.722 34.157,162.001 35.000 C 162.168 35.504,162.692 37.004,163.166 38.333 C 163.960 40.561,165.062 43.722,165.753 45.750 C 165.909 46.208,166.735 48.571,167.589 51.000 C 168.443 53.429,169.629 56.804,170.224 58.500 C 170.819 60.196,171.432 62.020,171.585 62.554 L 171.864 63.526 171.156 65.721 C 169.914 69.570,170.198 69.333,166.829 69.333 C 164.450 69.333,164.333 69.349,163.884 69.736 L 163.417 70.138 163.417 73.001 C 163.417 76.770,163.105 76.501,167.477 76.497 C 173.798 76.490,176.766 74.804,178.389 70.297 C 178.530 69.905,178.916 68.833,179.246 67.917 C 179.576 67.000,180.140 65.387,180.500 64.333 C 180.859 63.279,181.426 61.667,181.760 60.750 C 182.094 59.833,182.464 58.783,182.582 58.417 C 182.701 58.050,182.913 57.450,183.054 57.083 C 183.346 56.327,186.295 47.944,187.335 44.917 C 187.713 43.817,188.201 42.429,188.418 41.833 C 188.636 41.237,189.535 38.688,190.417 36.167 C 191.298 33.646,192.203 31.077,192.426 30.458 C 194.466 24.819,194.432 24.933,194.203 24.430 C 193.885 23.733,193.347 23.638,190.053 23.696 C 185.938 23.769,186.470 23.276,184.595 28.750 C 184.187 29.942,183.131 33.017,182.247 35.583 C 180.274 41.318,178.234 47.532,177.378 50.417 C 176.454 53.534,176.529 53.617,174.926 47.750 C 174.455 46.026,173.409 42.843,171.283 36.667 C 170.604 34.696,169.552 31.621,168.945 29.833 C 166.657 23.096,167.309 23.760,162.947 23.721 C 161.188 23.706,159.600 23.733,159.417 23.781 M351.911 23.818 C 351.037 24.191,351.083 23.133,351.083 42.908 C 351.083 60.201,351.100 61.291,351.379 61.716 L 351.674 62.167 355.319 62.167 C 358.659 62.167,358.996 62.140,359.357 61.848 L 359.750 61.529 359.750 43.019 L 359.750 24.509 359.371 24.130 C 358.963 23.722,352.742 23.462,351.911 23.818 M166.485 24.569 C 166.678 24.744,166.943 25.232,167.072 25.652 C 167.201 26.073,168.219 29.079,169.334 32.333 C 172.716 42.205,174.299 47.000,174.756 48.750 C 175.875 53.040,176.064 53.580,176.458 53.636 C 176.945 53.706,176.827 54.017,178.420 48.500 C 178.924 46.752,180.572 41.829,183.664 32.833 C 184.783 29.579,185.846 26.444,186.026 25.866 C 186.528 24.261,186.756 24.168,190.167 24.170 C 194.475 24.172,194.354 23.922,192.499 29.000 C 192.214 29.779,191.844 30.829,191.677 31.333 C 191.509 31.837,191.019 33.225,190.588 34.417 C 189.698 36.875,188.032 41.606,186.245 46.750 C 185.576 48.675,184.678 51.225,184.249 52.417 C 183.551 54.358,182.954 56.037,181.315 60.667 C 181.039 61.446,180.710 62.421,180.582 62.833 C 180.455 63.246,180.117 64.221,179.833 65.000 C 179.548 65.779,179.177 66.829,179.008 67.333 C 176.604 74.503,174.537 76.055,167.362 76.075 C 163.551 76.085,163.833 76.339,163.833 72.897 C 163.833 69.627,163.631 69.833,166.834 69.833 C 170.492 69.833,170.322 70.004,171.929 64.745 L 172.339 63.406 171.850 61.911 C 171.273 60.145,168.428 52.031,167.675 50.000 C 167.385 49.221,167.048 48.246,166.925 47.833 C 166.719 47.145,162.933 36.271,160.976 30.750 C 158.938 25.000,158.886 24.785,159.438 24.379 C 159.974 23.985,166.019 24.148,166.485 24.569 M359.097 24.574 C 359.465 25.078,359.450 61.026,359.081 61.395 C 358.486 61.991,352.168 62.018,351.736 61.426 C 351.290 60.815,351.394 24.940,351.843 24.490 C 352.352 23.981,358.718 24.054,359.097 24.574 M212.792 30.514 C 210.219 31.121,206.842 34.546,206.832 36.561 C 206.831 36.757,206.718 37.285,206.582 37.735 C 205.755 40.458,206.390 49.142,207.577 51.358 C 210.962 57.675,222.422 57.093,223.813 50.533 C 224.176 48.819,224.062 36.235,223.671 34.976 C 222.615 31.571,217.394 29.429,212.792 30.514 M218.274 31.019 C 220.611 31.739,222.287 32.956,223.035 34.475 C 223.482 35.382,223.726 48.693,223.330 50.599 C 222.071 56.662,210.983 56.984,207.864 51.047 C 206.335 48.137,206.361 38.088,207.906 35.021 C 209.671 31.516,214.208 29.765,218.274 31.019 M40.833 36.424 C 40.512 36.547,37.625 37.485,34.417 38.507 C 22.725 42.232,22.320 42.374,21.753 42.932 C 21.280 43.399,20.563 44.360,17.417 48.747 C 16.867 49.514,14.992 52.098,13.250 54.489 C 8.875 60.497,8.949 60.322,10.530 60.888 C 11.447 61.216,17.515 63.178,21.417 64.408 C 23.067 64.928,24.792 65.492,25.250 65.660 C 25.708 65.828,28.146 66.639,30.667 67.462 C 33.188 68.284,36.656 69.417,38.375 69.979 C 41.819 71.104,41.992 71.135,42.391 70.695 C 42.724 70.327,42.824 37.106,42.494 36.489 C 42.293 36.113,41.701 36.090,40.833 36.424 M49.645 36.442 C 49.293 36.867,49.306 70.315,49.659 70.740 C 49.986 71.135,50.626 71.019,53.654 70.015 C 54.990 69.571,58.896 68.292,62.333 67.172 C 65.771 66.051,68.958 64.999,69.417 64.834 C 69.875 64.668,71.487 64.144,73.000 63.669 C 83.915 60.239,83.333 60.631,81.417 58.000 C 80.850 57.221,79.385 55.196,78.162 53.500 C 74.591 48.549,71.270 43.957,70.862 43.406 C 70.217 42.536,64.636 40.534,51.100 36.317 C 50.380 36.093,49.901 36.134,49.645 36.442 M42.071 36.762 C 42.306 36.997,42.333 38.760,42.333 53.682 L 42.333 70.340 41.955 70.513 C 41.652 70.651,41.131 70.538,39.330 69.945 C 38.094 69.537,34.721 68.439,31.833 67.504 C 28.946 66.569,26.208 65.668,25.750 65.502 C 25.292 65.336,23.567 64.773,21.917 64.252 C 17.895 62.980,11.400 60.846,10.625 60.542 C 9.491 60.098,9.247 60.512,16.633 50.333 C 21.245 43.977,21.964 43.031,22.331 42.834 C 22.716 42.629,25.921 41.570,34.917 38.676 C 38.400 37.556,41.325 36.614,41.417 36.583 C 41.728 36.477,41.809 36.500,42.071 36.762 M56.167 38.268 C 66.319 41.570,69.597 42.700,70.048 43.053 C 70.304 43.253,71.654 45.001,73.048 46.937 C 76.326 51.490,79.595 56.010,81.029 57.975 C 82.794 60.394,83.161 60.076,75.917 62.410 C 72.892 63.385,69.892 64.360,69.250 64.576 C 68.608 64.792,65.271 65.884,61.833 67.002 C 58.396 68.120,54.472 69.402,53.115 69.851 C 50.276 70.789,50.272 70.789,49.926 70.296 C 49.521 69.718,49.532 37.432,49.938 36.854 C 50.292 36.348,50.200 36.327,56.167 38.268 M255.379 45.325 C 250.467 45.608,248.500 47.220,248.500 50.960 C 248.500 55.077,250.034 56.417,254.750 56.417 C 259.730 56.417,262.569 54.816,263.166 51.673 C 263.474 50.048,263.383 46.098,263.027 45.659 C 262.670 45.218,259.572 45.083,255.379 45.325 M262.511 45.839 C 262.920 46.058,262.987 51.112,262.596 52.209 C 261.705 54.705,259.046 56.024,254.833 56.062 C 250.428 56.101,248.998 54.839,249.005 50.917 C 249.010 47.728,250.842 46.017,254.500 45.786 C 256.776 45.642,262.210 45.678,262.511 45.839 M0.000 63.493 C 0.000 63.996,2.007 65.521,3.167 65.900 C 3.579 66.034,6.279 66.909,9.167 67.843 C 12.054 68.777,15.842 70.010,17.583 70.584 C 19.325 71.157,22.100 72.056,23.750 72.582 C 25.400 73.107,27.162 73.675,27.667 73.843 C 28.171 74.012,30.833 74.874,33.583 75.759 C 41.032 78.157,43.848 79.115,44.051 79.318 C 44.320 79.586,44.841 79.548,44.734 79.267 C 44.653 79.058,38.335 76.899,31.500 74.744 C 30.171 74.325,28.558 73.808,27.917 73.596 C 27.275 73.383,26.075 73.006,25.250 72.758 C 24.425 72.510,23.375 72.170,22.917 72.002 C 22.190 71.736,15.219 69.460,7.000 66.804 C 1.933 65.167,1.997 65.195,1.045 64.223 C 0.160 63.319,0.000 63.207,0.000 63.493 " stroke="none" fill="#5c657e" fill-rule="evenodd"></path><path id="path4" d="M353.546 8.421 C 350.030 9.529,349.564 15.332,352.856 17.012 C 354.762 17.984,357.896 17.548,359.075 16.146 C 360.353 14.627,360.173 10.503,358.770 9.186 C 357.827 8.300,355.168 7.911,353.546 8.421 M224.719 8.663 C 224.008 8.959,224.000 9.079,223.997 19.281 C 223.994 30.760,224.026 30.591,222.357 28.119 C 219.386 23.716,212.843 22.159,207.160 24.503 C 195.983 29.112,194.603 53.326,205.111 60.462 C 210.680 64.244,219.017 62.976,222.375 57.836 C 223.769 55.702,224.000 55.844,224.000 58.835 C 224.000 61.916,223.778 61.750,227.917 61.750 C 231.162 61.750,231.199 61.746,231.515 61.357 C 231.825 60.973,231.833 60.316,231.833 35.091 L 231.833 9.218 231.483 8.901 C 231.092 8.546,225.472 8.348,224.719 8.663 M356.717 8.773 C 359.093 9.312,359.990 11.300,359.316 14.533 C 358.687 17.548,353.122 18.130,351.708 15.329 C 350.305 12.550,351.265 9.496,353.750 8.839 C 355.230 8.447,355.280 8.446,356.717 8.773 M231.011 9.173 C 231.328 9.342,231.333 9.807,231.333 35.080 L 231.333 60.814 230.963 61.074 C 230.665 61.283,230.069 61.333,227.917 61.333 C 224.333 61.333,224.500 61.464,224.500 58.668 C 224.500 56.132,224.375 55.667,223.697 55.667 C 223.126 55.667,222.888 55.919,222.172 57.283 C 220.262 60.920,215.238 62.839,210.025 61.921 C 203.635 60.797,199.782 55.745,198.833 47.250 C 198.639 45.508,198.442 43.930,198.397 43.742 C 198.314 43.400,198.649 40.049,199.079 36.917 C 199.889 31.016,203.625 26.015,208.333 24.528 C 213.948 22.754,219.717 24.580,222.379 28.973 C 223.108 30.176,223.687 30.551,224.131 30.107 C 224.393 29.845,224.420 28.994,224.462 19.632 C 224.494 12.530,224.563 9.375,224.691 9.221 C 224.920 8.945,230.506 8.902,231.011 9.173 M118.929 11.762 C 118.693 11.998,118.667 14.477,118.667 36.569 L 118.667 61.115 119.017 61.433 C 119.445 61.819,124.743 62.013,125.847 61.682 C 126.766 61.407,126.747 61.613,126.791 51.750 C 126.814 46.708,126.870 42.422,126.915 42.225 C 127.071 41.547,127.656 41.500,135.840 41.500 C 143.612 41.500,143.632 41.499,145.039 41.092 C 151.534 39.209,154.892 34.265,154.892 26.583 C 154.892 18.576,151.415 13.646,144.540 11.902 L 142.957 11.500 131.074 11.500 C 120.493 11.500,119.162 11.529,118.929 11.762 M145.506 12.603 C 150.993 14.609,153.485 17.805,154.322 23.907 L 154.685 26.562 154.316 29.322 C 153.522 35.258,150.725 38.716,145.167 40.633 L 143.917 41.064 135.443 41.157 L 126.970 41.250 126.652 41.643 C 126.347 42.020,126.333 42.431,126.333 51.352 C 126.333 60.561,126.329 60.671,125.987 61.013 C 125.563 61.437,119.721 61.455,119.300 61.033 C 118.950 60.683,118.983 12.386,119.333 12.160 C 119.490 12.058,124.133 12.014,131.833 12.041 L 144.083 12.083 145.506 12.603 M328.505 14.186 C 327.864 14.441,327.839 14.571,327.833 17.583 C 327.820 23.440,327.482 24.006,323.898 24.160 C 321.101 24.280,321.167 24.203,321.167 27.398 C 321.167 30.607,321.027 30.452,323.993 30.526 C 327.295 30.607,326.901 28.957,327.003 43.131 C 327.106 57.431,327.110 57.459,329.160 59.509 C 330.851 61.200,332.354 61.630,337.095 61.777 C 342.389 61.942,342.167 62.081,342.167 58.603 C 342.167 55.172,342.447 55.430,338.640 55.364 C 336.134 55.321,335.533 55.264,335.293 55.047 C 334.970 54.755,334.831 31.524,335.149 31.023 C 335.382 30.656,336.573 30.515,339.516 30.507 C 343.061 30.498,342.833 30.712,342.833 27.394 C 342.833 23.990,343.162 24.262,338.974 24.198 C 334.576 24.131,335.037 24.714,334.970 19.137 C 334.903 13.519,335.224 13.996,331.523 14.011 C 330.090 14.016,328.731 14.095,328.505 14.186 M334.300 14.700 C 334.445 14.845,334.500 16.054,334.500 19.092 C 334.500 25.061,334.201 24.667,338.730 24.667 C 342.744 24.667,342.500 24.487,342.500 27.454 C 342.500 30.314,342.709 30.167,338.656 30.167 C 335.221 30.167,334.963 30.222,334.684 31.021 C 334.434 31.739,334.425 54.236,334.675 54.952 C 334.946 55.728,335.394 55.833,338.466 55.836 C 341.985 55.839,341.738 55.652,341.802 58.369 C 341.873 61.388,342.024 61.235,338.889 61.307 C 332.577 61.452,330.236 60.706,328.502 58.000 C 327.580 56.562,327.500 55.362,327.499 42.877 C 327.498 28.928,327.831 30.288,324.383 30.167 C 321.411 30.062,321.583 30.233,321.583 27.395 C 321.583 24.629,321.553 24.667,323.721 24.667 C 327.516 24.667,328.141 23.766,328.285 18.083 C 328.352 15.449,328.410 14.882,328.631 14.708 C 328.997 14.422,334.014 14.414,334.300 14.700 M127.250 18.178 C 126.313 18.457,126.333 18.272,126.333 26.523 L 126.333 34.148 126.736 34.616 L 127.138 35.083 133.944 35.083 C 139.785 35.083,140.868 35.045,141.583 34.812 C 142.042 34.662,142.731 34.454,143.116 34.349 C 143.970 34.117,145.493 32.771,146.131 31.686 L 146.583 30.917 146.583 26.577 L 146.583 22.237 146.000 21.272 C 144.972 19.571,143.252 18.489,141.078 18.174 C 139.652 17.968,127.943 17.971,127.250 18.178 M141.742 18.755 C 143.669 19.257,144.911 20.165,145.756 21.691 L 146.250 22.583 146.250 26.583 C 146.250 30.416,146.234 30.613,145.874 31.287 C 145.005 32.913,143.879 33.764,141.917 34.278 C 140.081 34.759,127.424 34.743,127.070 34.260 C 126.685 33.734,126.722 19.233,127.109 18.805 C 127.494 18.379,140.134 18.336,141.742 18.755 M253.215 23.587 C 249.550 24.008,246.637 25.385,244.174 27.862 C 241.612 30.440,241.617 30.480,244.876 33.358 C 246.442 34.741,246.496 34.744,247.654 33.542 C 250.454 30.633,252.170 29.833,255.608 29.833 C 261.061 29.833,263.596 32.677,263.304 38.465 C 263.217 40.183,263.252 40.167,259.805 40.167 C 247.319 40.167,241.767 42.763,240.742 49.083 C 239.424 57.206,243.974 62.530,252.250 62.549 C 257.157 62.560,260.797 60.737,262.833 57.249 C 263.677 55.804,263.851 55.895,264.905 58.338 C 265.937 60.733,268.321 61.812,272.614 61.828 C 275.138 61.838,275.161 61.808,275.164 58.542 C 275.167 55.358,275.152 55.333,273.179 55.333 C 270.984 55.333,271.181 56.425,271.119 43.917 L 271.068 33.750 270.605 32.262 C 268.933 26.893,265.228 24.254,258.417 23.581 C 255.570 23.300,255.713 23.300,253.215 23.587 M299.500 23.605 C 296.512 24.056,294.314 25.474,292.404 28.184 C 291.019 30.150,290.839 29.994,290.836 26.817 C 290.832 24.139,291.017 24.265,286.985 24.198 L 283.838 24.147 283.419 24.566 L 283.000 24.985 283.000 42.974 C 283.000 60.444,283.009 60.974,283.319 61.357 C 283.756 61.896,289.926 61.979,290.453 61.453 C 290.731 61.174,290.756 60.347,290.838 48.286 C 290.941 33.338,290.832 34.329,292.562 32.599 C 294.213 30.947,295.548 30.457,298.638 30.366 L 301.026 30.296 302.252 30.902 C 305.933 32.721,306.160 33.819,306.164 49.843 C 306.166 59.293,306.205 61.155,306.403 61.426 C 306.835 62.018,313.152 61.991,313.748 61.395 C 314.190 60.953,314.117 37.916,313.663 34.552 C 312.784 28.040,309.394 24.343,303.594 23.575 C 301.477 23.294,301.563 23.294,299.500 23.605 M382.513 23.586 C 374.274 24.572,369.031 30.790,368.181 40.581 C 367.991 42.766,368.181 46.405,368.571 48.083 C 368.699 48.633,368.889 49.507,368.993 50.024 C 370.265 56.344,375.347 61.193,381.833 62.275 C 389.084 63.484,394.987 61.157,398.665 55.639 C 400.416 53.011,400.577 53.397,396.939 51.494 C 394.117 50.017,393.988 50.017,393.128 51.500 C 389.539 57.688,380.389 57.790,377.513 51.674 C 375.827 48.088,375.891 37.648,377.618 34.381 C 380.622 28.702,389.309 28.470,392.454 33.985 C 393.402 35.648,393.261 35.638,396.244 34.244 C 399.816 32.576,399.902 32.403,398.349 30.038 C 395.886 26.286,392.393 24.139,387.983 23.664 C 385.122 23.357,384.500 23.348,382.513 23.586 M258.167 24.008 C 265.038 24.497,268.739 27.240,270.295 33.000 L 270.723 34.583 270.793 44.792 C 270.876 56.833,270.658 55.718,272.944 55.809 C 274.909 55.887,274.833 55.779,274.833 58.517 C 274.833 61.516,274.933 61.428,271.699 61.277 C 267.449 61.077,265.759 60.069,264.919 57.231 C 264.294 55.117,263.594 55.019,262.493 56.893 C 260.716 59.914,258.263 61.485,254.613 61.938 C 247.205 62.858,241.812 59.569,241.154 53.731 C 240.106 44.432,244.510 40.974,257.730 40.714 C 263.877 40.594,263.654 40.667,263.786 38.742 C 264.198 32.714,261.253 29.337,255.583 29.338 C 252.362 29.339,250.560 30.127,247.960 32.676 C 246.305 34.298,246.496 34.306,244.627 32.547 C 242.248 30.309,242.252 30.383,244.403 28.247 C 246.937 25.731,249.865 24.335,253.250 24.030 C 255.597 23.818,255.496 23.819,258.167 24.008 M303.406 24.014 C 307.472 24.423,311.246 27.220,312.254 30.570 C 312.375 30.971,312.584 31.513,312.718 31.775 C 313.525 33.348,314.178 59.903,313.435 60.921 C 313.073 61.416,307.231 61.531,306.796 61.051 C 306.542 60.770,306.513 59.639,306.465 48.163 L 306.413 35.583 305.757 34.083 C 303.554 29.047,296.187 28.174,292.135 32.470 C 290.337 34.376,290.431 33.543,290.333 48.328 L 290.250 60.907 289.833 61.123 C 289.254 61.424,283.946 61.347,283.633 61.033 C 283.220 60.620,283.325 25.206,283.740 24.903 C 284.222 24.551,289.444 24.563,289.950 24.917 C 290.282 25.150,290.312 25.336,290.362 27.495 C 290.407 29.395,290.468 29.873,290.694 30.099 C 291.114 30.518,291.715 30.285,292.055 29.573 C 293.469 26.607,296.528 24.387,299.713 24.017 C 301.440 23.816,301.433 23.816,303.406 24.014 M387.500 24.075 C 392.153 24.561,395.525 26.509,397.862 30.060 C 399.328 32.289,399.318 32.311,396.108 33.828 C 393.501 35.060,393.651 35.064,392.827 33.760 C 390.732 30.442,387.497 29.085,383.418 29.812 C 379.747 30.466,377.735 32.237,376.481 35.917 C 375.887 37.658,375.863 48.414,376.449 50.195 C 379.019 58.012,389.099 59.047,393.361 51.931 C 394.181 50.563,394.182 50.563,396.678 51.853 C 399.618 53.373,399.649 53.467,397.998 55.917 C 395.628 59.434,391.908 61.517,387.144 61.996 C 375.760 63.141,368.608 55.755,368.588 42.833 C 368.571 32.062,374.052 24.783,382.750 24.025 C 385.120 23.818,385.026 23.817,387.500 24.075 M159.438 24.379 C 158.886 24.785,158.938 25.000,160.976 30.750 C 162.933 36.271,166.719 47.145,166.925 47.833 C 167.048 48.246,167.385 49.221,167.675 50.000 C 168.428 52.031,171.273 60.145,171.850 61.911 L 172.339 63.406 171.929 64.745 C 170.322 70.004,170.492 69.833,166.834 69.833 C 163.631 69.833,163.833 69.627,163.833 72.897 C 163.833 76.339,163.551 76.085,167.362 76.075 C 174.537 76.055,176.604 74.503,179.008 67.333 C 179.177 66.829,179.548 65.779,179.833 65.000 C 180.117 64.221,180.455 63.246,180.582 62.833 C 180.710 62.421,181.039 61.446,181.315 60.667 C 182.954 56.037,183.551 54.358,184.249 52.417 C 184.678 51.225,185.576 48.675,186.245 46.750 C 188.032 41.606,189.698 36.875,190.588 34.417 C 191.019 33.225,191.509 31.837,191.677 31.333 C 191.844 30.829,192.214 29.779,192.499 29.000 C 194.354 23.922,194.475 24.172,190.167 24.170 C 186.756 24.168,186.528 24.261,186.026 25.866 C 185.846 26.444,184.783 29.579,183.664 32.833 C 180.572 41.829,178.924 46.752,178.420 48.500 C 176.827 54.017,176.945 53.706,176.458 53.636 C 176.064 53.580,175.875 53.040,174.756 48.750 C 174.299 47.000,172.716 42.205,169.334 32.333 C 168.219 29.079,167.201 26.073,167.072 25.652 C 166.650 24.282,166.579 24.257,162.941 24.200 C 160.429 24.160,159.684 24.198,159.438 24.379 M351.843 24.490 C 351.394 24.940,351.290 60.815,351.736 61.426 C 352.168 62.018,358.486 61.991,359.081 61.395 C 359.450 61.026,359.465 25.078,359.097 24.574 C 358.718 24.054,352.352 23.981,351.843 24.490 M166.146 24.958 C 166.460 25.220,166.879 26.256,167.578 28.500 C 167.707 28.912,167.933 29.587,168.081 30.000 C 168.228 30.412,168.789 32.063,169.327 33.667 C 169.864 35.271,170.689 37.671,171.160 39.000 C 172.637 43.171,174.000 47.330,174.000 47.665 C 174.000 47.842,174.146 48.384,174.324 48.869 C 174.502 49.353,174.697 50.050,174.757 50.417 C 175.390 54.238,176.875 55.753,177.512 53.228 C 177.694 52.509,178.136 51.008,178.684 49.250 C 178.885 48.608,179.143 47.671,179.258 47.167 C 179.491 46.145,179.894 44.933,180.345 43.893 C 180.510 43.513,180.697 42.913,180.761 42.560 C 180.825 42.206,180.983 41.710,181.111 41.457 C 181.239 41.204,181.484 40.566,181.655 40.040 C 181.827 39.514,182.543 37.433,183.247 35.417 C 183.951 33.400,184.631 31.412,184.757 31.000 C 185.871 27.370,186.772 25.081,187.167 24.882 C 187.600 24.663,192.382 24.568,192.903 24.768 C 193.396 24.957,193.261 25.683,192.197 28.583 C 191.928 29.317,191.403 30.779,191.030 31.833 C 190.657 32.887,190.120 34.387,189.836 35.167 C 189.552 35.946,189.025 37.446,188.665 38.500 C 188.305 39.554,187.777 41.054,187.493 41.833 C 187.209 42.612,186.838 43.700,186.669 44.250 C 186.294 45.469,185.881 46.668,185.493 47.667 C 185.333 48.079,185.002 48.979,184.757 49.667 C 184.512 50.354,184.134 51.404,183.917 52.000 C 182.909 54.764,182.125 56.981,181.913 57.667 C 181.786 58.079,181.446 59.054,181.158 59.833 C 180.870 60.612,180.500 61.707,180.335 62.266 C 180.170 62.824,179.915 63.514,179.768 63.799 C 179.621 64.084,179.500 64.432,179.500 64.572 C 179.500 64.828,179.382 65.152,177.890 68.998 C 175.799 74.390,174.221 75.424,167.788 75.621 C 163.954 75.738,164.166 75.896,164.169 72.933 C 164.173 70.051,163.928 70.267,167.310 70.167 C 170.600 70.070,170.641 70.051,171.164 68.431 C 171.345 67.873,171.753 66.667,172.072 65.750 C 172.839 63.550,172.827 63.394,171.650 60.000 C 171.094 58.396,170.502 56.671,170.334 56.167 C 170.033 55.260,168.923 52.165,167.975 49.583 C 167.706 48.850,167.382 47.913,167.255 47.500 C 166.960 46.536,166.377 44.813,165.988 43.750 C 165.820 43.292,165.297 41.792,164.826 40.417 C 163.185 35.631,161.641 31.245,161.335 30.500 C 161.165 30.087,160.905 29.375,160.756 28.917 C 159.470 24.957,159.522 25.168,159.779 24.911 C 160.174 24.516,165.665 24.557,166.146 24.958 M358.667 25.000 C 359.108 25.441,359.202 60.327,358.764 60.926 C 358.429 61.384,352.902 61.526,352.242 61.093 L 351.833 60.826 351.833 43.008 C 351.833 27.032,351.860 25.163,352.095 24.929 C 352.540 24.484,358.212 24.545,358.667 25.000 M213.411 30.002 C 210.485 30.312,206.500 33.920,206.500 36.260 C 206.500 36.444,206.350 37.022,206.167 37.543 C 205.628 39.077,205.672 46.588,206.234 48.845 C 207.166 52.589,209.884 55.537,212.750 55.913 C 213.208 55.974,213.977 56.105,214.459 56.205 C 215.330 56.386,215.689 56.351,218.620 55.807 C 220.804 55.401,223.276 53.467,224.021 51.583 L 224.417 50.583 224.417 43.000 C 224.417 34.522,224.446 34.759,223.207 33.128 C 221.261 30.567,217.978 29.520,213.411 30.002 M218.892 30.743 C 223.580 32.398,224.000 33.393,224.000 42.843 C 224.000 51.465,223.947 51.754,222.024 53.534 C 217.871 57.379,210.182 56.221,207.577 51.358 C 206.390 49.142,205.755 40.458,206.582 37.735 C 206.718 37.285,206.831 36.757,206.832 36.561 C 206.839 35.099,209.186 32.167,211.136 31.182 C 213.090 30.196,216.753 29.989,218.892 30.743 M254.222 45.011 C 250.083 45.330,248.000 47.332,248.000 50.990 C 248.000 55.946,251.343 57.823,258.074 56.647 C 259.914 56.325,261.898 55.064,262.839 53.616 C 263.987 51.853,264.291 46.103,263.282 45.236 C 262.772 44.796,258.415 44.689,254.222 45.011 M263.027 45.659 C 263.383 46.098,263.474 50.048,263.166 51.673 C 262.569 54.816,259.730 56.417,254.750 56.417 C 250.034 56.417,248.500 55.077,248.500 50.960 C 248.500 46.348,251.057 45.092,260.152 45.239 C 262.596 45.279,262.736 45.299,263.027 45.659 " stroke="none" fill="#5c657e" fill-rule="evenodd"></path></g></svg>